<?xml version="1.0" encoding="UTF-8" standalone="no"?>
<!DOCTYPE svg PUBLIC "-//W3C//DTD SVG 1.1//EN"
 "http://www.w3.org/Graphics/SVG/1.1/DTD/svg11.dtd">
<!-- Generated by graphviz version 2.43.0 (0)
 -->
<!-- Title: %3 Pages: 1 -->
<svg width="762pt" height="629pt"
 viewBox="0.00 0.00 762.00 629.00" xmlns="http://www.w3.org/2000/svg" xmlns:xlink="http://www.w3.org/1999/xlink">
<g id="graph0" class="graph" transform="scale(1 1) rotate(0) translate(4 625)">
<title>%3</title>
<polygon fill="white" stroke="transparent" points="-4,4 -4,-625 758,-625 758,4 -4,4"/>
<!-- node_0x606000001340 -->
<g id="node1" class="node">
<title>node_0x606000001340</title>
<path fill="#c6df90" stroke="black" d="M377,-584.5C377,-584.5 407,-584.5 407,-584.5 413,-584.5 419,-590.5 419,-596.5 419,-596.5 419,-608.5 419,-608.5 419,-614.5 413,-620.5 407,-620.5 407,-620.5 377,-620.5 377,-620.5 371,-620.5 365,-614.5 365,-608.5 365,-608.5 365,-596.5 365,-596.5 365,-590.5 371,-584.5 377,-584.5"/>
<text text-anchor="middle" x="392" y="-598.8" font-family="Times,serif" font-size="14.00">and</text>
</g>
<!-- node_0x606000001820 -->
<g id="node2" class="node">
<title>node_0x606000001820</title>
<path fill="#f0ffff" stroke="black" d="M338,-511.5C338,-511.5 368,-511.5 368,-511.5 374,-511.5 380,-517.5 380,-523.5 380,-523.5 380,-535.5 380,-535.5 380,-541.5 374,-547.5 368,-547.5 368,-547.5 338,-547.5 338,-547.5 332,-547.5 326,-541.5 326,-535.5 326,-535.5 326,-523.5 326,-523.5 326,-517.5 332,-511.5 338,-511.5"/>
<text text-anchor="middle" x="353" y="-525.8" font-family="Times,serif" font-size="14.00">fact</text>
</g>
<!-- node_0x606000001340&#45;&gt;node_0x606000001820 -->
<g id="edge1" class="edge">
<title>node_0x606000001340&#45;&gt;node_0x606000001820</title>
<path fill="none" stroke="#e32636" d="M382.56,-584.31C377.96,-575.94 372.33,-565.7 367.23,-556.4"/>
<polygon fill="#e32636" stroke="#e32636" points="370.24,-554.61 362.35,-547.53 364.1,-557.98 370.24,-554.61"/>
</g>
<!-- node_0x6060000012e0 -->
<g id="node30" class="node">
<title>node_0x6060000012e0</title>
<path fill="#c6df90" stroke="black" d="M449,-511.5C449,-511.5 479,-511.5 479,-511.5 485,-511.5 491,-517.5 491,-523.5 491,-523.5 491,-535.5 491,-535.5 491,-541.5 485,-547.5 479,-547.5 479,-547.5 449,-547.5 449,-547.5 443,-547.5 437,-541.5 437,-535.5 437,-535.5 437,-523.5 437,-523.5 437,-517.5 443,-511.5 449,-511.5"/>
<text text-anchor="middle" x="464" y="-525.8" font-family="Times,serif" font-size="14.00">and</text>
</g>
<!-- node_0x606000001340&#45;&gt;node_0x6060000012e0 -->
<g id="edge29" class="edge">
<title>node_0x606000001340&#45;&gt;node_0x6060000012e0</title>
<path fill="none" stroke="#1164b4" d="M409.43,-584.31C418.45,-575.42 429.61,-564.41 439.49,-554.67"/>
<polygon fill="#1164b4" stroke="#1164b4" points="442.07,-557.04 446.73,-547.53 437.15,-552.06 442.07,-557.04"/>
</g>
<!-- node_0x606000001880 -->
<g id="node3" class="node">
<title>node_0x606000001880</title>
<path fill="#9aceeb" stroke="black" d="M266,-438.5C266,-438.5 296,-438.5 296,-438.5 302,-438.5 308,-444.5 308,-450.5 308,-450.5 308,-462.5 308,-462.5 308,-468.5 302,-474.5 296,-474.5 296,-474.5 266,-474.5 266,-474.5 260,-474.5 254,-468.5 254,-462.5 254,-462.5 254,-450.5 254,-450.5 254,-444.5 260,-438.5 266,-438.5"/>
<text text-anchor="middle" x="281" y="-452.8" font-family="Times,serif" font-size="14.00">num</text>
</g>
<!-- node_0x606000001820&#45;&gt;node_0x606000001880 -->
<g id="edge2" class="edge">
<title>node_0x606000001820&#45;&gt;node_0x606000001880</title>
<path fill="none" stroke="#e32636" d="M335.57,-511.31C326.55,-502.42 315.39,-491.41 305.51,-481.67"/>
<polygon fill="#e32636" stroke="#e32636" points="307.85,-479.06 298.27,-474.53 302.93,-484.04 307.85,-479.06"/>
</g>
<!-- node_0x6060000018e0 -->
<g id="node4" class="node">
<title>node_0x6060000018e0</title>
<path fill="#c6df90" stroke="black" d="M338,-438.5C338,-438.5 368,-438.5 368,-438.5 374,-438.5 380,-444.5 380,-450.5 380,-450.5 380,-462.5 380,-462.5 380,-468.5 374,-474.5 368,-474.5 368,-474.5 338,-474.5 338,-474.5 332,-474.5 326,-468.5 326,-462.5 326,-462.5 326,-450.5 326,-450.5 326,-444.5 332,-438.5 338,-438.5"/>
<text text-anchor="middle" x="353" y="-452.8" font-family="Times,serif" font-size="14.00">and</text>
</g>
<!-- node_0x606000001820&#45;&gt;node_0x6060000018e0 -->
<g id="edge3" class="edge">
<title>node_0x606000001820&#45;&gt;node_0x6060000018e0</title>
<path fill="none" stroke="#1164b4" d="M353,-511.31C353,-503.29 353,-493.55 353,-484.57"/>
<polygon fill="#1164b4" stroke="#1164b4" points="356.5,-484.53 353,-474.53 349.5,-484.53 356.5,-484.53"/>
</g>
<!-- node_0x606000001940 -->
<g id="node5" class="node">
<title>node_0x606000001940</title>
<path fill="#f0ffff" stroke="black" d="M171,-365.5C171,-365.5 201,-365.5 201,-365.5 207,-365.5 213,-371.5 213,-377.5 213,-377.5 213,-389.5 213,-389.5 213,-395.5 207,-401.5 201,-401.5 201,-401.5 171,-401.5 171,-401.5 165,-401.5 159,-395.5 159,-389.5 159,-389.5 159,-377.5 159,-377.5 159,-371.5 165,-365.5 171,-365.5"/>
<text text-anchor="middle" x="186" y="-379.8" font-family="Times,serif" font-size="14.00">if</text>
</g>
<!-- node_0x6060000018e0&#45;&gt;node_0x606000001940 -->
<g id="edge4" class="edge">
<title>node_0x6060000018e0&#45;&gt;node_0x606000001940</title>
<path fill="none" stroke="#e32636" d="M325.96,-442.12C322.95,-440.7 319.92,-439.3 317,-438 285.48,-423.92 249.08,-409.17 222.67,-398.74"/>
<polygon fill="#e32636" stroke="#e32636" points="223.65,-395.36 213.06,-394.96 221.09,-401.88 223.65,-395.36"/>
</g>
<!-- node_0x606000001b80 -->
<g id="node11" class="node">
<title>node_0x606000001b80</title>
<path fill="#c6df90" stroke="black" d="M338,-365.5C338,-365.5 368,-365.5 368,-365.5 374,-365.5 380,-371.5 380,-377.5 380,-377.5 380,-389.5 380,-389.5 380,-395.5 374,-401.5 368,-401.5 368,-401.5 338,-401.5 338,-401.5 332,-401.5 326,-395.5 326,-389.5 326,-389.5 326,-377.5 326,-377.5 326,-371.5 332,-365.5 338,-365.5"/>
<text text-anchor="middle" x="353" y="-379.8" font-family="Times,serif" font-size="14.00">and</text>
</g>
<!-- node_0x6060000018e0&#45;&gt;node_0x606000001b80 -->
<g id="edge10" class="edge">
<title>node_0x6060000018e0&#45;&gt;node_0x606000001b80</title>
<path fill="none" stroke="#1164b4" d="M353,-438.31C353,-430.29 353,-420.55 353,-411.57"/>
<polygon fill="#1164b4" stroke="#1164b4" points="356.5,-411.53 353,-401.53 349.5,-411.53 356.5,-411.53"/>
</g>
<!-- node_0x6060000019a0 -->
<g id="node6" class="node">
<title>node_0x6060000019a0</title>
<path fill="#bdecb6" stroke="black" d="M63,-292.5C63,-292.5 125,-292.5 125,-292.5 131,-292.5 137,-298.5 137,-304.5 137,-304.5 137,-316.5 137,-316.5 137,-322.5 131,-328.5 125,-328.5 125,-328.5 63,-328.5 63,-328.5 57,-328.5 51,-322.5 51,-316.5 51,-316.5 51,-304.5 51,-304.5 51,-298.5 57,-292.5 63,-292.5"/>
<text text-anchor="middle" x="94" y="-306.8" font-family="Times,serif" font-size="14.00">less or eq</text>
</g>
<!-- node_0x606000001940&#45;&gt;node_0x6060000019a0 -->
<g id="edge5" class="edge">
<title>node_0x606000001940&#45;&gt;node_0x6060000019a0</title>
<path fill="none" stroke="#e32636" d="M163.73,-365.31C151.86,-356.16 137.1,-344.76 124.21,-334.82"/>
<polygon fill="#e32636" stroke="#e32636" points="126.12,-331.87 116.07,-328.53 121.84,-337.41 126.12,-331.87"/>
</g>
<!-- node_0x606000001ac0 -->
<g id="node9" class="node">
<title>node_0x606000001ac0</title>
<path fill="#f0ffff" stroke="black" d="M167,-292.5C167,-292.5 205,-292.5 205,-292.5 211,-292.5 217,-298.5 217,-304.5 217,-304.5 217,-316.5 217,-316.5 217,-322.5 211,-328.5 205,-328.5 205,-328.5 167,-328.5 167,-328.5 161,-328.5 155,-322.5 155,-316.5 155,-316.5 155,-304.5 155,-304.5 155,-298.5 161,-292.5 167,-292.5"/>
<text text-anchor="middle" x="186" y="-306.8" font-family="Times,serif" font-size="14.00">return</text>
</g>
<!-- node_0x606000001940&#45;&gt;node_0x606000001ac0 -->
<g id="edge8" class="edge">
<title>node_0x606000001940&#45;&gt;node_0x606000001ac0</title>
<path fill="none" stroke="#1164b4" d="M186,-365.31C186,-357.29 186,-347.55 186,-338.57"/>
<polygon fill="#1164b4" stroke="#1164b4" points="189.5,-338.53 186,-328.53 182.5,-338.53 189.5,-338.53"/>
</g>
<!-- node_0x606000001a00 -->
<g id="node7" class="node">
<title>node_0x606000001a00</title>
<path fill="#9aceeb" stroke="black" d="M12,-219.5C12,-219.5 42,-219.5 42,-219.5 48,-219.5 54,-225.5 54,-231.5 54,-231.5 54,-243.5 54,-243.5 54,-249.5 48,-255.5 42,-255.5 42,-255.5 12,-255.5 12,-255.5 6,-255.5 0,-249.5 0,-243.5 0,-243.5 0,-231.5 0,-231.5 0,-225.5 6,-219.5 12,-219.5"/>
<text text-anchor="middle" x="27" y="-233.8" font-family="Times,serif" font-size="14.00">num</text>
</g>
<!-- node_0x6060000019a0&#45;&gt;node_0x606000001a00 -->
<g id="edge6" class="edge">
<title>node_0x6060000019a0&#45;&gt;node_0x606000001a00</title>
<path fill="none" stroke="#e32636" d="M77.78,-292.31C69.47,-283.5 59.2,-272.63 50.08,-262.96"/>
<polygon fill="#e32636" stroke="#e32636" points="52.48,-260.4 43.07,-255.53 47.39,-265.2 52.48,-260.4"/>
</g>
<!-- node_0x606000001a60 -->
<g id="node8" class="node">
<title>node_0x606000001a60</title>
<path fill="#ddb9e9" stroke="black" d="M84,-219.5C84,-219.5 114,-219.5 114,-219.5 120,-219.5 126,-225.5 126,-231.5 126,-231.5 126,-243.5 126,-243.5 126,-249.5 120,-255.5 114,-255.5 114,-255.5 84,-255.5 84,-255.5 78,-255.5 72,-249.5 72,-243.5 72,-243.5 72,-231.5 72,-231.5 72,-225.5 78,-219.5 84,-219.5"/>
<text text-anchor="middle" x="99" y="-233.8" font-family="Times,serif" font-size="14.00">0</text>
</g>
<!-- node_0x6060000019a0&#45;&gt;node_0x606000001a60 -->
<g id="edge7" class="edge">
<title>node_0x6060000019a0&#45;&gt;node_0x606000001a60</title>
<path fill="none" stroke="#1164b4" d="M95.21,-292.31C95.78,-284.29 96.46,-274.55 97.09,-265.57"/>
<polygon fill="#1164b4" stroke="#1164b4" points="100.59,-265.75 97.8,-255.53 93.61,-265.26 100.59,-265.75"/>
</g>
<!-- node_0x606000001b20 -->
<g id="node10" class="node">
<title>node_0x606000001b20</title>
<path fill="#ddb9e9" stroke="black" d="M166,-219.5C166,-219.5 196,-219.5 196,-219.5 202,-219.5 208,-225.5 208,-231.5 208,-231.5 208,-243.5 208,-243.5 208,-249.5 202,-255.5 196,-255.5 196,-255.5 166,-255.5 166,-255.5 160,-255.5 154,-249.5 154,-243.5 154,-243.5 154,-231.5 154,-231.5 154,-225.5 160,-219.5 166,-219.5"/>
<text text-anchor="middle" x="181" y="-233.8" font-family="Times,serif" font-size="14.00">1</text>
</g>
<!-- node_0x606000001ac0&#45;&gt;node_0x606000001b20 -->
<g id="edge9" class="edge">
<title>node_0x606000001ac0&#45;&gt;node_0x606000001b20</title>
<path fill="none" stroke="#e32636" d="M184.79,-292.31C184.22,-284.29 183.54,-274.55 182.91,-265.57"/>
<polygon fill="#e32636" stroke="#e32636" points="186.39,-265.26 182.2,-255.53 179.41,-265.75 186.39,-265.26"/>
</g>
<!-- node_0x606000001be0 -->
<g id="node12" class="node">
<title>node_0x606000001be0</title>
<path fill="#f0ffff" stroke="black" d="M330,-292.5C330,-292.5 374,-292.5 374,-292.5 380,-292.5 386,-298.5 386,-304.5 386,-304.5 386,-316.5 386,-316.5 386,-322.5 380,-328.5 374,-328.5 374,-328.5 330,-328.5 330,-328.5 324,-328.5 318,-322.5 318,-316.5 318,-316.5 318,-304.5 318,-304.5 318,-298.5 324,-292.5 330,-292.5"/>
<text text-anchor="middle" x="352" y="-306.8" font-family="Times,serif" font-size="14.00">var init</text>
</g>
<!-- node_0x606000001b80&#45;&gt;node_0x606000001be0 -->
<g id="edge11" class="edge">
<title>node_0x606000001b80&#45;&gt;node_0x606000001be0</title>
<path fill="none" stroke="#e32636" d="M352.76,-365.31C352.64,-357.29 352.51,-347.55 352.38,-338.57"/>
<polygon fill="#e32636" stroke="#e32636" points="355.88,-338.48 352.24,-328.53 348.88,-338.58 355.88,-338.48"/>
</g>
<!-- node_0x606000001d00 -->
<g id="node15" class="node">
<title>node_0x606000001d00</title>
<path fill="#c6df90" stroke="black" d="M416,-292.5C416,-292.5 446,-292.5 446,-292.5 452,-292.5 458,-298.5 458,-304.5 458,-304.5 458,-316.5 458,-316.5 458,-322.5 452,-328.5 446,-328.5 446,-328.5 416,-328.5 416,-328.5 410,-328.5 404,-322.5 404,-316.5 404,-316.5 404,-304.5 404,-304.5 404,-298.5 410,-292.5 416,-292.5"/>
<text text-anchor="middle" x="431" y="-306.8" font-family="Times,serif" font-size="14.00">and</text>
</g>
<!-- node_0x606000001b80&#45;&gt;node_0x606000001d00 -->
<g id="edge14" class="edge">
<title>node_0x606000001b80&#45;&gt;node_0x606000001d00</title>
<path fill="none" stroke="#1164b4" d="M371.88,-365.31C381.75,-356.33 393.98,-345.19 404.76,-335.39"/>
<polygon fill="#1164b4" stroke="#1164b4" points="407.25,-337.85 412.29,-328.53 402.54,-332.67 407.25,-337.85"/>
</g>
<!-- node_0x606000001c40 -->
<g id="node13" class="node">
<title>node_0x606000001c40</title>
<path fill="#9aceeb" stroke="black" d="M238.5,-219.5C238.5,-219.5 301.5,-219.5 301.5,-219.5 307.5,-219.5 313.5,-225.5 313.5,-231.5 313.5,-231.5 313.5,-243.5 313.5,-243.5 313.5,-249.5 307.5,-255.5 301.5,-255.5 301.5,-255.5 238.5,-255.5 238.5,-255.5 232.5,-255.5 226.5,-249.5 226.5,-243.5 226.5,-243.5 226.5,-231.5 226.5,-231.5 226.5,-225.5 232.5,-219.5 238.5,-219.5"/>
<text text-anchor="middle" x="270" y="-233.8" font-family="Times,serif" font-size="14.00">fact_temp</text>
</g>
<!-- node_0x606000001be0&#45;&gt;node_0x606000001c40 -->
<g id="edge12" class="edge">
<title>node_0x606000001be0&#45;&gt;node_0x606000001c40</title>
<path fill="none" stroke="#e32636" d="M332.15,-292.31C321.67,-283.24 308.66,-271.98 297.26,-262.1"/>
<polygon fill="#e32636" stroke="#e32636" points="299.52,-259.43 289.67,-255.53 294.94,-264.72 299.52,-259.43"/>
</g>
<!-- node_0x606000001ca0 -->
<g id="node14" class="node">
<title>node_0x606000001ca0</title>
<path fill="#ddb9e9" stroke="black" d="M344,-219.5C344,-219.5 374,-219.5 374,-219.5 380,-219.5 386,-225.5 386,-231.5 386,-231.5 386,-243.5 386,-243.5 386,-249.5 380,-255.5 374,-255.5 374,-255.5 344,-255.5 344,-255.5 338,-255.5 332,-249.5 332,-243.5 332,-243.5 332,-231.5 332,-231.5 332,-225.5 338,-219.5 344,-219.5"/>
<text text-anchor="middle" x="359" y="-233.8" font-family="Times,serif" font-size="14.00">0</text>
</g>
<!-- node_0x606000001be0&#45;&gt;node_0x606000001ca0 -->
<g id="edge13" class="edge">
<title>node_0x606000001be0&#45;&gt;node_0x606000001ca0</title>
<path fill="none" stroke="#1164b4" d="M353.69,-292.31C354.49,-284.29 355.45,-274.55 356.33,-265.57"/>
<polygon fill="#1164b4" stroke="#1164b4" points="359.82,-265.82 357.32,-255.53 352.86,-265.14 359.82,-265.82"/>
</g>
<!-- node_0x606000001d60 -->
<g id="node16" class="node">
<title>node_0x606000001d60</title>
<path fill="#f0ffff" stroke="black" d="M416,-219.5C416,-219.5 446,-219.5 446,-219.5 452,-219.5 458,-225.5 458,-231.5 458,-231.5 458,-243.5 458,-243.5 458,-249.5 452,-255.5 446,-255.5 446,-255.5 416,-255.5 416,-255.5 410,-255.5 404,-249.5 404,-243.5 404,-243.5 404,-231.5 404,-231.5 404,-225.5 410,-219.5 416,-219.5"/>
<text text-anchor="middle" x="431" y="-233.8" font-family="Times,serif" font-size="14.00">=</text>
</g>
<!-- node_0x606000001d00&#45;&gt;node_0x606000001d60 -->
<g id="edge15" class="edge">
<title>node_0x606000001d00&#45;&gt;node_0x606000001d60</title>
<path fill="none" stroke="#e32636" d="M431,-292.31C431,-284.29 431,-274.55 431,-265.57"/>
<polygon fill="#e32636" stroke="#e32636" points="434.5,-265.53 431,-255.53 427.5,-265.53 434.5,-265.53"/>
</g>
<!-- node_0x606000001fa0 -->
<g id="node22" class="node">
<title>node_0x606000001fa0</title>
<path fill="#c6df90" stroke="black" d="M488,-219.5C488,-219.5 518,-219.5 518,-219.5 524,-219.5 530,-225.5 530,-231.5 530,-231.5 530,-243.5 530,-243.5 530,-249.5 524,-255.5 518,-255.5 518,-255.5 488,-255.5 488,-255.5 482,-255.5 476,-249.5 476,-243.5 476,-243.5 476,-231.5 476,-231.5 476,-225.5 482,-219.5 488,-219.5"/>
<text text-anchor="middle" x="503" y="-233.8" font-family="Times,serif" font-size="14.00">and</text>
</g>
<!-- node_0x606000001d00&#45;&gt;node_0x606000001fa0 -->
<g id="edge21" class="edge">
<title>node_0x606000001d00&#45;&gt;node_0x606000001fa0</title>
<path fill="none" stroke="#1164b4" d="M448.43,-292.31C457.45,-283.42 468.61,-272.41 478.49,-262.67"/>
<polygon fill="#1164b4" stroke="#1164b4" points="481.07,-265.04 485.73,-255.53 476.15,-260.06 481.07,-265.04"/>
</g>
<!-- node_0x606000001dc0 -->
<g id="node17" class="node">
<title>node_0x606000001dc0</title>
<path fill="#9aceeb" stroke="black" d="M310.5,-146.5C310.5,-146.5 373.5,-146.5 373.5,-146.5 379.5,-146.5 385.5,-152.5 385.5,-158.5 385.5,-158.5 385.5,-170.5 385.5,-170.5 385.5,-176.5 379.5,-182.5 373.5,-182.5 373.5,-182.5 310.5,-182.5 310.5,-182.5 304.5,-182.5 298.5,-176.5 298.5,-170.5 298.5,-170.5 298.5,-158.5 298.5,-158.5 298.5,-152.5 304.5,-146.5 310.5,-146.5"/>
<text text-anchor="middle" x="342" y="-160.8" font-family="Times,serif" font-size="14.00">fact_temp</text>
</g>
<!-- node_0x606000001d60&#45;&gt;node_0x606000001dc0 -->
<g id="edge16" class="edge">
<title>node_0x606000001d60&#45;&gt;node_0x606000001dc0</title>
<path fill="none" stroke="#e32636" d="M409.46,-219.31C397.98,-210.16 383.69,-198.76 371.23,-188.82"/>
<polygon fill="#e32636" stroke="#e32636" points="373.35,-186.03 363.35,-182.53 368.98,-191.5 373.35,-186.03"/>
</g>
<!-- node_0x606000001e20 -->
<g id="node18" class="node">
<title>node_0x606000001e20</title>
<path fill="#f0ffff" stroke="black" d="M416,-146.5C416,-146.5 446,-146.5 446,-146.5 452,-146.5 458,-152.5 458,-158.5 458,-158.5 458,-170.5 458,-170.5 458,-176.5 452,-182.5 446,-182.5 446,-182.5 416,-182.5 416,-182.5 410,-182.5 404,-176.5 404,-170.5 404,-170.5 404,-158.5 404,-158.5 404,-152.5 410,-146.5 416,-146.5"/>
<text text-anchor="middle" x="431" y="-160.8" font-family="Times,serif" font-size="14.00">fact</text>
</g>
<!-- node_0x606000001d60&#45;&gt;node_0x606000001e20 -->
<g id="edge17" class="edge">
<title>node_0x606000001d60&#45;&gt;node_0x606000001e20</title>
<path fill="none" stroke="#1164b4" d="M431,-219.31C431,-211.29 431,-201.55 431,-192.57"/>
<polygon fill="#1164b4" stroke="#1164b4" points="434.5,-192.53 431,-182.53 427.5,-192.53 434.5,-192.53"/>
</g>
<!-- node_0x606000001e80 -->
<g id="node19" class="node">
<title>node_0x606000001e80</title>
<path fill="#e6a8d7" stroke="black" d="M355,-73.5C355,-73.5 385,-73.5 385,-73.5 391,-73.5 397,-79.5 397,-85.5 397,-85.5 397,-97.5 397,-97.5 397,-103.5 391,-109.5 385,-109.5 385,-109.5 355,-109.5 355,-109.5 349,-109.5 343,-103.5 343,-97.5 343,-97.5 343,-85.5 343,-85.5 343,-79.5 349,-73.5 355,-73.5"/>
<text text-anchor="middle" x="370" y="-87.8" font-family="Times,serif" font-size="14.00">&#45;</text>
</g>
<!-- node_0x606000001e20&#45;&gt;node_0x606000001e80 -->
<g id="edge18" class="edge">
<title>node_0x606000001e20&#45;&gt;node_0x606000001e80</title>
<path fill="none" stroke="#e32636" d="M416.23,-146.31C408.74,-137.59 399.5,-126.84 391.26,-117.25"/>
<polygon fill="#e32636" stroke="#e32636" points="393.8,-114.83 384.63,-109.53 388.49,-119.39 393.8,-114.83"/>
</g>
<!-- node_0x606000001ee0 -->
<g id="node20" class="node">
<title>node_0x606000001ee0</title>
<path fill="#9aceeb" stroke="black" d="M319,-0.5C319,-0.5 349,-0.5 349,-0.5 355,-0.5 361,-6.5 361,-12.5 361,-12.5 361,-24.5 361,-24.5 361,-30.5 355,-36.5 349,-36.5 349,-36.5 319,-36.5 319,-36.5 313,-36.5 307,-30.5 307,-24.5 307,-24.5 307,-12.5 307,-12.5 307,-6.5 313,-0.5 319,-0.5"/>
<text text-anchor="middle" x="334" y="-14.8" font-family="Times,serif" font-size="14.00">num</text>
</g>
<!-- node_0x606000001e80&#45;&gt;node_0x606000001ee0 -->
<g id="edge19" class="edge">
<title>node_0x606000001e80&#45;&gt;node_0x606000001ee0</title>
<path fill="none" stroke="#e32636" d="M361.29,-73.31C357.08,-65.03 351.95,-54.91 347.28,-45.69"/>
<polygon fill="#e32636" stroke="#e32636" points="350.28,-43.87 342.63,-36.53 344.04,-47.03 350.28,-43.87"/>
</g>
<!-- node_0x606000001f40 -->
<g id="node21" class="node">
<title>node_0x606000001f40</title>
<path fill="#ddb9e9" stroke="black" d="M391,-0.5C391,-0.5 421,-0.5 421,-0.5 427,-0.5 433,-6.5 433,-12.5 433,-12.5 433,-24.5 433,-24.5 433,-30.5 427,-36.5 421,-36.5 421,-36.5 391,-36.5 391,-36.5 385,-36.5 379,-30.5 379,-24.5 379,-24.5 379,-12.5 379,-12.5 379,-6.5 385,-0.5 391,-0.5"/>
<text text-anchor="middle" x="406" y="-14.8" font-family="Times,serif" font-size="14.00">1</text>
</g>
<!-- node_0x606000001e80&#45;&gt;node_0x606000001f40 -->
<g id="edge20" class="edge">
<title>node_0x606000001e80&#45;&gt;node_0x606000001f40</title>
<path fill="none" stroke="#1164b4" d="M378.71,-73.31C382.92,-65.03 388.05,-54.91 392.72,-45.69"/>
<polygon fill="#1164b4" stroke="#1164b4" points="395.96,-47.03 397.37,-36.53 389.72,-43.87 395.96,-47.03"/>
</g>
<!-- node_0x606000002000 -->
<g id="node23" class="node">
<title>node_0x606000002000</title>
<path fill="#f0ffff" stroke="black" d="M488,-146.5C488,-146.5 518,-146.5 518,-146.5 524,-146.5 530,-152.5 530,-158.5 530,-158.5 530,-170.5 530,-170.5 530,-176.5 524,-182.5 518,-182.5 518,-182.5 488,-182.5 488,-182.5 482,-182.5 476,-176.5 476,-170.5 476,-170.5 476,-158.5 476,-158.5 476,-152.5 482,-146.5 488,-146.5"/>
<text text-anchor="middle" x="503" y="-160.8" font-family="Times,serif" font-size="14.00">=</text>
</g>
<!-- node_0x606000001fa0&#45;&gt;node_0x606000002000 -->
<g id="edge22" class="edge">
<title>node_0x606000001fa0&#45;&gt;node_0x606000002000</title>
<path fill="none" stroke="#e32636" d="M503,-219.31C503,-211.29 503,-201.55 503,-192.57"/>
<polygon fill="#e32636" stroke="#e32636" points="506.5,-192.53 503,-182.53 499.5,-192.53 506.5,-192.53"/>
</g>
<!-- node_0x6060000021e0 -->
<g id="node28" class="node">
<title>node_0x6060000021e0</title>
<path fill="#f0ffff" stroke="black" d="M560,-146.5C560,-146.5 598,-146.5 598,-146.5 604,-146.5 610,-152.5 610,-158.5 610,-158.5 610,-170.5 610,-170.5 610,-176.5 604,-182.5 598,-182.5 598,-182.5 560,-182.5 560,-182.5 554,-182.5 548,-176.5 548,-170.5 548,-170.5 548,-158.5 548,-158.5 548,-152.5 554,-146.5 560,-146.5"/>
<text text-anchor="middle" x="579" y="-160.8" font-family="Times,serif" font-size="14.00">return</text>
</g>
<!-- node_0x606000001fa0&#45;&gt;node_0x6060000021e0 -->
<g id="edge27" class="edge">
<title>node_0x606000001fa0&#45;&gt;node_0x6060000021e0</title>
<path fill="none" stroke="#1164b4" d="M521.4,-219.31C531.01,-210.33 542.93,-199.19 553.43,-189.39"/>
<polygon fill="#1164b4" stroke="#1164b4" points="555.85,-191.91 560.77,-182.53 551.08,-186.8 555.85,-191.91"/>
</g>
<!-- node_0x606000002060 -->
<g id="node24" class="node">
<title>node_0x606000002060</title>
<path fill="#9aceeb" stroke="black" d="M427.5,-73.5C427.5,-73.5 490.5,-73.5 490.5,-73.5 496.5,-73.5 502.5,-79.5 502.5,-85.5 502.5,-85.5 502.5,-97.5 502.5,-97.5 502.5,-103.5 496.5,-109.5 490.5,-109.5 490.5,-109.5 427.5,-109.5 427.5,-109.5 421.5,-109.5 415.5,-103.5 415.5,-97.5 415.5,-97.5 415.5,-85.5 415.5,-85.5 415.5,-79.5 421.5,-73.5 427.5,-73.5"/>
<text text-anchor="middle" x="459" y="-87.8" font-family="Times,serif" font-size="14.00">fact_temp</text>
</g>
<!-- node_0x606000002000&#45;&gt;node_0x606000002060 -->
<g id="edge23" class="edge">
<title>node_0x606000002000&#45;&gt;node_0x606000002060</title>
<path fill="none" stroke="#e32636" d="M492.35,-146.31C487.11,-137.85 480.68,-127.48 474.87,-118.11"/>
<polygon fill="#e32636" stroke="#e32636" points="477.8,-116.19 469.55,-109.53 471.85,-119.87 477.8,-116.19"/>
</g>
<!-- node_0x6060000020c0 -->
<g id="node25" class="node">
<title>node_0x6060000020c0</title>
<path fill="#e6a8d7" stroke="black" d="M533,-73.5C533,-73.5 563,-73.5 563,-73.5 569,-73.5 575,-79.5 575,-85.5 575,-85.5 575,-97.5 575,-97.5 575,-103.5 569,-109.5 563,-109.5 563,-109.5 533,-109.5 533,-109.5 527,-109.5 521,-103.5 521,-97.5 521,-97.5 521,-85.5 521,-85.5 521,-79.5 527,-73.5 533,-73.5"/>
<text text-anchor="middle" x="548" y="-87.8" font-family="Times,serif" font-size="14.00">*</text>
</g>
<!-- node_0x606000002000&#45;&gt;node_0x6060000020c0 -->
<g id="edge24" class="edge">
<title>node_0x606000002000&#45;&gt;node_0x6060000020c0</title>
<path fill="none" stroke="#1164b4" d="M513.89,-146.31C519.25,-137.85 525.83,-127.48 531.77,-118.11"/>
<polygon fill="#1164b4" stroke="#1164b4" points="534.81,-119.85 537.21,-109.53 528.9,-116.1 534.81,-119.85"/>
</g>
<!-- node_0x606000002120 -->
<g id="node26" class="node">
<title>node_0x606000002120</title>
<path fill="#9aceeb" stroke="black" d="M489.5,-0.5C489.5,-0.5 552.5,-0.5 552.5,-0.5 558.5,-0.5 564.5,-6.5 564.5,-12.5 564.5,-12.5 564.5,-24.5 564.5,-24.5 564.5,-30.5 558.5,-36.5 552.5,-36.5 552.5,-36.5 489.5,-36.5 489.5,-36.5 483.5,-36.5 477.5,-30.5 477.5,-24.5 477.5,-24.5 477.5,-12.5 477.5,-12.5 477.5,-6.5 483.5,-0.5 489.5,-0.5"/>
<text text-anchor="middle" x="521" y="-14.8" font-family="Times,serif" font-size="14.00">fact_temp</text>
</g>
<!-- node_0x6060000020c0&#45;&gt;node_0x606000002120 -->
<g id="edge25" class="edge">
<title>node_0x6060000020c0&#45;&gt;node_0x606000002120</title>
<path fill="none" stroke="#e32636" d="M541.46,-73.31C538.35,-65.12 534.55,-55.12 531.07,-45.98"/>
<polygon fill="#e32636" stroke="#e32636" points="534.3,-44.63 527.48,-36.53 527.76,-47.12 534.3,-44.63"/>
</g>
<!-- node_0x606000002180 -->
<g id="node27" class="node">
<title>node_0x606000002180</title>
<path fill="#9aceeb" stroke="black" d="M595,-0.5C595,-0.5 625,-0.5 625,-0.5 631,-0.5 637,-6.5 637,-12.5 637,-12.5 637,-24.5 637,-24.5 637,-30.5 631,-36.5 625,-36.5 625,-36.5 595,-36.5 595,-36.5 589,-36.5 583,-30.5 583,-24.5 583,-24.5 583,-12.5 583,-12.5 583,-6.5 589,-0.5 595,-0.5"/>
<text text-anchor="middle" x="610" y="-14.8" font-family="Times,serif" font-size="14.00">num</text>
</g>
<!-- node_0x6060000020c0&#45;&gt;node_0x606000002180 -->
<g id="edge26" class="edge">
<title>node_0x6060000020c0&#45;&gt;node_0x606000002180</title>
<path fill="none" stroke="#1164b4" d="M563.01,-73.31C570.62,-64.59 580.01,-53.84 588.39,-44.25"/>
<polygon fill="#1164b4" stroke="#1164b4" points="591.19,-46.36 595.13,-36.53 585.92,-41.76 591.19,-46.36"/>
</g>
<!-- node_0x606000002240 -->
<g id="node29" class="node">
<title>node_0x606000002240</title>
<path fill="#9aceeb" stroke="black" d="M605.5,-73.5C605.5,-73.5 668.5,-73.5 668.5,-73.5 674.5,-73.5 680.5,-79.5 680.5,-85.5 680.5,-85.5 680.5,-97.5 680.5,-97.5 680.5,-103.5 674.5,-109.5 668.5,-109.5 668.5,-109.5 605.5,-109.5 605.5,-109.5 599.5,-109.5 593.5,-103.5 593.5,-97.5 593.5,-97.5 593.5,-85.5 593.5,-85.5 593.5,-79.5 599.5,-73.5 605.5,-73.5"/>
<text text-anchor="middle" x="637" y="-87.8" font-family="Times,serif" font-size="14.00">fact_temp</text>
</g>
<!-- node_0x6060000021e0&#45;&gt;node_0x606000002240 -->
<g id="edge28" class="edge">
<title>node_0x6060000021e0&#45;&gt;node_0x606000002240</title>
<path fill="none" stroke="#e32636" d="M593.04,-146.31C600.09,-137.68 608.77,-127.06 616.55,-117.53"/>
<polygon fill="#e32636" stroke="#e32636" points="619.47,-119.49 623.09,-109.53 614.05,-115.06 619.47,-119.49"/>
</g>
<!-- node_0x606000000da0 -->
<g id="node31" class="node">
<title>node_0x606000000da0</title>
<path fill="#f0ffff" stroke="black" d="M442,-438.5C442,-438.5 486,-438.5 486,-438.5 492,-438.5 498,-444.5 498,-450.5 498,-450.5 498,-462.5 498,-462.5 498,-468.5 492,-474.5 486,-474.5 486,-474.5 442,-474.5 442,-474.5 436,-474.5 430,-468.5 430,-462.5 430,-462.5 430,-450.5 430,-450.5 430,-444.5 436,-438.5 442,-438.5"/>
<text text-anchor="middle" x="464" y="-452.8" font-family="Times,serif" font-size="14.00">var init</text>
</g>
<!-- node_0x6060000012e0&#45;&gt;node_0x606000000da0 -->
<g id="edge30" class="edge">
<title>node_0x6060000012e0&#45;&gt;node_0x606000000da0</title>
<path fill="none" stroke="#e32636" d="M464,-511.31C464,-503.29 464,-493.55 464,-484.57"/>
<polygon fill="#e32636" stroke="#e32636" points="467.5,-484.53 464,-474.53 460.5,-484.53 467.5,-484.53"/>
</g>
<!-- node_0x606000001280 -->
<g id="node34" class="node">
<title>node_0x606000001280</title>
<path fill="#c6df90" stroke="black" d="M561,-438.5C561,-438.5 591,-438.5 591,-438.5 597,-438.5 603,-444.5 603,-450.5 603,-450.5 603,-462.5 603,-462.5 603,-468.5 597,-474.5 591,-474.5 591,-474.5 561,-474.5 561,-474.5 555,-474.5 549,-468.5 549,-462.5 549,-462.5 549,-450.5 549,-450.5 549,-444.5 555,-438.5 561,-438.5"/>
<text text-anchor="middle" x="576" y="-452.8" font-family="Times,serif" font-size="14.00">and</text>
</g>
<!-- node_0x6060000012e0&#45;&gt;node_0x606000001280 -->
<g id="edge33" class="edge">
<title>node_0x6060000012e0&#45;&gt;node_0x606000001280</title>
<path fill="none" stroke="#1164b4" d="M490.83,-511.49C505.68,-502.08 524.33,-490.26 540.39,-480.07"/>
<polygon fill="#1164b4" stroke="#1164b4" points="542.43,-482.92 549,-474.61 538.68,-477.01 542.43,-482.92"/>
</g>
<!-- node_0x606000000ce0 -->
<g id="node32" class="node">
<title>node_0x606000000ce0</title>
<path fill="#9aceeb" stroke="black" d="M410,-365.5C410,-365.5 440,-365.5 440,-365.5 446,-365.5 452,-371.5 452,-377.5 452,-377.5 452,-389.5 452,-389.5 452,-395.5 446,-401.5 440,-401.5 440,-401.5 410,-401.5 410,-401.5 404,-401.5 398,-395.5 398,-389.5 398,-389.5 398,-377.5 398,-377.5 398,-371.5 404,-365.5 410,-365.5"/>
<text text-anchor="middle" x="425" y="-379.8" font-family="Times,serif" font-size="14.00">x</text>
</g>
<!-- node_0x606000000da0&#45;&gt;node_0x606000000ce0 -->
<g id="edge31" class="edge">
<title>node_0x606000000da0&#45;&gt;node_0x606000000ce0</title>
<path fill="none" stroke="#e32636" d="M454.56,-438.31C449.96,-429.94 444.33,-419.7 439.23,-410.4"/>
<polygon fill="#e32636" stroke="#e32636" points="442.24,-408.61 434.35,-401.53 436.1,-411.98 442.24,-408.61"/>
</g>
<!-- node_0x606000000d40 -->
<g id="node33" class="node">
<title>node_0x606000000d40</title>
<path fill="#ddb9e9" stroke="black" d="M482,-365.5C482,-365.5 512,-365.5 512,-365.5 518,-365.5 524,-371.5 524,-377.5 524,-377.5 524,-389.5 524,-389.5 524,-395.5 518,-401.5 512,-401.5 512,-401.5 482,-401.5 482,-401.5 476,-401.5 470,-395.5 470,-389.5 470,-389.5 470,-377.5 470,-377.5 470,-371.5 476,-365.5 482,-365.5"/>
<text text-anchor="middle" x="497" y="-379.8" font-family="Times,serif" font-size="14.00">0</text>
</g>
<!-- node_0x606000000da0&#45;&gt;node_0x606000000d40 -->
<g id="edge32" class="edge">
<title>node_0x606000000da0&#45;&gt;node_0x606000000d40</title>
<path fill="none" stroke="#1164b4" d="M471.99,-438.31C475.84,-430.03 480.54,-419.91 484.83,-410.69"/>
<polygon fill="#1164b4" stroke="#1164b4" points="488.04,-412.07 489.09,-401.53 481.7,-409.12 488.04,-412.07"/>
</g>
<!-- node_0x606000000e60 -->
<g id="node35" class="node">
<title>node_0x606000000e60</title>
<path fill="#f0ffff" stroke="black" d="M561,-365.5C561,-365.5 591,-365.5 591,-365.5 597,-365.5 603,-371.5 603,-377.5 603,-377.5 603,-389.5 603,-389.5 603,-395.5 597,-401.5 591,-401.5 591,-401.5 561,-401.5 561,-401.5 555,-401.5 549,-395.5 549,-389.5 549,-389.5 549,-377.5 549,-377.5 549,-371.5 555,-365.5 561,-365.5"/>
<text text-anchor="middle" x="576" y="-379.8" font-family="Times,serif" font-size="14.00">scanf</text>
</g>
<!-- node_0x606000001280&#45;&gt;node_0x606000000e60 -->
<g id="edge34" class="edge">
<title>node_0x606000001280&#45;&gt;node_0x606000000e60</title>
<path fill="none" stroke="#e32636" d="M576,-438.31C576,-430.29 576,-420.55 576,-411.57"/>
<polygon fill="#e32636" stroke="#e32636" points="579.5,-411.53 576,-401.53 572.5,-411.53 579.5,-411.53"/>
</g>
<!-- node_0x606000001220 -->
<g id="node37" class="node">
<title>node_0x606000001220</title>
<path fill="#c6df90" stroke="black" d="M637,-365.5C637,-365.5 667,-365.5 667,-365.5 673,-365.5 679,-371.5 679,-377.5 679,-377.5 679,-389.5 679,-389.5 679,-395.5 673,-401.5 667,-401.5 667,-401.5 637,-401.5 637,-401.5 631,-401.5 625,-395.5 625,-389.5 625,-389.5 625,-377.5 625,-377.5 625,-371.5 631,-365.5 637,-365.5"/>
<text text-anchor="middle" x="652" y="-379.8" font-family="Times,serif" font-size="14.00">and</text>
</g>
<!-- node_0x606000001280&#45;&gt;node_0x606000001220 -->
<g id="edge36" class="edge">
<title>node_0x606000001280&#45;&gt;node_0x606000001220</title>
<path fill="none" stroke="#1164b4" d="M594.4,-438.31C604.01,-429.33 615.93,-418.19 626.43,-408.39"/>
<polygon fill="#1164b4" stroke="#1164b4" points="628.85,-410.91 633.77,-401.53 624.08,-405.8 628.85,-410.91"/>
</g>
<!-- node_0x606000000e00 -->
<g id="node36" class="node">
<title>node_0x606000000e00</title>
<path fill="#9aceeb" stroke="black" d="M561,-292.5C561,-292.5 591,-292.5 591,-292.5 597,-292.5 603,-298.5 603,-304.5 603,-304.5 603,-316.5 603,-316.5 603,-322.5 597,-328.5 591,-328.5 591,-328.5 561,-328.5 561,-328.5 555,-328.5 549,-322.5 549,-316.5 549,-316.5 549,-304.5 549,-304.5 549,-298.5 555,-292.5 561,-292.5"/>
<text text-anchor="middle" x="576" y="-306.8" font-family="Times,serif" font-size="14.00">x</text>
</g>
<!-- node_0x606000000e60&#45;&gt;node_0x606000000e00 -->
<g id="edge35" class="edge">
<title>node_0x606000000e60&#45;&gt;node_0x606000000e00</title>
<path fill="none" stroke="#e32636" d="M576,-365.31C576,-357.29 576,-347.55 576,-338.57"/>
<polygon fill="#e32636" stroke="#e32636" points="579.5,-338.53 576,-328.53 572.5,-338.53 579.5,-338.53"/>
</g>
<!-- node_0x6060000010a0 -->
<g id="node38" class="node">
<title>node_0x6060000010a0</title>
<path fill="#f0ffff" stroke="black" d="M637,-292.5C637,-292.5 667,-292.5 667,-292.5 673,-292.5 679,-298.5 679,-304.5 679,-304.5 679,-316.5 679,-316.5 679,-322.5 673,-328.5 667,-328.5 667,-328.5 637,-328.5 637,-328.5 631,-328.5 625,-322.5 625,-316.5 625,-316.5 625,-304.5 625,-304.5 625,-298.5 631,-292.5 637,-292.5"/>
<text text-anchor="middle" x="652" y="-306.8" font-family="Times,serif" font-size="14.00">=</text>
</g>
<!-- node_0x606000001220&#45;&gt;node_0x6060000010a0 -->
<g id="edge37" class="edge">
<title>node_0x606000001220&#45;&gt;node_0x6060000010a0</title>
<path fill="none" stroke="#e32636" d="M652,-365.31C652,-357.29 652,-347.55 652,-338.57"/>
<polygon fill="#e32636" stroke="#e32636" points="655.5,-338.53 652,-328.53 648.5,-338.53 655.5,-338.53"/>
</g>
<!-- node_0x6060000023c0 -->
<g id="node42" class="node">
<title>node_0x6060000023c0</title>
<path fill="#f0ffff" stroke="black" d="M711,-292.5C711,-292.5 741,-292.5 741,-292.5 747,-292.5 753,-298.5 753,-304.5 753,-304.5 753,-316.5 753,-316.5 753,-322.5 747,-328.5 741,-328.5 741,-328.5 711,-328.5 711,-328.5 705,-328.5 699,-322.5 699,-316.5 699,-316.5 699,-304.5 699,-304.5 699,-298.5 705,-292.5 711,-292.5"/>
<text text-anchor="middle" x="726" y="-306.8" font-family="Times,serif" font-size="14.00">print</text>
</g>
<!-- node_0x606000001220&#45;&gt;node_0x6060000023c0 -->
<g id="edge41" class="edge">
<title>node_0x606000001220&#45;&gt;node_0x6060000023c0</title>
<path fill="none" stroke="#1164b4" d="M669.91,-365.31C679.18,-356.42 690.66,-345.41 700.81,-335.67"/>
<polygon fill="#1164b4" stroke="#1164b4" points="703.46,-337.98 708.25,-328.53 698.61,-332.93 703.46,-337.98"/>
</g>
<!-- node_0x606000000ec0 -->
<g id="node39" class="node">
<title>node_0x606000000ec0</title>
<path fill="#9aceeb" stroke="black" d="M568,-219.5C568,-219.5 598,-219.5 598,-219.5 604,-219.5 610,-225.5 610,-231.5 610,-231.5 610,-243.5 610,-243.5 610,-249.5 604,-255.5 598,-255.5 598,-255.5 568,-255.5 568,-255.5 562,-255.5 556,-249.5 556,-243.5 556,-243.5 556,-231.5 556,-231.5 556,-225.5 562,-219.5 568,-219.5"/>
<text text-anchor="middle" x="583" y="-233.8" font-family="Times,serif" font-size="14.00">x</text>
</g>
<!-- node_0x6060000010a0&#45;&gt;node_0x606000000ec0 -->
<g id="edge38" class="edge">
<title>node_0x6060000010a0&#45;&gt;node_0x606000000ec0</title>
<path fill="none" stroke="#e32636" d="M635.3,-292.31C626.74,-283.5 616.16,-272.63 606.77,-262.96"/>
<polygon fill="#e32636" stroke="#e32636" points="609.03,-260.26 599.55,-255.53 604.01,-265.14 609.03,-260.26"/>
</g>
<!-- node_0x606000002300 -->
<g id="node40" class="node">
<title>node_0x606000002300</title>
<path fill="#f0ffff" stroke="black" d="M640,-219.5C640,-219.5 670,-219.5 670,-219.5 676,-219.5 682,-225.5 682,-231.5 682,-231.5 682,-243.5 682,-243.5 682,-249.5 676,-255.5 670,-255.5 670,-255.5 640,-255.5 640,-255.5 634,-255.5 628,-249.5 628,-243.5 628,-243.5 628,-231.5 628,-231.5 628,-225.5 634,-219.5 640,-219.5"/>
<text text-anchor="middle" x="655" y="-233.8" font-family="Times,serif" font-size="14.00">fact</text>
</g>
<!-- node_0x6060000010a0&#45;&gt;node_0x606000002300 -->
<g id="edge39" class="edge">
<title>node_0x6060000010a0&#45;&gt;node_0x606000002300</title>
<path fill="none" stroke="#1164b4" d="M652.73,-292.31C653.07,-284.29 653.48,-274.55 653.86,-265.57"/>
<polygon fill="#1164b4" stroke="#1164b4" points="657.36,-265.67 654.28,-255.53 650.36,-265.37 657.36,-265.67"/>
</g>
<!-- node_0x606000002360 -->
<g id="node41" class="node">
<title>node_0x606000002360</title>
<path fill="#9aceeb" stroke="black" d="M640,-146.5C640,-146.5 670,-146.5 670,-146.5 676,-146.5 682,-152.5 682,-158.5 682,-158.5 682,-170.5 682,-170.5 682,-176.5 676,-182.5 670,-182.5 670,-182.5 640,-182.5 640,-182.5 634,-182.5 628,-176.5 628,-170.5 628,-170.5 628,-158.5 628,-158.5 628,-152.5 634,-146.5 640,-146.5"/>
<text text-anchor="middle" x="655" y="-160.8" font-family="Times,serif" font-size="14.00">x</text>
</g>
<!-- node_0x606000002300&#45;&gt;node_0x606000002360 -->
<g id="edge40" class="edge">
<title>node_0x606000002300&#45;&gt;node_0x606000002360</title>
<path fill="none" stroke="#e32636" d="M655,-219.31C655,-211.29 655,-201.55 655,-192.57"/>
<polygon fill="#e32636" stroke="#e32636" points="658.5,-192.53 655,-182.53 651.5,-192.53 658.5,-192.53"/>
</g>
<!-- node_0x606000002420 -->
<g id="node43" class="node">
<title>node_0x606000002420</title>
<path fill="#9aceeb" stroke="black" d="M712,-219.5C712,-219.5 742,-219.5 742,-219.5 748,-219.5 754,-225.5 754,-231.5 754,-231.5 754,-243.5 754,-243.5 754,-249.5 748,-255.5 742,-255.5 742,-255.5 712,-255.5 712,-255.5 706,-255.5 700,-249.5 700,-243.5 700,-243.5 700,-231.5 700,-231.5 700,-225.5 706,-219.5 712,-219.5"/>
<text text-anchor="middle" x="727" y="-233.8" font-family="Times,serif" font-size="14.00">x</text>
</g>
<!-- node_0x6060000023c0&#45;&gt;node_0x606000002420 -->
<g id="edge42" class="edge">
<title>node_0x6060000023c0&#45;&gt;node_0x606000002420</title>
<path fill="none" stroke="#e32636" d="M726.24,-292.31C726.36,-284.29 726.49,-274.55 726.62,-265.57"/>
<polygon fill="#e32636" stroke="#e32636" points="730.12,-265.58 726.76,-255.53 723.12,-265.48 730.12,-265.58"/>
</g>
</g>
</svg>
