<?xml version="1.0" encoding="UTF-8" standalone="no"?>
<!DOCTYPE svg PUBLIC "-//W3C//DTD SVG 1.1//EN"
 "http://www.w3.org/Graphics/SVG/1.1/DTD/svg11.dtd">
<!-- Generated by graphviz version 2.43.0 (0)
 -->
<!-- Title: %3 Pages: 1 -->
<svg width="908pt" height="921pt"
 viewBox="0.00 0.00 907.50 921.00" xmlns="http://www.w3.org/2000/svg" xmlns:xlink="http://www.w3.org/1999/xlink">
<g id="graph0" class="graph" transform="scale(1 1) rotate(0) translate(4 917)">
<title>%3</title>
<polygon fill="white" stroke="transparent" points="-4,4 -4,-917 903.5,-917 903.5,4 -4,4"/>
<!-- node_0x606000001700 -->
<g id="node1" class="node">
<title>node_0x606000001700</title>
<path fill="#c6df90" stroke="black" d="M302,-876.5C302,-876.5 332,-876.5 332,-876.5 338,-876.5 344,-882.5 344,-888.5 344,-888.5 344,-900.5 344,-900.5 344,-906.5 338,-912.5 332,-912.5 332,-912.5 302,-912.5 302,-912.5 296,-912.5 290,-906.5 290,-900.5 290,-900.5 290,-888.5 290,-888.5 290,-882.5 296,-876.5 302,-876.5"/>
<text text-anchor="middle" x="317" y="-890.8" font-family="Times,serif" font-size="14.00">and</text>
</g>
<!-- node_0x606000001040 -->
<g id="node2" class="node">
<title>node_0x606000001040</title>
<path fill="#c6df90" stroke="black" d="M266,-803.5C266,-803.5 296,-803.5 296,-803.5 302,-803.5 308,-809.5 308,-815.5 308,-815.5 308,-827.5 308,-827.5 308,-833.5 302,-839.5 296,-839.5 296,-839.5 266,-839.5 266,-839.5 260,-839.5 254,-833.5 254,-827.5 254,-827.5 254,-815.5 254,-815.5 254,-809.5 260,-803.5 266,-803.5"/>
<text text-anchor="middle" x="281" y="-817.8" font-family="Times,serif" font-size="14.00">and</text>
</g>
<!-- node_0x606000001700&#45;&gt;node_0x606000001040 -->
<g id="edge1" class="edge">
<title>node_0x606000001700&#45;&gt;node_0x606000001040</title>
<path fill="none" stroke="#e32636" d="M308.29,-876.31C304.08,-868.03 298.95,-857.91 294.28,-848.69"/>
<polygon fill="#e32636" stroke="#e32636" points="297.28,-846.87 289.63,-839.53 291.04,-850.03 297.28,-846.87"/>
</g>
<!-- node_0x6060000016a0 -->
<g id="node46" class="node">
<title>node_0x6060000016a0</title>
<path fill="#c6df90" stroke="black" d="M341,-803.5C341,-803.5 371,-803.5 371,-803.5 377,-803.5 383,-809.5 383,-815.5 383,-815.5 383,-827.5 383,-827.5 383,-833.5 377,-839.5 371,-839.5 371,-839.5 341,-839.5 341,-839.5 335,-839.5 329,-833.5 329,-827.5 329,-827.5 329,-815.5 329,-815.5 329,-809.5 335,-803.5 341,-803.5"/>
<text text-anchor="middle" x="356" y="-817.8" font-family="Times,serif" font-size="14.00">and</text>
</g>
<!-- node_0x606000001700&#45;&gt;node_0x6060000016a0 -->
<g id="edge45" class="edge">
<title>node_0x606000001700&#45;&gt;node_0x6060000016a0</title>
<path fill="none" stroke="#1164b4" d="M326.44,-876.31C331.04,-867.94 336.67,-857.7 341.77,-848.4"/>
<polygon fill="#1164b4" stroke="#1164b4" points="344.9,-849.98 346.65,-839.53 338.76,-846.61 344.9,-849.98"/>
</g>
<!-- node_0x606000000fe0 -->
<g id="node3" class="node">
<title>node_0x606000000fe0</title>
<path fill="#f0ffff" stroke="black" d="M200,-730.5C200,-730.5 230,-730.5 230,-730.5 236,-730.5 242,-736.5 242,-742.5 242,-742.5 242,-754.5 242,-754.5 242,-760.5 236,-766.5 230,-766.5 230,-766.5 200,-766.5 200,-766.5 194,-766.5 188,-760.5 188,-754.5 188,-754.5 188,-742.5 188,-742.5 188,-736.5 194,-730.5 200,-730.5"/>
<text text-anchor="middle" x="215" y="-744.8" font-family="Times,serif" font-size="14.00">fact</text>
</g>
<!-- node_0x606000001040&#45;&gt;node_0x606000000fe0 -->
<g id="edge2" class="edge">
<title>node_0x606000001040&#45;&gt;node_0x606000000fe0</title>
<path fill="none" stroke="#e32636" d="M265.02,-803.31C256.84,-794.5 246.72,-783.63 237.74,-773.96"/>
<polygon fill="#e32636" stroke="#e32636" points="240.2,-771.47 230.83,-766.53 235.07,-776.24 240.2,-771.47"/>
</g>
<!-- node_0x606000000080 -->
<g id="node4" class="node">
<title>node_0x606000000080</title>
<path fill="#c6df90" stroke="black" d="M128,-657.5C128,-657.5 158,-657.5 158,-657.5 164,-657.5 170,-663.5 170,-669.5 170,-669.5 170,-681.5 170,-681.5 170,-687.5 164,-693.5 158,-693.5 158,-693.5 128,-693.5 128,-693.5 122,-693.5 116,-687.5 116,-681.5 116,-681.5 116,-669.5 116,-669.5 116,-663.5 122,-657.5 128,-657.5"/>
<text text-anchor="middle" x="143" y="-671.8" font-family="Times,serif" font-size="14.00">and</text>
</g>
<!-- node_0x606000000fe0&#45;&gt;node_0x606000000080 -->
<g id="edge3" class="edge">
<title>node_0x606000000fe0&#45;&gt;node_0x606000000080</title>
<path fill="none" stroke="#e32636" d="M197.57,-730.31C188.55,-721.42 177.39,-710.41 167.51,-700.67"/>
<polygon fill="#e32636" stroke="#e32636" points="169.85,-698.06 160.27,-693.53 164.93,-703.04 169.85,-698.06"/>
</g>
<!-- node_0x606000000f80 -->
<g id="node6" class="node">
<title>node_0x606000000f80</title>
<path fill="#c6df90" stroke="black" d="M200,-657.5C200,-657.5 230,-657.5 230,-657.5 236,-657.5 242,-663.5 242,-669.5 242,-669.5 242,-681.5 242,-681.5 242,-687.5 236,-693.5 230,-693.5 230,-693.5 200,-693.5 200,-693.5 194,-693.5 188,-687.5 188,-681.5 188,-681.5 188,-669.5 188,-669.5 188,-663.5 194,-657.5 200,-657.5"/>
<text text-anchor="middle" x="215" y="-671.8" font-family="Times,serif" font-size="14.00">and</text>
</g>
<!-- node_0x606000000fe0&#45;&gt;node_0x606000000f80 -->
<g id="edge5" class="edge">
<title>node_0x606000000fe0&#45;&gt;node_0x606000000f80</title>
<path fill="none" stroke="#1164b4" d="M215,-730.31C215,-722.29 215,-712.55 215,-703.57"/>
<polygon fill="#1164b4" stroke="#1164b4" points="218.5,-703.53 215,-693.53 211.5,-703.53 218.5,-703.53"/>
</g>
<!-- node_0x606000000020 -->
<g id="node5" class="node">
<title>node_0x606000000020</title>
<path fill="#9aceeb" stroke="black" d="M112,-584.5C112,-584.5 142,-584.5 142,-584.5 148,-584.5 154,-590.5 154,-596.5 154,-596.5 154,-608.5 154,-608.5 154,-614.5 148,-620.5 142,-620.5 142,-620.5 112,-620.5 112,-620.5 106,-620.5 100,-614.5 100,-608.5 100,-608.5 100,-596.5 100,-596.5 100,-590.5 106,-584.5 112,-584.5"/>
<text text-anchor="middle" x="127" y="-598.8" font-family="Times,serif" font-size="14.00">num</text>
</g>
<!-- node_0x606000000080&#45;&gt;node_0x606000000020 -->
<g id="edge4" class="edge">
<title>node_0x606000000080&#45;&gt;node_0x606000000020</title>
<path fill="none" stroke="#e32636" d="M139.13,-657.31C137.32,-649.29 135.12,-639.55 133.1,-630.57"/>
<polygon fill="#e32636" stroke="#e32636" points="136.45,-629.51 130.84,-620.53 129.62,-631.05 136.45,-629.51"/>
</g>
<!-- node_0x606000000320 -->
<g id="node7" class="node">
<title>node_0x606000000320</title>
<path fill="#f0ffff" stroke="black" d="M184,-584.5C184,-584.5 214,-584.5 214,-584.5 220,-584.5 226,-590.5 226,-596.5 226,-596.5 226,-608.5 226,-608.5 226,-614.5 220,-620.5 214,-620.5 214,-620.5 184,-620.5 184,-620.5 178,-620.5 172,-614.5 172,-608.5 172,-608.5 172,-596.5 172,-596.5 172,-590.5 178,-584.5 184,-584.5"/>
<text text-anchor="middle" x="199" y="-598.8" font-family="Times,serif" font-size="14.00">if</text>
</g>
<!-- node_0x606000000f80&#45;&gt;node_0x606000000320 -->
<g id="edge6" class="edge">
<title>node_0x606000000f80&#45;&gt;node_0x606000000320</title>
<path fill="none" stroke="#e32636" d="M211.13,-657.31C209.32,-649.29 207.12,-639.55 205.1,-630.57"/>
<polygon fill="#e32636" stroke="#e32636" points="208.45,-629.51 202.84,-620.53 201.62,-631.05 208.45,-629.51"/>
</g>
<!-- node_0x606000000f20 -->
<g id="node14" class="node">
<title>node_0x606000000f20</title>
<path fill="#c6df90" stroke="black" d="M261,-584.5C261,-584.5 291,-584.5 291,-584.5 297,-584.5 303,-590.5 303,-596.5 303,-596.5 303,-608.5 303,-608.5 303,-614.5 297,-620.5 291,-620.5 291,-620.5 261,-620.5 261,-620.5 255,-620.5 249,-614.5 249,-608.5 249,-608.5 249,-596.5 249,-596.5 249,-590.5 255,-584.5 261,-584.5"/>
<text text-anchor="middle" x="276" y="-598.8" font-family="Times,serif" font-size="14.00">and</text>
</g>
<!-- node_0x606000000f80&#45;&gt;node_0x606000000f20 -->
<g id="edge13" class="edge">
<title>node_0x606000000f80&#45;&gt;node_0x606000000f20</title>
<path fill="none" stroke="#1164b4" d="M229.77,-657.31C237.26,-648.59 246.5,-637.84 254.74,-628.25"/>
<polygon fill="#1164b4" stroke="#1164b4" points="257.51,-630.39 261.37,-620.53 252.2,-625.83 257.51,-630.39"/>
</g>
<!-- node_0x6060000001a0 -->
<g id="node8" class="node">
<title>node_0x6060000001a0</title>
<path fill="#bdecb6" stroke="black" d="M68,-511.5C68,-511.5 130,-511.5 130,-511.5 136,-511.5 142,-517.5 142,-523.5 142,-523.5 142,-535.5 142,-535.5 142,-541.5 136,-547.5 130,-547.5 130,-547.5 68,-547.5 68,-547.5 62,-547.5 56,-541.5 56,-535.5 56,-535.5 56,-523.5 56,-523.5 56,-517.5 62,-511.5 68,-511.5"/>
<text text-anchor="middle" x="99" y="-525.8" font-family="Times,serif" font-size="14.00">less or eq</text>
</g>
<!-- node_0x606000000320&#45;&gt;node_0x6060000001a0 -->
<g id="edge7" class="edge">
<title>node_0x606000000320&#45;&gt;node_0x6060000001a0</title>
<path fill="none" stroke="#e32636" d="M175.05,-584.49C162.03,-575.25 145.75,-563.69 131.59,-553.64"/>
<polygon fill="#e32636" stroke="#e32636" points="133.28,-550.55 123.1,-547.61 129.23,-556.26 133.28,-550.55"/>
</g>
<!-- node_0x6060000002c0 -->
<g id="node11" class="node">
<title>node_0x6060000002c0</title>
<path fill="#c6df90" stroke="black" d="M180,-511.5C180,-511.5 210,-511.5 210,-511.5 216,-511.5 222,-517.5 222,-523.5 222,-523.5 222,-535.5 222,-535.5 222,-541.5 216,-547.5 210,-547.5 210,-547.5 180,-547.5 180,-547.5 174,-547.5 168,-541.5 168,-535.5 168,-535.5 168,-523.5 168,-523.5 168,-517.5 174,-511.5 180,-511.5"/>
<text text-anchor="middle" x="195" y="-525.8" font-family="Times,serif" font-size="14.00">and</text>
</g>
<!-- node_0x606000000320&#45;&gt;node_0x6060000002c0 -->
<g id="edge10" class="edge">
<title>node_0x606000000320&#45;&gt;node_0x6060000002c0</title>
<path fill="none" stroke="#1164b4" d="M198.03,-584.31C197.58,-576.29 197.03,-566.55 196.53,-557.57"/>
<polygon fill="#1164b4" stroke="#1164b4" points="200.02,-557.32 195.96,-547.53 193.03,-557.71 200.02,-557.32"/>
</g>
<!-- node_0x6060000000e0 -->
<g id="node9" class="node">
<title>node_0x6060000000e0</title>
<path fill="#9aceeb" stroke="black" d="M12,-438.5C12,-438.5 42,-438.5 42,-438.5 48,-438.5 54,-444.5 54,-450.5 54,-450.5 54,-462.5 54,-462.5 54,-468.5 48,-474.5 42,-474.5 42,-474.5 12,-474.5 12,-474.5 6,-474.5 0,-468.5 0,-462.5 0,-462.5 0,-450.5 0,-450.5 0,-444.5 6,-438.5 12,-438.5"/>
<text text-anchor="middle" x="27" y="-452.8" font-family="Times,serif" font-size="14.00">num</text>
</g>
<!-- node_0x6060000001a0&#45;&gt;node_0x6060000000e0 -->
<g id="edge8" class="edge">
<title>node_0x6060000001a0&#45;&gt;node_0x6060000000e0</title>
<path fill="none" stroke="#e32636" d="M81.57,-511.31C72.55,-502.42 61.39,-491.41 51.51,-481.67"/>
<polygon fill="#e32636" stroke="#e32636" points="53.85,-479.06 44.27,-474.53 48.93,-484.04 53.85,-479.06"/>
</g>
<!-- node_0x606000000140 -->
<g id="node10" class="node">
<title>node_0x606000000140</title>
<path fill="#ddb9e9" stroke="black" d="M84,-438.5C84,-438.5 114,-438.5 114,-438.5 120,-438.5 126,-444.5 126,-450.5 126,-450.5 126,-462.5 126,-462.5 126,-468.5 120,-474.5 114,-474.5 114,-474.5 84,-474.5 84,-474.5 78,-474.5 72,-468.5 72,-462.5 72,-462.5 72,-450.5 72,-450.5 72,-444.5 78,-438.5 84,-438.5"/>
<text text-anchor="middle" x="99" y="-452.8" font-family="Times,serif" font-size="14.00">0</text>
</g>
<!-- node_0x6060000001a0&#45;&gt;node_0x606000000140 -->
<g id="edge9" class="edge">
<title>node_0x6060000001a0&#45;&gt;node_0x606000000140</title>
<path fill="none" stroke="#1164b4" d="M99,-511.31C99,-503.29 99,-493.55 99,-484.57"/>
<polygon fill="#1164b4" stroke="#1164b4" points="102.5,-484.53 99,-474.53 95.5,-484.53 102.5,-484.53"/>
</g>
<!-- node_0x606000000260 -->
<g id="node12" class="node">
<title>node_0x606000000260</title>
<path fill="#f0ffff" stroke="black" d="M156,-438.5C156,-438.5 194,-438.5 194,-438.5 200,-438.5 206,-444.5 206,-450.5 206,-450.5 206,-462.5 206,-462.5 206,-468.5 200,-474.5 194,-474.5 194,-474.5 156,-474.5 156,-474.5 150,-474.5 144,-468.5 144,-462.5 144,-462.5 144,-450.5 144,-450.5 144,-444.5 150,-438.5 156,-438.5"/>
<text text-anchor="middle" x="175" y="-452.8" font-family="Times,serif" font-size="14.00">return</text>
</g>
<!-- node_0x6060000002c0&#45;&gt;node_0x606000000260 -->
<g id="edge11" class="edge">
<title>node_0x6060000002c0&#45;&gt;node_0x606000000260</title>
<path fill="none" stroke="#e32636" d="M190.16,-511.31C187.87,-503.2 185.09,-493.34 182.54,-484.28"/>
<polygon fill="#e32636" stroke="#e32636" points="185.88,-483.21 179.8,-474.53 179.14,-485.1 185.88,-483.21"/>
</g>
<!-- node_0x606000000200 -->
<g id="node13" class="node">
<title>node_0x606000000200</title>
<path fill="#ddb9e9" stroke="black" d="M160,-365.5C160,-365.5 190,-365.5 190,-365.5 196,-365.5 202,-371.5 202,-377.5 202,-377.5 202,-389.5 202,-389.5 202,-395.5 196,-401.5 190,-401.5 190,-401.5 160,-401.5 160,-401.5 154,-401.5 148,-395.5 148,-389.5 148,-389.5 148,-377.5 148,-377.5 148,-371.5 154,-365.5 160,-365.5"/>
<text text-anchor="middle" x="175" y="-379.8" font-family="Times,serif" font-size="14.00">1</text>
</g>
<!-- node_0x606000000260&#45;&gt;node_0x606000000200 -->
<g id="edge12" class="edge">
<title>node_0x606000000260&#45;&gt;node_0x606000000200</title>
<path fill="none" stroke="#e32636" d="M175,-438.31C175,-430.29 175,-420.55 175,-411.57"/>
<polygon fill="#e32636" stroke="#e32636" points="178.5,-411.53 175,-401.53 171.5,-411.53 178.5,-411.53"/>
</g>
<!-- node_0x606000000440 -->
<g id="node15" class="node">
<title>node_0x606000000440</title>
<path fill="#f0ffff" stroke="black" d="M254,-511.5C254,-511.5 298,-511.5 298,-511.5 304,-511.5 310,-517.5 310,-523.5 310,-523.5 310,-535.5 310,-535.5 310,-541.5 304,-547.5 298,-547.5 298,-547.5 254,-547.5 254,-547.5 248,-547.5 242,-541.5 242,-535.5 242,-535.5 242,-523.5 242,-523.5 242,-517.5 248,-511.5 254,-511.5"/>
<text text-anchor="middle" x="276" y="-525.8" font-family="Times,serif" font-size="14.00">var init</text>
</g>
<!-- node_0x606000000f20&#45;&gt;node_0x606000000440 -->
<g id="edge14" class="edge">
<title>node_0x606000000f20&#45;&gt;node_0x606000000440</title>
<path fill="none" stroke="#e32636" d="M276,-584.31C276,-576.29 276,-566.55 276,-557.57"/>
<polygon fill="#e32636" stroke="#e32636" points="279.5,-557.53 276,-547.53 272.5,-557.53 279.5,-557.53"/>
</g>
<!-- node_0x606000000ec0 -->
<g id="node18" class="node">
<title>node_0x606000000ec0</title>
<path fill="#c6df90" stroke="black" d="M418,-511.5C418,-511.5 448,-511.5 448,-511.5 454,-511.5 460,-517.5 460,-523.5 460,-523.5 460,-535.5 460,-535.5 460,-541.5 454,-547.5 448,-547.5 448,-547.5 418,-547.5 418,-547.5 412,-547.5 406,-541.5 406,-535.5 406,-535.5 406,-523.5 406,-523.5 406,-517.5 412,-511.5 418,-511.5"/>
<text text-anchor="middle" x="433" y="-525.8" font-family="Times,serif" font-size="14.00">and</text>
</g>
<!-- node_0x606000000f20&#45;&gt;node_0x606000000ec0 -->
<g id="edge17" class="edge">
<title>node_0x606000000f20&#45;&gt;node_0x606000000ec0</title>
<path fill="none" stroke="#1164b4" d="M303.35,-589.13C329.24,-577.42 368.27,-559.77 396.75,-546.89"/>
<polygon fill="#1164b4" stroke="#1164b4" points="398.3,-550.04 405.97,-542.73 395.41,-543.66 398.3,-550.04"/>
</g>
<!-- node_0x606000000380 -->
<g id="node16" class="node">
<title>node_0x606000000380</title>
<path fill="#9aceeb" stroke="black" d="M236,-438.5C236,-438.5 304,-438.5 304,-438.5 310,-438.5 316,-444.5 316,-450.5 316,-450.5 316,-462.5 316,-462.5 316,-468.5 310,-474.5 304,-474.5 304,-474.5 236,-474.5 236,-474.5 230,-474.5 224,-468.5 224,-462.5 224,-462.5 224,-450.5 224,-450.5 224,-444.5 230,-438.5 236,-438.5"/>
<text text-anchor="middle" x="270" y="-452.8" font-family="Times,serif" font-size="14.00">num_temp</text>
</g>
<!-- node_0x606000000440&#45;&gt;node_0x606000000380 -->
<g id="edge15" class="edge">
<title>node_0x606000000440&#45;&gt;node_0x606000000380</title>
<path fill="none" stroke="#e32636" d="M274.55,-511.31C273.87,-503.29 273.05,-493.55 272.29,-484.57"/>
<polygon fill="#e32636" stroke="#e32636" points="275.77,-484.2 271.44,-474.53 268.79,-484.79 275.77,-484.2"/>
</g>
<!-- node_0x6060000003e0 -->
<g id="node17" class="node">
<title>node_0x6060000003e0</title>
<path fill="#ddb9e9" stroke="black" d="M346,-438.5C346,-438.5 376,-438.5 376,-438.5 382,-438.5 388,-444.5 388,-450.5 388,-450.5 388,-462.5 388,-462.5 388,-468.5 382,-474.5 376,-474.5 376,-474.5 346,-474.5 346,-474.5 340,-474.5 334,-468.5 334,-462.5 334,-462.5 334,-450.5 334,-450.5 334,-444.5 340,-438.5 346,-438.5"/>
<text text-anchor="middle" x="361" y="-452.8" font-family="Times,serif" font-size="14.00">0</text>
</g>
<!-- node_0x606000000440&#45;&gt;node_0x6060000003e0 -->
<g id="edge16" class="edge">
<title>node_0x606000000440&#45;&gt;node_0x6060000003e0</title>
<path fill="none" stroke="#1164b4" d="M296.58,-511.31C307.43,-502.24 320.92,-490.98 332.75,-481.1"/>
<polygon fill="#1164b4" stroke="#1164b4" points="335.18,-483.63 340.61,-474.53 330.69,-478.25 335.18,-483.63"/>
</g>
<!-- node_0x606000000620 -->
<g id="node19" class="node">
<title>node_0x606000000620</title>
<path fill="#f0ffff" stroke="black" d="M418,-438.5C418,-438.5 448,-438.5 448,-438.5 454,-438.5 460,-444.5 460,-450.5 460,-450.5 460,-462.5 460,-462.5 460,-468.5 454,-474.5 448,-474.5 448,-474.5 418,-474.5 418,-474.5 412,-474.5 406,-468.5 406,-462.5 406,-462.5 406,-450.5 406,-450.5 406,-444.5 412,-438.5 418,-438.5"/>
<text text-anchor="middle" x="433" y="-452.8" font-family="Times,serif" font-size="14.00">=</text>
</g>
<!-- node_0x606000000ec0&#45;&gt;node_0x606000000620 -->
<g id="edge18" class="edge">
<title>node_0x606000000ec0&#45;&gt;node_0x606000000620</title>
<path fill="none" stroke="#e32636" d="M433,-511.31C433,-503.29 433,-493.55 433,-484.57"/>
<polygon fill="#e32636" stroke="#e32636" points="436.5,-484.53 433,-474.53 429.5,-484.53 436.5,-484.53"/>
</g>
<!-- node_0x606000000e60 -->
<g id="node24" class="node">
<title>node_0x606000000e60</title>
<path fill="#c6df90" stroke="black" d="M496,-438.5C496,-438.5 526,-438.5 526,-438.5 532,-438.5 538,-444.5 538,-450.5 538,-450.5 538,-462.5 538,-462.5 538,-468.5 532,-474.5 526,-474.5 526,-474.5 496,-474.5 496,-474.5 490,-474.5 484,-468.5 484,-462.5 484,-462.5 484,-450.5 484,-450.5 484,-444.5 490,-438.5 496,-438.5"/>
<text text-anchor="middle" x="511" y="-452.8" font-family="Times,serif" font-size="14.00">and</text>
</g>
<!-- node_0x606000000ec0&#45;&gt;node_0x606000000e60 -->
<g id="edge23" class="edge">
<title>node_0x606000000ec0&#45;&gt;node_0x606000000e60</title>
<path fill="none" stroke="#1164b4" d="M451.88,-511.31C461.75,-502.33 473.98,-491.19 484.76,-481.39"/>
<polygon fill="#1164b4" stroke="#1164b4" points="487.25,-483.85 492.29,-474.53 482.54,-478.67 487.25,-483.85"/>
</g>
<!-- node_0x6060000004a0 -->
<g id="node20" class="node">
<title>node_0x6060000004a0</title>
<path fill="#9aceeb" stroke="black" d="M302,-365.5C302,-365.5 370,-365.5 370,-365.5 376,-365.5 382,-371.5 382,-377.5 382,-377.5 382,-389.5 382,-389.5 382,-395.5 376,-401.5 370,-401.5 370,-401.5 302,-401.5 302,-401.5 296,-401.5 290,-395.5 290,-389.5 290,-389.5 290,-377.5 290,-377.5 290,-371.5 296,-365.5 302,-365.5"/>
<text text-anchor="middle" x="336" y="-379.8" font-family="Times,serif" font-size="14.00">num_temp</text>
</g>
<!-- node_0x606000000620&#45;&gt;node_0x6060000004a0 -->
<g id="edge19" class="edge">
<title>node_0x606000000620&#45;&gt;node_0x6060000004a0</title>
<path fill="none" stroke="#e32636" d="M409.52,-438.31C396.89,-429.07 381.14,-417.54 367.47,-407.53"/>
<polygon fill="#e32636" stroke="#e32636" points="369.4,-404.61 359.26,-401.53 365.27,-410.26 369.4,-404.61"/>
</g>
<!-- node_0x6060000005c0 -->
<g id="node21" class="node">
<title>node_0x6060000005c0</title>
<path fill="#e6a8d7" stroke="black" d="M412,-365.5C412,-365.5 442,-365.5 442,-365.5 448,-365.5 454,-371.5 454,-377.5 454,-377.5 454,-389.5 454,-389.5 454,-395.5 448,-401.5 442,-401.5 442,-401.5 412,-401.5 412,-401.5 406,-401.5 400,-395.5 400,-389.5 400,-389.5 400,-377.5 400,-377.5 400,-371.5 406,-365.5 412,-365.5"/>
<text text-anchor="middle" x="427" y="-379.8" font-family="Times,serif" font-size="14.00">&#45;</text>
</g>
<!-- node_0x606000000620&#45;&gt;node_0x6060000005c0 -->
<g id="edge20" class="edge">
<title>node_0x606000000620&#45;&gt;node_0x6060000005c0</title>
<path fill="none" stroke="#1164b4" d="M431.55,-438.31C430.87,-430.29 430.05,-420.55 429.29,-411.57"/>
<polygon fill="#1164b4" stroke="#1164b4" points="432.77,-411.2 428.44,-401.53 425.79,-411.79 432.77,-411.2"/>
</g>
<!-- node_0x606000000500 -->
<g id="node22" class="node">
<title>node_0x606000000500</title>
<path fill="#9aceeb" stroke="black" d="M294,-292.5C294,-292.5 324,-292.5 324,-292.5 330,-292.5 336,-298.5 336,-304.5 336,-304.5 336,-316.5 336,-316.5 336,-322.5 330,-328.5 324,-328.5 324,-328.5 294,-328.5 294,-328.5 288,-328.5 282,-322.5 282,-316.5 282,-316.5 282,-304.5 282,-304.5 282,-298.5 288,-292.5 294,-292.5"/>
<text text-anchor="middle" x="309" y="-306.8" font-family="Times,serif" font-size="14.00">num</text>
</g>
<!-- node_0x6060000005c0&#45;&gt;node_0x606000000500 -->
<g id="edge21" class="edge">
<title>node_0x6060000005c0&#45;&gt;node_0x606000000500</title>
<path fill="none" stroke="#e32636" d="M399.93,-366.21C383.7,-356.45 362.87,-343.91 345.24,-333.31"/>
<polygon fill="#e32636" stroke="#e32636" points="346.73,-330.12 336.35,-327.96 343.12,-336.11 346.73,-330.12"/>
</g>
<!-- node_0x606000000560 -->
<g id="node23" class="node">
<title>node_0x606000000560</title>
<path fill="#ddb9e9" stroke="black" d="M366,-292.5C366,-292.5 396,-292.5 396,-292.5 402,-292.5 408,-298.5 408,-304.5 408,-304.5 408,-316.5 408,-316.5 408,-322.5 402,-328.5 396,-328.5 396,-328.5 366,-328.5 366,-328.5 360,-328.5 354,-322.5 354,-316.5 354,-316.5 354,-304.5 354,-304.5 354,-298.5 360,-292.5 366,-292.5"/>
<text text-anchor="middle" x="381" y="-306.8" font-family="Times,serif" font-size="14.00">1</text>
</g>
<!-- node_0x6060000005c0&#45;&gt;node_0x606000000560 -->
<g id="edge22" class="edge">
<title>node_0x6060000005c0&#45;&gt;node_0x606000000560</title>
<path fill="none" stroke="#1164b4" d="M415.86,-365.31C410.38,-356.85 403.67,-346.48 397.59,-337.11"/>
<polygon fill="#1164b4" stroke="#1164b4" points="400.41,-335.02 392.03,-328.53 394.53,-338.82 400.41,-335.02"/>
</g>
<!-- node_0x606000000740 -->
<g id="node25" class="node">
<title>node_0x606000000740</title>
<path fill="#f0ffff" stroke="black" d="M489,-365.5C489,-365.5 533,-365.5 533,-365.5 539,-365.5 545,-371.5 545,-377.5 545,-377.5 545,-389.5 545,-389.5 545,-395.5 539,-401.5 533,-401.5 533,-401.5 489,-401.5 489,-401.5 483,-401.5 477,-395.5 477,-389.5 477,-389.5 477,-377.5 477,-377.5 477,-371.5 483,-365.5 489,-365.5"/>
<text text-anchor="middle" x="511" y="-379.8" font-family="Times,serif" font-size="14.00">var init</text>
</g>
<!-- node_0x606000000e60&#45;&gt;node_0x606000000740 -->
<g id="edge24" class="edge">
<title>node_0x606000000e60&#45;&gt;node_0x606000000740</title>
<path fill="none" stroke="#e32636" d="M511,-438.31C511,-430.29 511,-420.55 511,-411.57"/>
<polygon fill="#e32636" stroke="#e32636" points="514.5,-411.53 511,-401.53 507.5,-411.53 514.5,-411.53"/>
</g>
<!-- node_0x606000000e00 -->
<g id="node28" class="node">
<title>node_0x606000000e00</title>
<path fill="#c6df90" stroke="black" d="M616,-365.5C616,-365.5 646,-365.5 646,-365.5 652,-365.5 658,-371.5 658,-377.5 658,-377.5 658,-389.5 658,-389.5 658,-395.5 652,-401.5 646,-401.5 646,-401.5 616,-401.5 616,-401.5 610,-401.5 604,-395.5 604,-389.5 604,-389.5 604,-377.5 604,-377.5 604,-371.5 610,-365.5 616,-365.5"/>
<text text-anchor="middle" x="631" y="-379.8" font-family="Times,serif" font-size="14.00">and</text>
</g>
<!-- node_0x606000000e60&#45;&gt;node_0x606000000e00 -->
<g id="edge27" class="edge">
<title>node_0x606000000e60&#45;&gt;node_0x606000000e00</title>
<path fill="none" stroke="#1164b4" d="M538.23,-439.39C555.11,-429.4 576.97,-416.47 595.24,-405.66"/>
<polygon fill="#1164b4" stroke="#1164b4" points="597.05,-408.65 603.88,-400.55 593.49,-402.63 597.05,-408.65"/>
</g>
<!-- node_0x606000000680 -->
<g id="node26" class="node">
<title>node_0x606000000680</title>
<path fill="#9aceeb" stroke="black" d="M438.5,-292.5C438.5,-292.5 501.5,-292.5 501.5,-292.5 507.5,-292.5 513.5,-298.5 513.5,-304.5 513.5,-304.5 513.5,-316.5 513.5,-316.5 513.5,-322.5 507.5,-328.5 501.5,-328.5 501.5,-328.5 438.5,-328.5 438.5,-328.5 432.5,-328.5 426.5,-322.5 426.5,-316.5 426.5,-316.5 426.5,-304.5 426.5,-304.5 426.5,-298.5 432.5,-292.5 438.5,-292.5"/>
<text text-anchor="middle" x="470" y="-306.8" font-family="Times,serif" font-size="14.00">fact_temp</text>
</g>
<!-- node_0x606000000740&#45;&gt;node_0x606000000680 -->
<g id="edge25" class="edge">
<title>node_0x606000000740&#45;&gt;node_0x606000000680</title>
<path fill="none" stroke="#e32636" d="M501.08,-365.31C496.24,-356.94 490.33,-346.7 484.96,-337.4"/>
<polygon fill="#e32636" stroke="#e32636" points="487.87,-335.44 479.83,-328.53 481.8,-338.94 487.87,-335.44"/>
</g>
<!-- node_0x6060000006e0 -->
<g id="node27" class="node">
<title>node_0x6060000006e0</title>
<path fill="#ddb9e9" stroke="black" d="M544,-292.5C544,-292.5 574,-292.5 574,-292.5 580,-292.5 586,-298.5 586,-304.5 586,-304.5 586,-316.5 586,-316.5 586,-322.5 580,-328.5 574,-328.5 574,-328.5 544,-328.5 544,-328.5 538,-328.5 532,-322.5 532,-316.5 532,-316.5 532,-304.5 532,-304.5 532,-298.5 538,-292.5 544,-292.5"/>
<text text-anchor="middle" x="559" y="-306.8" font-family="Times,serif" font-size="14.00">0</text>
</g>
<!-- node_0x606000000740&#45;&gt;node_0x6060000006e0 -->
<g id="edge26" class="edge">
<title>node_0x606000000740&#45;&gt;node_0x6060000006e0</title>
<path fill="none" stroke="#1164b4" d="M522.62,-365.31C528.4,-356.77 535.49,-346.27 541.88,-336.82"/>
<polygon fill="#1164b4" stroke="#1164b4" points="544.79,-338.77 547.49,-328.53 538.99,-334.85 544.79,-338.77"/>
</g>
<!-- node_0x606000000980 -->
<g id="node29" class="node">
<title>node_0x606000000980</title>
<path fill="#f0ffff" stroke="black" d="M616,-292.5C616,-292.5 646,-292.5 646,-292.5 652,-292.5 658,-298.5 658,-304.5 658,-304.5 658,-316.5 658,-316.5 658,-322.5 652,-328.5 646,-328.5 646,-328.5 616,-328.5 616,-328.5 610,-328.5 604,-322.5 604,-316.5 604,-316.5 604,-304.5 604,-304.5 604,-298.5 610,-292.5 616,-292.5"/>
<text text-anchor="middle" x="631" y="-306.8" font-family="Times,serif" font-size="14.00">=</text>
</g>
<!-- node_0x606000000e00&#45;&gt;node_0x606000000980 -->
<g id="edge28" class="edge">
<title>node_0x606000000e00&#45;&gt;node_0x606000000980</title>
<path fill="none" stroke="#e32636" d="M631,-365.31C631,-357.29 631,-347.55 631,-338.57"/>
<polygon fill="#e32636" stroke="#e32636" points="634.5,-338.53 631,-328.53 627.5,-338.53 634.5,-338.53"/>
</g>
<!-- node_0x606000000da0 -->
<g id="node35" class="node">
<title>node_0x606000000da0</title>
<path fill="#c6df90" stroke="black" d="M688,-292.5C688,-292.5 718,-292.5 718,-292.5 724,-292.5 730,-298.5 730,-304.5 730,-304.5 730,-316.5 730,-316.5 730,-322.5 724,-328.5 718,-328.5 718,-328.5 688,-328.5 688,-328.5 682,-328.5 676,-322.5 676,-316.5 676,-316.5 676,-304.5 676,-304.5 676,-298.5 682,-292.5 688,-292.5"/>
<text text-anchor="middle" x="703" y="-306.8" font-family="Times,serif" font-size="14.00">and</text>
</g>
<!-- node_0x606000000e00&#45;&gt;node_0x606000000da0 -->
<g id="edge34" class="edge">
<title>node_0x606000000e00&#45;&gt;node_0x606000000da0</title>
<path fill="none" stroke="#1164b4" d="M648.43,-365.31C657.45,-356.42 668.61,-345.41 678.49,-335.67"/>
<polygon fill="#1164b4" stroke="#1164b4" points="681.07,-338.04 685.73,-328.53 676.15,-333.06 681.07,-338.04"/>
</g>
<!-- node_0x6060000007a0 -->
<g id="node30" class="node">
<title>node_0x6060000007a0</title>
<path fill="#9aceeb" stroke="black" d="M510.5,-219.5C510.5,-219.5 573.5,-219.5 573.5,-219.5 579.5,-219.5 585.5,-225.5 585.5,-231.5 585.5,-231.5 585.5,-243.5 585.5,-243.5 585.5,-249.5 579.5,-255.5 573.5,-255.5 573.5,-255.5 510.5,-255.5 510.5,-255.5 504.5,-255.5 498.5,-249.5 498.5,-243.5 498.5,-243.5 498.5,-231.5 498.5,-231.5 498.5,-225.5 504.5,-219.5 510.5,-219.5"/>
<text text-anchor="middle" x="542" y="-233.8" font-family="Times,serif" font-size="14.00">fact_temp</text>
</g>
<!-- node_0x606000000980&#45;&gt;node_0x6060000007a0 -->
<g id="edge29" class="edge">
<title>node_0x606000000980&#45;&gt;node_0x6060000007a0</title>
<path fill="none" stroke="#e32636" d="M609.46,-292.31C597.98,-283.16 583.69,-271.76 571.23,-261.82"/>
<polygon fill="#e32636" stroke="#e32636" points="573.35,-259.03 563.35,-255.53 568.98,-264.5 573.35,-259.03"/>
</g>
<!-- node_0x606000000920 -->
<g id="node31" class="node">
<title>node_0x606000000920</title>
<path fill="#c6df90" stroke="black" d="M616,-219.5C616,-219.5 646,-219.5 646,-219.5 652,-219.5 658,-225.5 658,-231.5 658,-231.5 658,-243.5 658,-243.5 658,-249.5 652,-255.5 646,-255.5 646,-255.5 616,-255.5 616,-255.5 610,-255.5 604,-249.5 604,-243.5 604,-243.5 604,-231.5 604,-231.5 604,-225.5 610,-219.5 616,-219.5"/>
<text text-anchor="middle" x="631" y="-233.8" font-family="Times,serif" font-size="14.00">and</text>
</g>
<!-- node_0x606000000980&#45;&gt;node_0x606000000920 -->
<g id="edge30" class="edge">
<title>node_0x606000000980&#45;&gt;node_0x606000000920</title>
<path fill="none" stroke="#1164b4" d="M631,-292.31C631,-284.29 631,-274.55 631,-265.57"/>
<polygon fill="#1164b4" stroke="#1164b4" points="634.5,-265.53 631,-255.53 627.5,-265.53 634.5,-265.53"/>
</g>
<!-- node_0x6060000008c0 -->
<g id="node32" class="node">
<title>node_0x6060000008c0</title>
<path fill="#f0ffff" stroke="black" d="M574,-146.5C574,-146.5 604,-146.5 604,-146.5 610,-146.5 616,-152.5 616,-158.5 616,-158.5 616,-170.5 616,-170.5 616,-176.5 610,-182.5 604,-182.5 604,-182.5 574,-182.5 574,-182.5 568,-182.5 562,-176.5 562,-170.5 562,-170.5 562,-158.5 562,-158.5 562,-152.5 568,-146.5 574,-146.5"/>
<text text-anchor="middle" x="589" y="-160.8" font-family="Times,serif" font-size="14.00">fact</text>
</g>
<!-- node_0x606000000920&#45;&gt;node_0x6060000008c0 -->
<g id="edge31" class="edge">
<title>node_0x606000000920&#45;&gt;node_0x6060000008c0</title>
<path fill="none" stroke="#e32636" d="M620.83,-219.31C615.88,-210.94 609.82,-200.7 604.32,-191.4"/>
<polygon fill="#e32636" stroke="#e32636" points="607.18,-189.35 599.07,-182.53 601.15,-192.92 607.18,-189.35"/>
</g>
<!-- node_0x606000000860 -->
<g id="node33" class="node">
<title>node_0x606000000860</title>
<path fill="#c6df90" stroke="black" d="M574,-73.5C574,-73.5 604,-73.5 604,-73.5 610,-73.5 616,-79.5 616,-85.5 616,-85.5 616,-97.5 616,-97.5 616,-103.5 610,-109.5 604,-109.5 604,-109.5 574,-109.5 574,-109.5 568,-109.5 562,-103.5 562,-97.5 562,-97.5 562,-85.5 562,-85.5 562,-79.5 568,-73.5 574,-73.5"/>
<text text-anchor="middle" x="589" y="-87.8" font-family="Times,serif" font-size="14.00">and</text>
</g>
<!-- node_0x6060000008c0&#45;&gt;node_0x606000000860 -->
<g id="edge32" class="edge">
<title>node_0x6060000008c0&#45;&gt;node_0x606000000860</title>
<path fill="none" stroke="#e32636" d="M589,-146.31C589,-138.29 589,-128.55 589,-119.57"/>
<polygon fill="#e32636" stroke="#e32636" points="592.5,-119.53 589,-109.53 585.5,-119.53 592.5,-119.53"/>
</g>
<!-- node_0x606000000800 -->
<g id="node34" class="node">
<title>node_0x606000000800</title>
<path fill="#9aceeb" stroke="black" d="M555,-0.5C555,-0.5 623,-0.5 623,-0.5 629,-0.5 635,-6.5 635,-12.5 635,-12.5 635,-24.5 635,-24.5 635,-30.5 629,-36.5 623,-36.5 623,-36.5 555,-36.5 555,-36.5 549,-36.5 543,-30.5 543,-24.5 543,-24.5 543,-12.5 543,-12.5 543,-6.5 549,-0.5 555,-0.5"/>
<text text-anchor="middle" x="589" y="-14.8" font-family="Times,serif" font-size="14.00">num_temp</text>
</g>
<!-- node_0x606000000860&#45;&gt;node_0x606000000800 -->
<g id="edge33" class="edge">
<title>node_0x606000000860&#45;&gt;node_0x606000000800</title>
<path fill="none" stroke="#e32636" d="M589,-73.31C589,-65.29 589,-55.55 589,-46.57"/>
<polygon fill="#e32636" stroke="#e32636" points="592.5,-46.53 589,-36.53 585.5,-46.53 592.5,-46.53"/>
</g>
<!-- node_0x606000000c20 -->
<g id="node36" class="node">
<title>node_0x606000000c20</title>
<path fill="#f0ffff" stroke="black" d="M688,-219.5C688,-219.5 718,-219.5 718,-219.5 724,-219.5 730,-225.5 730,-231.5 730,-231.5 730,-243.5 730,-243.5 730,-249.5 724,-255.5 718,-255.5 718,-255.5 688,-255.5 688,-255.5 682,-255.5 676,-249.5 676,-243.5 676,-243.5 676,-231.5 676,-231.5 676,-225.5 682,-219.5 688,-219.5"/>
<text text-anchor="middle" x="703" y="-233.8" font-family="Times,serif" font-size="14.00">=</text>
</g>
<!-- node_0x606000000da0&#45;&gt;node_0x606000000c20 -->
<g id="edge35" class="edge">
<title>node_0x606000000da0&#45;&gt;node_0x606000000c20</title>
<path fill="none" stroke="#e32636" d="M703,-292.31C703,-284.29 703,-274.55 703,-265.57"/>
<polygon fill="#e32636" stroke="#e32636" points="706.5,-265.53 703,-255.53 699.5,-265.53 706.5,-265.53"/>
</g>
<!-- node_0x606000000d40 -->
<g id="node43" class="node">
<title>node_0x606000000d40</title>
<path fill="#c6df90" stroke="black" d="M809,-219.5C809,-219.5 839,-219.5 839,-219.5 845,-219.5 851,-225.5 851,-231.5 851,-231.5 851,-243.5 851,-243.5 851,-249.5 845,-255.5 839,-255.5 839,-255.5 809,-255.5 809,-255.5 803,-255.5 797,-249.5 797,-243.5 797,-243.5 797,-231.5 797,-231.5 797,-225.5 803,-219.5 809,-219.5"/>
<text text-anchor="middle" x="824" y="-233.8" font-family="Times,serif" font-size="14.00">and</text>
</g>
<!-- node_0x606000000da0&#45;&gt;node_0x606000000d40 -->
<g id="edge42" class="edge">
<title>node_0x606000000da0&#45;&gt;node_0x606000000d40</title>
<path fill="none" stroke="#1164b4" d="M730.15,-293.57C747.28,-283.52 769.59,-270.43 788.16,-259.53"/>
<polygon fill="#1164b4" stroke="#1164b4" points="790.08,-262.46 796.94,-254.38 786.54,-256.42 790.08,-262.46"/>
</g>
<!-- node_0x6060000009e0 -->
<g id="node37" class="node">
<title>node_0x6060000009e0</title>
<path fill="#9aceeb" stroke="black" d="M646.5,-146.5C646.5,-146.5 709.5,-146.5 709.5,-146.5 715.5,-146.5 721.5,-152.5 721.5,-158.5 721.5,-158.5 721.5,-170.5 721.5,-170.5 721.5,-176.5 715.5,-182.5 709.5,-182.5 709.5,-182.5 646.5,-182.5 646.5,-182.5 640.5,-182.5 634.5,-176.5 634.5,-170.5 634.5,-170.5 634.5,-158.5 634.5,-158.5 634.5,-152.5 640.5,-146.5 646.5,-146.5"/>
<text text-anchor="middle" x="678" y="-160.8" font-family="Times,serif" font-size="14.00">fact_temp</text>
</g>
<!-- node_0x606000000c20&#45;&gt;node_0x6060000009e0 -->
<g id="edge36" class="edge">
<title>node_0x606000000c20&#45;&gt;node_0x6060000009e0</title>
<path fill="none" stroke="#e32636" d="M696.95,-219.31C694.06,-211.12 690.54,-201.12 687.33,-191.98"/>
<polygon fill="#e32636" stroke="#e32636" points="690.62,-190.8 684,-182.53 684.02,-193.12 690.62,-190.8"/>
</g>
<!-- node_0x606000000bc0 -->
<g id="node38" class="node">
<title>node_0x606000000bc0</title>
<path fill="#e6a8d7" stroke="black" d="M752,-146.5C752,-146.5 782,-146.5 782,-146.5 788,-146.5 794,-152.5 794,-158.5 794,-158.5 794,-170.5 794,-170.5 794,-176.5 788,-182.5 782,-182.5 782,-182.5 752,-182.5 752,-182.5 746,-182.5 740,-176.5 740,-170.5 740,-170.5 740,-158.5 740,-158.5 740,-152.5 746,-146.5 752,-146.5"/>
<text text-anchor="middle" x="767" y="-160.8" font-family="Times,serif" font-size="14.00">*</text>
</g>
<!-- node_0x606000000c20&#45;&gt;node_0x606000000bc0 -->
<g id="edge37" class="edge">
<title>node_0x606000000c20&#45;&gt;node_0x606000000bc0</title>
<path fill="none" stroke="#1164b4" d="M718.49,-219.31C726.43,-210.5 736.24,-199.63 744.95,-189.96"/>
<polygon fill="#1164b4" stroke="#1164b4" points="747.55,-192.3 751.65,-182.53 742.35,-187.61 747.55,-192.3"/>
</g>
<!-- node_0x606000000a40 -->
<g id="node39" class="node">
<title>node_0x606000000a40</title>
<path fill="#9aceeb" stroke="black" d="M646.5,-73.5C646.5,-73.5 709.5,-73.5 709.5,-73.5 715.5,-73.5 721.5,-79.5 721.5,-85.5 721.5,-85.5 721.5,-97.5 721.5,-97.5 721.5,-103.5 715.5,-109.5 709.5,-109.5 709.5,-109.5 646.5,-109.5 646.5,-109.5 640.5,-109.5 634.5,-103.5 634.5,-97.5 634.5,-97.5 634.5,-85.5 634.5,-85.5 634.5,-79.5 640.5,-73.5 646.5,-73.5"/>
<text text-anchor="middle" x="678" y="-87.8" font-family="Times,serif" font-size="14.00">fact_temp</text>
</g>
<!-- node_0x606000000bc0&#45;&gt;node_0x606000000a40 -->
<g id="edge38" class="edge">
<title>node_0x606000000bc0&#45;&gt;node_0x606000000a40</title>
<path fill="none" stroke="#e32636" d="M745.46,-146.31C733.98,-137.16 719.69,-125.76 707.23,-115.82"/>
<polygon fill="#e32636" stroke="#e32636" points="709.35,-113.03 699.35,-109.53 704.98,-118.5 709.35,-113.03"/>
</g>
<!-- node_0x606000000b60 -->
<g id="node40" class="node">
<title>node_0x606000000b60</title>
<path fill="#e6a8d7" stroke="black" d="M752,-73.5C752,-73.5 782,-73.5 782,-73.5 788,-73.5 794,-79.5 794,-85.5 794,-85.5 794,-97.5 794,-97.5 794,-103.5 788,-109.5 782,-109.5 782,-109.5 752,-109.5 752,-109.5 746,-109.5 740,-103.5 740,-97.5 740,-97.5 740,-85.5 740,-85.5 740,-79.5 746,-73.5 752,-73.5"/>
<text text-anchor="middle" x="767" y="-87.8" font-family="Times,serif" font-size="14.00">+</text>
</g>
<!-- node_0x606000000bc0&#45;&gt;node_0x606000000b60 -->
<g id="edge39" class="edge">
<title>node_0x606000000bc0&#45;&gt;node_0x606000000b60</title>
<path fill="none" stroke="#1164b4" d="M767,-146.31C767,-138.29 767,-128.55 767,-119.57"/>
<polygon fill="#1164b4" stroke="#1164b4" points="770.5,-119.53 767,-109.53 763.5,-119.53 770.5,-119.53"/>
</g>
<!-- node_0x606000000aa0 -->
<g id="node41" class="node">
<title>node_0x606000000aa0</title>
<path fill="#9aceeb" stroke="black" d="M699,-0.5C699,-0.5 767,-0.5 767,-0.5 773,-0.5 779,-6.5 779,-12.5 779,-12.5 779,-24.5 779,-24.5 779,-30.5 773,-36.5 767,-36.5 767,-36.5 699,-36.5 699,-36.5 693,-36.5 687,-30.5 687,-24.5 687,-24.5 687,-12.5 687,-12.5 687,-6.5 693,-0.5 699,-0.5"/>
<text text-anchor="middle" x="733" y="-14.8" font-family="Times,serif" font-size="14.00">num_temp</text>
</g>
<!-- node_0x606000000b60&#45;&gt;node_0x606000000aa0 -->
<g id="edge40" class="edge">
<title>node_0x606000000b60&#45;&gt;node_0x606000000aa0</title>
<path fill="none" stroke="#e32636" d="M758.77,-73.31C754.8,-65.03 749.96,-54.91 745.54,-45.69"/>
<polygon fill="#e32636" stroke="#e32636" points="748.63,-44.04 741.15,-36.53 742.32,-47.06 748.63,-44.04"/>
</g>
<!-- node_0x606000000b00 -->
<g id="node42" class="node">
<title>node_0x606000000b00</title>
<path fill="#ddb9e9" stroke="black" d="M809,-0.5C809,-0.5 839,-0.5 839,-0.5 845,-0.5 851,-6.5 851,-12.5 851,-12.5 851,-24.5 851,-24.5 851,-30.5 845,-36.5 839,-36.5 839,-36.5 809,-36.5 809,-36.5 803,-36.5 797,-30.5 797,-24.5 797,-24.5 797,-12.5 797,-12.5 797,-6.5 803,-0.5 809,-0.5"/>
<text text-anchor="middle" x="824" y="-14.8" font-family="Times,serif" font-size="14.00">1</text>
</g>
<!-- node_0x606000000b60&#45;&gt;node_0x606000000b00 -->
<g id="edge41" class="edge">
<title>node_0x606000000b60&#45;&gt;node_0x606000000b00</title>
<path fill="none" stroke="#1164b4" d="M780.8,-73.31C787.73,-64.68 796.26,-54.06 803.9,-44.53"/>
<polygon fill="#1164b4" stroke="#1164b4" points="806.8,-46.52 810.33,-36.53 801.34,-42.14 806.8,-46.52"/>
</g>
<!-- node_0x606000000ce0 -->
<g id="node44" class="node">
<title>node_0x606000000ce0</title>
<path fill="#f0ffff" stroke="black" d="M830,-146.5C830,-146.5 868,-146.5 868,-146.5 874,-146.5 880,-152.5 880,-158.5 880,-158.5 880,-170.5 880,-170.5 880,-176.5 874,-182.5 868,-182.5 868,-182.5 830,-182.5 830,-182.5 824,-182.5 818,-176.5 818,-170.5 818,-170.5 818,-158.5 818,-158.5 818,-152.5 824,-146.5 830,-146.5"/>
<text text-anchor="middle" x="849" y="-160.8" font-family="Times,serif" font-size="14.00">return</text>
</g>
<!-- node_0x606000000d40&#45;&gt;node_0x606000000ce0 -->
<g id="edge43" class="edge">
<title>node_0x606000000d40&#45;&gt;node_0x606000000ce0</title>
<path fill="none" stroke="#e32636" d="M830.05,-219.31C832.94,-211.12 836.46,-201.12 839.67,-191.98"/>
<polygon fill="#e32636" stroke="#e32636" points="842.98,-193.12 843,-182.53 836.38,-190.8 842.98,-193.12"/>
</g>
<!-- node_0x606000000c80 -->
<g id="node45" class="node">
<title>node_0x606000000c80</title>
<path fill="#9aceeb" stroke="black" d="M824.5,-73.5C824.5,-73.5 887.5,-73.5 887.5,-73.5 893.5,-73.5 899.5,-79.5 899.5,-85.5 899.5,-85.5 899.5,-97.5 899.5,-97.5 899.5,-103.5 893.5,-109.5 887.5,-109.5 887.5,-109.5 824.5,-109.5 824.5,-109.5 818.5,-109.5 812.5,-103.5 812.5,-97.5 812.5,-97.5 812.5,-85.5 812.5,-85.5 812.5,-79.5 818.5,-73.5 824.5,-73.5"/>
<text text-anchor="middle" x="856" y="-87.8" font-family="Times,serif" font-size="14.00">fact_temp</text>
</g>
<!-- node_0x606000000ce0&#45;&gt;node_0x606000000c80 -->
<g id="edge44" class="edge">
<title>node_0x606000000ce0&#45;&gt;node_0x606000000c80</title>
<path fill="none" stroke="#e32636" d="M850.69,-146.31C851.49,-138.29 852.45,-128.55 853.33,-119.57"/>
<polygon fill="#e32636" stroke="#e32636" points="856.82,-119.82 854.32,-109.53 849.86,-119.14 856.82,-119.82"/>
</g>
<!-- node_0x606000001160 -->
<g id="node47" class="node">
<title>node_0x606000001160</title>
<path fill="#f0ffff" stroke="black" d="M334,-730.5C334,-730.5 378,-730.5 378,-730.5 384,-730.5 390,-736.5 390,-742.5 390,-742.5 390,-754.5 390,-754.5 390,-760.5 384,-766.5 378,-766.5 378,-766.5 334,-766.5 334,-766.5 328,-766.5 322,-760.5 322,-754.5 322,-754.5 322,-742.5 322,-742.5 322,-736.5 328,-730.5 334,-730.5"/>
<text text-anchor="middle" x="356" y="-744.8" font-family="Times,serif" font-size="14.00">var init</text>
</g>
<!-- node_0x6060000016a0&#45;&gt;node_0x606000001160 -->
<g id="edge46" class="edge">
<title>node_0x6060000016a0&#45;&gt;node_0x606000001160</title>
<path fill="none" stroke="#e32636" d="M356,-803.31C356,-795.29 356,-785.55 356,-776.57"/>
<polygon fill="#e32636" stroke="#e32636" points="359.5,-776.53 356,-766.53 352.5,-776.53 359.5,-776.53"/>
</g>
<!-- node_0x606000001640 -->
<g id="node50" class="node">
<title>node_0x606000001640</title>
<path fill="#c6df90" stroke="black" d="M482,-730.5C482,-730.5 512,-730.5 512,-730.5 518,-730.5 524,-736.5 524,-742.5 524,-742.5 524,-754.5 524,-754.5 524,-760.5 518,-766.5 512,-766.5 512,-766.5 482,-766.5 482,-766.5 476,-766.5 470,-760.5 470,-754.5 470,-754.5 470,-742.5 470,-742.5 470,-736.5 476,-730.5 482,-730.5"/>
<text text-anchor="middle" x="497" y="-744.8" font-family="Times,serif" font-size="14.00">and</text>
</g>
<!-- node_0x6060000016a0&#45;&gt;node_0x606000001640 -->
<g id="edge49" class="edge">
<title>node_0x6060000016a0&#45;&gt;node_0x606000001640</title>
<path fill="none" stroke="#1164b4" d="M383.19,-806.81C405.23,-795.71 436.49,-779.97 460.68,-767.79"/>
<polygon fill="#1164b4" stroke="#1164b4" points="462.54,-770.77 469.9,-763.15 459.39,-764.52 462.54,-770.77"/>
</g>
<!-- node_0x6060000010a0 -->
<g id="node48" class="node">
<title>node_0x6060000010a0</title>
<path fill="#9aceeb" stroke="black" d="M307,-657.5C307,-657.5 337,-657.5 337,-657.5 343,-657.5 349,-663.5 349,-669.5 349,-669.5 349,-681.5 349,-681.5 349,-687.5 343,-693.5 337,-693.5 337,-693.5 307,-693.5 307,-693.5 301,-693.5 295,-687.5 295,-681.5 295,-681.5 295,-669.5 295,-669.5 295,-663.5 301,-657.5 307,-657.5"/>
<text text-anchor="middle" x="322" y="-671.8" font-family="Times,serif" font-size="14.00">x</text>
</g>
<!-- node_0x606000001160&#45;&gt;node_0x6060000010a0 -->
<g id="edge47" class="edge">
<title>node_0x606000001160&#45;&gt;node_0x6060000010a0</title>
<path fill="none" stroke="#e32636" d="M347.77,-730.31C343.8,-722.03 338.96,-711.91 334.54,-702.69"/>
<polygon fill="#e32636" stroke="#e32636" points="337.63,-701.04 330.15,-693.53 331.32,-704.06 337.63,-701.04"/>
</g>
<!-- node_0x606000001100 -->
<g id="node49" class="node">
<title>node_0x606000001100</title>
<path fill="#ddb9e9" stroke="black" d="M379,-657.5C379,-657.5 409,-657.5 409,-657.5 415,-657.5 421,-663.5 421,-669.5 421,-669.5 421,-681.5 421,-681.5 421,-687.5 415,-693.5 409,-693.5 409,-693.5 379,-693.5 379,-693.5 373,-693.5 367,-687.5 367,-681.5 367,-681.5 367,-669.5 367,-669.5 367,-663.5 373,-657.5 379,-657.5"/>
<text text-anchor="middle" x="394" y="-671.8" font-family="Times,serif" font-size="14.00">0</text>
</g>
<!-- node_0x606000001160&#45;&gt;node_0x606000001100 -->
<g id="edge48" class="edge">
<title>node_0x606000001160&#45;&gt;node_0x606000001100</title>
<path fill="none" stroke="#1164b4" d="M365.2,-730.31C369.68,-721.94 375.16,-711.7 380.14,-702.4"/>
<polygon fill="#1164b4" stroke="#1164b4" points="383.25,-704 384.89,-693.53 377.08,-700.69 383.25,-704"/>
</g>
<!-- node_0x606000001220 -->
<g id="node51" class="node">
<title>node_0x606000001220</title>
<path fill="#f0ffff" stroke="black" d="M482,-657.5C482,-657.5 512,-657.5 512,-657.5 518,-657.5 524,-663.5 524,-669.5 524,-669.5 524,-681.5 524,-681.5 524,-687.5 518,-693.5 512,-693.5 512,-693.5 482,-693.5 482,-693.5 476,-693.5 470,-687.5 470,-681.5 470,-681.5 470,-669.5 470,-669.5 470,-663.5 476,-657.5 482,-657.5"/>
<text text-anchor="middle" x="497" y="-671.8" font-family="Times,serif" font-size="14.00">scanf</text>
</g>
<!-- node_0x606000001640&#45;&gt;node_0x606000001220 -->
<g id="edge50" class="edge">
<title>node_0x606000001640&#45;&gt;node_0x606000001220</title>
<path fill="none" stroke="#e32636" d="M497,-730.31C497,-722.29 497,-712.55 497,-703.57"/>
<polygon fill="#e32636" stroke="#e32636" points="500.5,-703.53 497,-693.53 493.5,-703.53 500.5,-703.53"/>
</g>
<!-- node_0x6060000015e0 -->
<g id="node53" class="node">
<title>node_0x6060000015e0</title>
<path fill="#c6df90" stroke="black" d="M612,-657.5C612,-657.5 642,-657.5 642,-657.5 648,-657.5 654,-663.5 654,-669.5 654,-669.5 654,-681.5 654,-681.5 654,-687.5 648,-693.5 642,-693.5 642,-693.5 612,-693.5 612,-693.5 606,-693.5 600,-687.5 600,-681.5 600,-681.5 600,-669.5 600,-669.5 600,-663.5 606,-657.5 612,-657.5"/>
<text text-anchor="middle" x="627" y="-671.8" font-family="Times,serif" font-size="14.00">and</text>
</g>
<!-- node_0x606000001640&#45;&gt;node_0x6060000015e0 -->
<g id="edge52" class="edge">
<title>node_0x606000001640&#45;&gt;node_0x6060000015e0</title>
<path fill="none" stroke="#1164b4" d="M524.25,-732.62C543.58,-722.06 569.72,-707.78 590.8,-696.27"/>
<polygon fill="#1164b4" stroke="#1164b4" points="592.68,-699.23 599.78,-691.36 589.33,-693.09 592.68,-699.23"/>
</g>
<!-- node_0x6060000011c0 -->
<g id="node52" class="node">
<title>node_0x6060000011c0</title>
<path fill="#9aceeb" stroke="black" d="M482,-584.5C482,-584.5 512,-584.5 512,-584.5 518,-584.5 524,-590.5 524,-596.5 524,-596.5 524,-608.5 524,-608.5 524,-614.5 518,-620.5 512,-620.5 512,-620.5 482,-620.5 482,-620.5 476,-620.5 470,-614.5 470,-608.5 470,-608.5 470,-596.5 470,-596.5 470,-590.5 476,-584.5 482,-584.5"/>
<text text-anchor="middle" x="497" y="-598.8" font-family="Times,serif" font-size="14.00">x</text>
</g>
<!-- node_0x606000001220&#45;&gt;node_0x6060000011c0 -->
<g id="edge51" class="edge">
<title>node_0x606000001220&#45;&gt;node_0x6060000011c0</title>
<path fill="none" stroke="#e32636" d="M497,-657.31C497,-649.29 497,-639.55 497,-630.57"/>
<polygon fill="#e32636" stroke="#e32636" points="500.5,-630.53 497,-620.53 493.5,-630.53 500.5,-630.53"/>
</g>
<!-- node_0x606000001460 -->
<g id="node54" class="node">
<title>node_0x606000001460</title>
<path fill="#f0ffff" stroke="black" d="M612,-584.5C612,-584.5 642,-584.5 642,-584.5 648,-584.5 654,-590.5 654,-596.5 654,-596.5 654,-608.5 654,-608.5 654,-614.5 648,-620.5 642,-620.5 642,-620.5 612,-620.5 612,-620.5 606,-620.5 600,-614.5 600,-608.5 600,-608.5 600,-596.5 600,-596.5 600,-590.5 606,-584.5 612,-584.5"/>
<text text-anchor="middle" x="627" y="-598.8" font-family="Times,serif" font-size="14.00">=</text>
</g>
<!-- node_0x6060000015e0&#45;&gt;node_0x606000001460 -->
<g id="edge53" class="edge">
<title>node_0x6060000015e0&#45;&gt;node_0x606000001460</title>
<path fill="none" stroke="#e32636" d="M627,-657.31C627,-649.29 627,-639.55 627,-630.57"/>
<polygon fill="#e32636" stroke="#e32636" points="630.5,-630.53 627,-620.53 623.5,-630.53 630.5,-630.53"/>
</g>
<!-- node_0x606000001580 -->
<g id="node60" class="node">
<title>node_0x606000001580</title>
<path fill="#c6df90" stroke="black" d="M720,-584.5C720,-584.5 750,-584.5 750,-584.5 756,-584.5 762,-590.5 762,-596.5 762,-596.5 762,-608.5 762,-608.5 762,-614.5 756,-620.5 750,-620.5 750,-620.5 720,-620.5 720,-620.5 714,-620.5 708,-614.5 708,-608.5 708,-608.5 708,-596.5 708,-596.5 708,-590.5 714,-584.5 720,-584.5"/>
<text text-anchor="middle" x="735" y="-598.8" font-family="Times,serif" font-size="14.00">and</text>
</g>
<!-- node_0x6060000015e0&#45;&gt;node_0x606000001580 -->
<g id="edge59" class="edge">
<title>node_0x6060000015e0&#45;&gt;node_0x606000001580</title>
<path fill="none" stroke="#1164b4" d="M652.87,-657.49C667.06,-648.17 684.84,-636.47 700.23,-626.36"/>
<polygon fill="#1164b4" stroke="#1164b4" points="702.53,-629.03 708.97,-620.61 698.69,-623.18 702.53,-629.03"/>
</g>
<!-- node_0x606000001280 -->
<g id="node55" class="node">
<title>node_0x606000001280</title>
<path fill="#9aceeb" stroke="black" d="M594,-511.5C594,-511.5 624,-511.5 624,-511.5 630,-511.5 636,-517.5 636,-523.5 636,-523.5 636,-535.5 636,-535.5 636,-541.5 630,-547.5 624,-547.5 624,-547.5 594,-547.5 594,-547.5 588,-547.5 582,-541.5 582,-535.5 582,-535.5 582,-523.5 582,-523.5 582,-517.5 588,-511.5 594,-511.5"/>
<text text-anchor="middle" x="609" y="-525.8" font-family="Times,serif" font-size="14.00">x</text>
</g>
<!-- node_0x606000001460&#45;&gt;node_0x606000001280 -->
<g id="edge54" class="edge">
<title>node_0x606000001460&#45;&gt;node_0x606000001280</title>
<path fill="none" stroke="#e32636" d="M622.64,-584.31C620.59,-576.2 618.09,-566.34 615.79,-557.28"/>
<polygon fill="#e32636" stroke="#e32636" points="619.17,-556.36 613.32,-547.53 612.38,-558.08 619.17,-556.36"/>
</g>
<!-- node_0x606000001400 -->
<g id="node56" class="node">
<title>node_0x606000001400</title>
<path fill="#c6df90" stroke="black" d="M666,-511.5C666,-511.5 696,-511.5 696,-511.5 702,-511.5 708,-517.5 708,-523.5 708,-523.5 708,-535.5 708,-535.5 708,-541.5 702,-547.5 696,-547.5 696,-547.5 666,-547.5 666,-547.5 660,-547.5 654,-541.5 654,-535.5 654,-535.5 654,-523.5 654,-523.5 654,-517.5 660,-511.5 666,-511.5"/>
<text text-anchor="middle" x="681" y="-525.8" font-family="Times,serif" font-size="14.00">and</text>
</g>
<!-- node_0x606000001460&#45;&gt;node_0x606000001400 -->
<g id="edge55" class="edge">
<title>node_0x606000001460&#45;&gt;node_0x606000001400</title>
<path fill="none" stroke="#1164b4" d="M640.07,-584.31C646.64,-575.68 654.72,-565.06 661.96,-555.53"/>
<polygon fill="#1164b4" stroke="#1164b4" points="664.78,-557.61 668.05,-547.53 659.21,-553.37 664.78,-557.61"/>
</g>
<!-- node_0x6060000013a0 -->
<g id="node57" class="node">
<title>node_0x6060000013a0</title>
<path fill="#f0ffff" stroke="black" d="M666,-438.5C666,-438.5 696,-438.5 696,-438.5 702,-438.5 708,-444.5 708,-450.5 708,-450.5 708,-462.5 708,-462.5 708,-468.5 702,-474.5 696,-474.5 696,-474.5 666,-474.5 666,-474.5 660,-474.5 654,-468.5 654,-462.5 654,-462.5 654,-450.5 654,-450.5 654,-444.5 660,-438.5 666,-438.5"/>
<text text-anchor="middle" x="681" y="-452.8" font-family="Times,serif" font-size="14.00">fact</text>
</g>
<!-- node_0x606000001400&#45;&gt;node_0x6060000013a0 -->
<g id="edge56" class="edge">
<title>node_0x606000001400&#45;&gt;node_0x6060000013a0</title>
<path fill="none" stroke="#e32636" d="M681,-511.31C681,-503.29 681,-493.55 681,-484.57"/>
<polygon fill="#e32636" stroke="#e32636" points="684.5,-484.53 681,-474.53 677.5,-484.53 684.5,-484.53"/>
</g>
<!-- node_0x606000001340 -->
<g id="node58" class="node">
<title>node_0x606000001340</title>
<path fill="#c6df90" stroke="black" d="M724,-365.5C724,-365.5 754,-365.5 754,-365.5 760,-365.5 766,-371.5 766,-377.5 766,-377.5 766,-389.5 766,-389.5 766,-395.5 760,-401.5 754,-401.5 754,-401.5 724,-401.5 724,-401.5 718,-401.5 712,-395.5 712,-389.5 712,-389.5 712,-377.5 712,-377.5 712,-371.5 718,-365.5 724,-365.5"/>
<text text-anchor="middle" x="739" y="-379.8" font-family="Times,serif" font-size="14.00">and</text>
</g>
<!-- node_0x6060000013a0&#45;&gt;node_0x606000001340 -->
<g id="edge57" class="edge">
<title>node_0x6060000013a0&#45;&gt;node_0x606000001340</title>
<path fill="none" stroke="#e32636" d="M695.04,-438.31C702.09,-429.68 710.77,-419.06 718.55,-409.53"/>
<polygon fill="#e32636" stroke="#e32636" points="721.47,-411.49 725.09,-401.53 716.05,-407.06 721.47,-411.49"/>
</g>
<!-- node_0x6060000012e0 -->
<g id="node59" class="node">
<title>node_0x6060000012e0</title>
<path fill="#9aceeb" stroke="black" d="M760,-292.5C760,-292.5 790,-292.5 790,-292.5 796,-292.5 802,-298.5 802,-304.5 802,-304.5 802,-316.5 802,-316.5 802,-322.5 796,-328.5 790,-328.5 790,-328.5 760,-328.5 760,-328.5 754,-328.5 748,-322.5 748,-316.5 748,-316.5 748,-304.5 748,-304.5 748,-298.5 754,-292.5 760,-292.5"/>
<text text-anchor="middle" x="775" y="-306.8" font-family="Times,serif" font-size="14.00">x</text>
</g>
<!-- node_0x606000001340&#45;&gt;node_0x6060000012e0 -->
<g id="edge58" class="edge">
<title>node_0x606000001340&#45;&gt;node_0x6060000012e0</title>
<path fill="none" stroke="#e32636" d="M747.71,-365.31C751.92,-357.03 757.05,-346.91 761.72,-337.69"/>
<polygon fill="#e32636" stroke="#e32636" points="764.96,-339.03 766.37,-328.53 758.72,-335.87 764.96,-339.03"/>
</g>
<!-- node_0x606000001520 -->
<g id="node61" class="node">
<title>node_0x606000001520</title>
<path fill="#f0ffff" stroke="black" d="M738,-511.5C738,-511.5 768,-511.5 768,-511.5 774,-511.5 780,-517.5 780,-523.5 780,-523.5 780,-535.5 780,-535.5 780,-541.5 774,-547.5 768,-547.5 768,-547.5 738,-547.5 738,-547.5 732,-547.5 726,-541.5 726,-535.5 726,-535.5 726,-523.5 726,-523.5 726,-517.5 732,-511.5 738,-511.5"/>
<text text-anchor="middle" x="753" y="-525.8" font-family="Times,serif" font-size="14.00">print</text>
</g>
<!-- node_0x606000001580&#45;&gt;node_0x606000001520 -->
<g id="edge60" class="edge">
<title>node_0x606000001580&#45;&gt;node_0x606000001520</title>
<path fill="none" stroke="#e32636" d="M739.36,-584.31C741.41,-576.2 743.91,-566.34 746.21,-557.28"/>
<polygon fill="#e32636" stroke="#e32636" points="749.62,-558.08 748.68,-547.53 742.83,-556.36 749.62,-558.08"/>
</g>
<!-- node_0x6060000014c0 -->
<g id="node62" class="node">
<title>node_0x6060000014c0</title>
<path fill="#9aceeb" stroke="black" d="M738,-438.5C738,-438.5 768,-438.5 768,-438.5 774,-438.5 780,-444.5 780,-450.5 780,-450.5 780,-462.5 780,-462.5 780,-468.5 774,-474.5 768,-474.5 768,-474.5 738,-474.5 738,-474.5 732,-474.5 726,-468.5 726,-462.5 726,-462.5 726,-450.5 726,-450.5 726,-444.5 732,-438.5 738,-438.5"/>
<text text-anchor="middle" x="753" y="-452.8" font-family="Times,serif" font-size="14.00">x</text>
</g>
<!-- node_0x606000001520&#45;&gt;node_0x6060000014c0 -->
<g id="edge61" class="edge">
<title>node_0x606000001520&#45;&gt;node_0x6060000014c0</title>
<path fill="none" stroke="#e32636" d="M753,-511.31C753,-503.29 753,-493.55 753,-484.57"/>
<polygon fill="#e32636" stroke="#e32636" points="756.5,-484.53 753,-474.53 749.5,-484.53 756.5,-484.53"/>
</g>
</g>
</svg>
