<?xml version="1.0" encoding="UTF-8" standalone="no"?>
<!DOCTYPE svg PUBLIC "-//W3C//DTD SVG 1.1//EN"
 "http://www.w3.org/Graphics/SVG/1.1/DTD/svg11.dtd">
<!-- Generated by graphviz version 2.43.0 (0)
 -->
<!-- Title: %3 Pages: 1 -->
<svg width="970pt" height="848pt"
 viewBox="0.00 0.00 969.50 848.00" xmlns="http://www.w3.org/2000/svg" xmlns:xlink="http://www.w3.org/1999/xlink">
<g id="graph0" class="graph" transform="scale(1 1) rotate(0) translate(4 844)">
<title>%3</title>
<polygon fill="white" stroke="transparent" points="-4,4 -4,-844 965.5,-844 965.5,4 -4,4"/>
<!-- node_0x606000001700 -->
<g id="node1" class="node">
<title>node_0x606000001700</title>
<path fill="#c6df90" stroke="black" d="M387,-803.5C387,-803.5 417,-803.5 417,-803.5 423,-803.5 429,-809.5 429,-815.5 429,-815.5 429,-827.5 429,-827.5 429,-833.5 423,-839.5 417,-839.5 417,-839.5 387,-839.5 387,-839.5 381,-839.5 375,-833.5 375,-827.5 375,-827.5 375,-815.5 375,-815.5 375,-809.5 381,-803.5 387,-803.5"/>
<text text-anchor="middle" x="402" y="-817.8" font-family="Times,serif" font-size="14.00">and</text>
</g>
<!-- node_0x606000001a60 -->
<g id="node2" class="node">
<title>node_0x606000001a60</title>
<path fill="#f0ffff" stroke="black" d="M348,-730.5C348,-730.5 378,-730.5 378,-730.5 384,-730.5 390,-736.5 390,-742.5 390,-742.5 390,-754.5 390,-754.5 390,-760.5 384,-766.5 378,-766.5 378,-766.5 348,-766.5 348,-766.5 342,-766.5 336,-760.5 336,-754.5 336,-754.5 336,-742.5 336,-742.5 336,-736.5 342,-730.5 348,-730.5"/>
<text text-anchor="middle" x="363" y="-744.8" font-family="Times,serif" font-size="14.00">fact</text>
</g>
<!-- node_0x606000001700&#45;&gt;node_0x606000001a60 -->
<g id="edge1" class="edge">
<title>node_0x606000001700&#45;&gt;node_0x606000001a60</title>
<path fill="none" stroke="#e32636" d="M392.56,-803.31C387.96,-794.94 382.33,-784.7 377.23,-775.4"/>
<polygon fill="#e32636" stroke="#e32636" points="380.24,-773.61 372.35,-766.53 374.1,-776.98 380.24,-773.61"/>
</g>
<!-- node_0x6060000016a0 -->
<g id="node40" class="node">
<title>node_0x6060000016a0</title>
<path fill="#c6df90" stroke="black" d="M459,-730.5C459,-730.5 489,-730.5 489,-730.5 495,-730.5 501,-736.5 501,-742.5 501,-742.5 501,-754.5 501,-754.5 501,-760.5 495,-766.5 489,-766.5 489,-766.5 459,-766.5 459,-766.5 453,-766.5 447,-760.5 447,-754.5 447,-754.5 447,-742.5 447,-742.5 447,-736.5 453,-730.5 459,-730.5"/>
<text text-anchor="middle" x="474" y="-744.8" font-family="Times,serif" font-size="14.00">and</text>
</g>
<!-- node_0x606000001700&#45;&gt;node_0x6060000016a0 -->
<g id="edge39" class="edge">
<title>node_0x606000001700&#45;&gt;node_0x6060000016a0</title>
<path fill="none" stroke="#1164b4" d="M419.43,-803.31C428.45,-794.42 439.61,-783.41 449.49,-773.67"/>
<polygon fill="#1164b4" stroke="#1164b4" points="452.07,-776.04 456.73,-766.53 447.15,-771.06 452.07,-776.04"/>
</g>
<!-- node_0x606000001ac0 -->
<g id="node3" class="node">
<title>node_0x606000001ac0</title>
<path fill="#9aceeb" stroke="black" d="M276,-657.5C276,-657.5 306,-657.5 306,-657.5 312,-657.5 318,-663.5 318,-669.5 318,-669.5 318,-681.5 318,-681.5 318,-687.5 312,-693.5 306,-693.5 306,-693.5 276,-693.5 276,-693.5 270,-693.5 264,-687.5 264,-681.5 264,-681.5 264,-669.5 264,-669.5 264,-663.5 270,-657.5 276,-657.5"/>
<text text-anchor="middle" x="291" y="-671.8" font-family="Times,serif" font-size="14.00">num</text>
</g>
<!-- node_0x606000001a60&#45;&gt;node_0x606000001ac0 -->
<g id="edge2" class="edge">
<title>node_0x606000001a60&#45;&gt;node_0x606000001ac0</title>
<path fill="none" stroke="#e32636" d="M345.57,-730.31C336.55,-721.42 325.39,-710.41 315.51,-700.67"/>
<polygon fill="#e32636" stroke="#e32636" points="317.85,-698.06 308.27,-693.53 312.93,-703.04 317.85,-698.06"/>
</g>
<!-- node_0x606000001b20 -->
<g id="node4" class="node">
<title>node_0x606000001b20</title>
<path fill="#c6df90" stroke="black" d="M348,-657.5C348,-657.5 378,-657.5 378,-657.5 384,-657.5 390,-663.5 390,-669.5 390,-669.5 390,-681.5 390,-681.5 390,-687.5 384,-693.5 378,-693.5 378,-693.5 348,-693.5 348,-693.5 342,-693.5 336,-687.5 336,-681.5 336,-681.5 336,-669.5 336,-669.5 336,-663.5 342,-657.5 348,-657.5"/>
<text text-anchor="middle" x="363" y="-671.8" font-family="Times,serif" font-size="14.00">and</text>
</g>
<!-- node_0x606000001a60&#45;&gt;node_0x606000001b20 -->
<g id="edge3" class="edge">
<title>node_0x606000001a60&#45;&gt;node_0x606000001b20</title>
<path fill="none" stroke="#1164b4" d="M363,-730.31C363,-722.29 363,-712.55 363,-703.57"/>
<polygon fill="#1164b4" stroke="#1164b4" points="366.5,-703.53 363,-693.53 359.5,-703.53 366.5,-703.53"/>
</g>
<!-- node_0x606000001b80 -->
<g id="node5" class="node">
<title>node_0x606000001b80</title>
<path fill="#f0ffff" stroke="black" d="M171,-584.5C171,-584.5 201,-584.5 201,-584.5 207,-584.5 213,-590.5 213,-596.5 213,-596.5 213,-608.5 213,-608.5 213,-614.5 207,-620.5 201,-620.5 201,-620.5 171,-620.5 171,-620.5 165,-620.5 159,-614.5 159,-608.5 159,-608.5 159,-596.5 159,-596.5 159,-590.5 165,-584.5 171,-584.5"/>
<text text-anchor="middle" x="186" y="-598.8" font-family="Times,serif" font-size="14.00">if</text>
</g>
<!-- node_0x606000001b20&#45;&gt;node_0x606000001b80 -->
<g id="edge4" class="edge">
<title>node_0x606000001b20&#45;&gt;node_0x606000001b80</title>
<path fill="none" stroke="#e32636" d="M335.99,-661.05C332.98,-659.64 329.93,-658.27 327,-657 292.06,-641.91 251.34,-626.71 222.67,-616.39"/>
<polygon fill="#e32636" stroke="#e32636" points="223.65,-613.02 213.06,-612.95 221.29,-619.61 223.65,-613.02"/>
</g>
<!-- node_0x606000001dc0 -->
<g id="node11" class="node">
<title>node_0x606000001dc0</title>
<path fill="#c6df90" stroke="black" d="M348,-584.5C348,-584.5 378,-584.5 378,-584.5 384,-584.5 390,-590.5 390,-596.5 390,-596.5 390,-608.5 390,-608.5 390,-614.5 384,-620.5 378,-620.5 378,-620.5 348,-620.5 348,-620.5 342,-620.5 336,-614.5 336,-608.5 336,-608.5 336,-596.5 336,-596.5 336,-590.5 342,-584.5 348,-584.5"/>
<text text-anchor="middle" x="363" y="-598.8" font-family="Times,serif" font-size="14.00">and</text>
</g>
<!-- node_0x606000001b20&#45;&gt;node_0x606000001dc0 -->
<g id="edge10" class="edge">
<title>node_0x606000001b20&#45;&gt;node_0x606000001dc0</title>
<path fill="none" stroke="#1164b4" d="M363,-657.31C363,-649.29 363,-639.55 363,-630.57"/>
<polygon fill="#1164b4" stroke="#1164b4" points="366.5,-630.53 363,-620.53 359.5,-630.53 366.5,-630.53"/>
</g>
<!-- node_0x606000001be0 -->
<g id="node6" class="node">
<title>node_0x606000001be0</title>
<path fill="#bdecb6" stroke="black" d="M63,-511.5C63,-511.5 125,-511.5 125,-511.5 131,-511.5 137,-517.5 137,-523.5 137,-523.5 137,-535.5 137,-535.5 137,-541.5 131,-547.5 125,-547.5 125,-547.5 63,-547.5 63,-547.5 57,-547.5 51,-541.5 51,-535.5 51,-535.5 51,-523.5 51,-523.5 51,-517.5 57,-511.5 63,-511.5"/>
<text text-anchor="middle" x="94" y="-525.8" font-family="Times,serif" font-size="14.00">less or eq</text>
</g>
<!-- node_0x606000001b80&#45;&gt;node_0x606000001be0 -->
<g id="edge5" class="edge">
<title>node_0x606000001b80&#45;&gt;node_0x606000001be0</title>
<path fill="none" stroke="#e32636" d="M163.73,-584.31C151.86,-575.16 137.1,-563.76 124.21,-553.82"/>
<polygon fill="#e32636" stroke="#e32636" points="126.12,-550.87 116.07,-547.53 121.84,-556.41 126.12,-550.87"/>
</g>
<!-- node_0x606000001d00 -->
<g id="node9" class="node">
<title>node_0x606000001d00</title>
<path fill="#f0ffff" stroke="black" d="M167,-511.5C167,-511.5 205,-511.5 205,-511.5 211,-511.5 217,-517.5 217,-523.5 217,-523.5 217,-535.5 217,-535.5 217,-541.5 211,-547.5 205,-547.5 205,-547.5 167,-547.5 167,-547.5 161,-547.5 155,-541.5 155,-535.5 155,-535.5 155,-523.5 155,-523.5 155,-517.5 161,-511.5 167,-511.5"/>
<text text-anchor="middle" x="186" y="-525.8" font-family="Times,serif" font-size="14.00">return</text>
</g>
<!-- node_0x606000001b80&#45;&gt;node_0x606000001d00 -->
<g id="edge8" class="edge">
<title>node_0x606000001b80&#45;&gt;node_0x606000001d00</title>
<path fill="none" stroke="#1164b4" d="M186,-584.31C186,-576.29 186,-566.55 186,-557.57"/>
<polygon fill="#1164b4" stroke="#1164b4" points="189.5,-557.53 186,-547.53 182.5,-557.53 189.5,-557.53"/>
</g>
<!-- node_0x606000001c40 -->
<g id="node7" class="node">
<title>node_0x606000001c40</title>
<path fill="#9aceeb" stroke="black" d="M12,-438.5C12,-438.5 42,-438.5 42,-438.5 48,-438.5 54,-444.5 54,-450.5 54,-450.5 54,-462.5 54,-462.5 54,-468.5 48,-474.5 42,-474.5 42,-474.5 12,-474.5 12,-474.5 6,-474.5 0,-468.5 0,-462.5 0,-462.5 0,-450.5 0,-450.5 0,-444.5 6,-438.5 12,-438.5"/>
<text text-anchor="middle" x="27" y="-452.8" font-family="Times,serif" font-size="14.00">num</text>
</g>
<!-- node_0x606000001be0&#45;&gt;node_0x606000001c40 -->
<g id="edge6" class="edge">
<title>node_0x606000001be0&#45;&gt;node_0x606000001c40</title>
<path fill="none" stroke="#e32636" d="M77.78,-511.31C69.47,-502.5 59.2,-491.63 50.08,-481.96"/>
<polygon fill="#e32636" stroke="#e32636" points="52.48,-479.4 43.07,-474.53 47.39,-484.2 52.48,-479.4"/>
</g>
<!-- node_0x606000001ca0 -->
<g id="node8" class="node">
<title>node_0x606000001ca0</title>
<path fill="#ddb9e9" stroke="black" d="M84,-438.5C84,-438.5 114,-438.5 114,-438.5 120,-438.5 126,-444.5 126,-450.5 126,-450.5 126,-462.5 126,-462.5 126,-468.5 120,-474.5 114,-474.5 114,-474.5 84,-474.5 84,-474.5 78,-474.5 72,-468.5 72,-462.5 72,-462.5 72,-450.5 72,-450.5 72,-444.5 78,-438.5 84,-438.5"/>
<text text-anchor="middle" x="99" y="-452.8" font-family="Times,serif" font-size="14.00">0</text>
</g>
<!-- node_0x606000001be0&#45;&gt;node_0x606000001ca0 -->
<g id="edge7" class="edge">
<title>node_0x606000001be0&#45;&gt;node_0x606000001ca0</title>
<path fill="none" stroke="#1164b4" d="M95.21,-511.31C95.78,-503.29 96.46,-493.55 97.09,-484.57"/>
<polygon fill="#1164b4" stroke="#1164b4" points="100.59,-484.75 97.8,-474.53 93.61,-484.26 100.59,-484.75"/>
</g>
<!-- node_0x606000001d60 -->
<g id="node10" class="node">
<title>node_0x606000001d60</title>
<path fill="#ddb9e9" stroke="black" d="M166,-438.5C166,-438.5 196,-438.5 196,-438.5 202,-438.5 208,-444.5 208,-450.5 208,-450.5 208,-462.5 208,-462.5 208,-468.5 202,-474.5 196,-474.5 196,-474.5 166,-474.5 166,-474.5 160,-474.5 154,-468.5 154,-462.5 154,-462.5 154,-450.5 154,-450.5 154,-444.5 160,-438.5 166,-438.5"/>
<text text-anchor="middle" x="181" y="-452.8" font-family="Times,serif" font-size="14.00">1</text>
</g>
<!-- node_0x606000001d00&#45;&gt;node_0x606000001d60 -->
<g id="edge9" class="edge">
<title>node_0x606000001d00&#45;&gt;node_0x606000001d60</title>
<path fill="none" stroke="#e32636" d="M184.79,-511.31C184.22,-503.29 183.54,-493.55 182.91,-484.57"/>
<polygon fill="#e32636" stroke="#e32636" points="186.39,-484.26 182.2,-474.53 179.41,-484.75 186.39,-484.26"/>
</g>
<!-- node_0x606000001e20 -->
<g id="node12" class="node">
<title>node_0x606000001e20</title>
<path fill="#f0ffff" stroke="black" d="M336,-511.5C336,-511.5 380,-511.5 380,-511.5 386,-511.5 392,-517.5 392,-523.5 392,-523.5 392,-535.5 392,-535.5 392,-541.5 386,-547.5 380,-547.5 380,-547.5 336,-547.5 336,-547.5 330,-547.5 324,-541.5 324,-535.5 324,-535.5 324,-523.5 324,-523.5 324,-517.5 330,-511.5 336,-511.5"/>
<text text-anchor="middle" x="358" y="-525.8" font-family="Times,serif" font-size="14.00">var init</text>
</g>
<!-- node_0x606000001dc0&#45;&gt;node_0x606000001e20 -->
<g id="edge11" class="edge">
<title>node_0x606000001dc0&#45;&gt;node_0x606000001e20</title>
<path fill="none" stroke="#e32636" d="M361.79,-584.31C361.22,-576.29 360.54,-566.55 359.91,-557.57"/>
<polygon fill="#e32636" stroke="#e32636" points="363.39,-557.26 359.2,-547.53 356.41,-557.75 363.39,-557.26"/>
</g>
<!-- node_0x606000001f40 -->
<g id="node15" class="node">
<title>node_0x606000001f40</title>
<path fill="#c6df90" stroke="black" d="M422,-511.5C422,-511.5 452,-511.5 452,-511.5 458,-511.5 464,-517.5 464,-523.5 464,-523.5 464,-535.5 464,-535.5 464,-541.5 458,-547.5 452,-547.5 452,-547.5 422,-547.5 422,-547.5 416,-547.5 410,-541.5 410,-535.5 410,-535.5 410,-523.5 410,-523.5 410,-517.5 416,-511.5 422,-511.5"/>
<text text-anchor="middle" x="437" y="-525.8" font-family="Times,serif" font-size="14.00">and</text>
</g>
<!-- node_0x606000001dc0&#45;&gt;node_0x606000001f40 -->
<g id="edge14" class="edge">
<title>node_0x606000001dc0&#45;&gt;node_0x606000001f40</title>
<path fill="none" stroke="#1164b4" d="M380.91,-584.31C390.18,-575.42 401.66,-564.41 411.81,-554.67"/>
<polygon fill="#1164b4" stroke="#1164b4" points="414.46,-556.98 419.25,-547.53 409.61,-551.93 414.46,-556.98"/>
</g>
<!-- node_0x606000001e80 -->
<g id="node13" class="node">
<title>node_0x606000001e80</title>
<path fill="#9aceeb" stroke="black" d="M238,-438.5C238,-438.5 306,-438.5 306,-438.5 312,-438.5 318,-444.5 318,-450.5 318,-450.5 318,-462.5 318,-462.5 318,-468.5 312,-474.5 306,-474.5 306,-474.5 238,-474.5 238,-474.5 232,-474.5 226,-468.5 226,-462.5 226,-462.5 226,-450.5 226,-450.5 226,-444.5 232,-438.5 238,-438.5"/>
<text text-anchor="middle" x="272" y="-452.8" font-family="Times,serif" font-size="14.00">num_temp</text>
</g>
<!-- node_0x606000001e20&#45;&gt;node_0x606000001e80 -->
<g id="edge12" class="edge">
<title>node_0x606000001e20&#45;&gt;node_0x606000001e80</title>
<path fill="none" stroke="#e32636" d="M337.18,-511.31C326.2,-502.24 312.55,-490.98 300.59,-481.1"/>
<polygon fill="#e32636" stroke="#e32636" points="302.57,-478.2 292.63,-474.53 298.11,-483.59 302.57,-478.2"/>
</g>
<!-- node_0x606000001ee0 -->
<g id="node14" class="node">
<title>node_0x606000001ee0</title>
<path fill="#ddb9e9" stroke="black" d="M348,-438.5C348,-438.5 378,-438.5 378,-438.5 384,-438.5 390,-444.5 390,-450.5 390,-450.5 390,-462.5 390,-462.5 390,-468.5 384,-474.5 378,-474.5 378,-474.5 348,-474.5 348,-474.5 342,-474.5 336,-468.5 336,-462.5 336,-462.5 336,-450.5 336,-450.5 336,-444.5 342,-438.5 348,-438.5"/>
<text text-anchor="middle" x="363" y="-452.8" font-family="Times,serif" font-size="14.00">0</text>
</g>
<!-- node_0x606000001e20&#45;&gt;node_0x606000001ee0 -->
<g id="edge13" class="edge">
<title>node_0x606000001e20&#45;&gt;node_0x606000001ee0</title>
<path fill="none" stroke="#1164b4" d="M359.21,-511.31C359.78,-503.29 360.46,-493.55 361.09,-484.57"/>
<polygon fill="#1164b4" stroke="#1164b4" points="364.59,-484.75 361.8,-474.53 357.61,-484.26 364.59,-484.75"/>
</g>
<!-- node_0x606000001fa0 -->
<g id="node16" class="node">
<title>node_0x606000001fa0</title>
<path fill="#f0ffff" stroke="black" d="M420,-438.5C420,-438.5 450,-438.5 450,-438.5 456,-438.5 462,-444.5 462,-450.5 462,-450.5 462,-462.5 462,-462.5 462,-468.5 456,-474.5 450,-474.5 450,-474.5 420,-474.5 420,-474.5 414,-474.5 408,-468.5 408,-462.5 408,-462.5 408,-450.5 408,-450.5 408,-444.5 414,-438.5 420,-438.5"/>
<text text-anchor="middle" x="435" y="-452.8" font-family="Times,serif" font-size="14.00">=</text>
</g>
<!-- node_0x606000001f40&#45;&gt;node_0x606000001fa0 -->
<g id="edge15" class="edge">
<title>node_0x606000001f40&#45;&gt;node_0x606000001fa0</title>
<path fill="none" stroke="#e32636" d="M436.52,-511.31C436.29,-503.29 436.02,-493.55 435.76,-484.57"/>
<polygon fill="#e32636" stroke="#e32636" points="439.26,-484.43 435.48,-474.53 432.26,-484.62 439.26,-484.43"/>
</g>
<!-- node_0x606000002180 -->
<g id="node21" class="node">
<title>node_0x606000002180</title>
<path fill="#c6df90" stroke="black" d="M500,-438.5C500,-438.5 530,-438.5 530,-438.5 536,-438.5 542,-444.5 542,-450.5 542,-450.5 542,-462.5 542,-462.5 542,-468.5 536,-474.5 530,-474.5 530,-474.5 500,-474.5 500,-474.5 494,-474.5 488,-468.5 488,-462.5 488,-462.5 488,-450.5 488,-450.5 488,-444.5 494,-438.5 500,-438.5"/>
<text text-anchor="middle" x="515" y="-452.8" font-family="Times,serif" font-size="14.00">and</text>
</g>
<!-- node_0x606000001f40&#45;&gt;node_0x606000002180 -->
<g id="edge20" class="edge">
<title>node_0x606000001f40&#45;&gt;node_0x606000002180</title>
<path fill="none" stroke="#1164b4" d="M455.88,-511.31C465.75,-502.33 477.98,-491.19 488.76,-481.39"/>
<polygon fill="#1164b4" stroke="#1164b4" points="491.25,-483.85 496.29,-474.53 486.54,-478.67 491.25,-483.85"/>
</g>
<!-- node_0x606000002000 -->
<g id="node17" class="node">
<title>node_0x606000002000</title>
<path fill="#9aceeb" stroke="black" d="M304,-365.5C304,-365.5 372,-365.5 372,-365.5 378,-365.5 384,-371.5 384,-377.5 384,-377.5 384,-389.5 384,-389.5 384,-395.5 378,-401.5 372,-401.5 372,-401.5 304,-401.5 304,-401.5 298,-401.5 292,-395.5 292,-389.5 292,-389.5 292,-377.5 292,-377.5 292,-371.5 298,-365.5 304,-365.5"/>
<text text-anchor="middle" x="338" y="-379.8" font-family="Times,serif" font-size="14.00">num_temp</text>
</g>
<!-- node_0x606000001fa0&#45;&gt;node_0x606000002000 -->
<g id="edge16" class="edge">
<title>node_0x606000001fa0&#45;&gt;node_0x606000002000</title>
<path fill="none" stroke="#e32636" d="M411.52,-438.31C398.89,-429.07 383.14,-417.54 369.47,-407.53"/>
<polygon fill="#e32636" stroke="#e32636" points="371.4,-404.61 361.26,-401.53 367.27,-410.26 371.4,-404.61"/>
</g>
<!-- node_0x606000002060 -->
<g id="node18" class="node">
<title>node_0x606000002060</title>
<path fill="#e6a8d7" stroke="black" d="M414,-365.5C414,-365.5 444,-365.5 444,-365.5 450,-365.5 456,-371.5 456,-377.5 456,-377.5 456,-389.5 456,-389.5 456,-395.5 450,-401.5 444,-401.5 444,-401.5 414,-401.5 414,-401.5 408,-401.5 402,-395.5 402,-389.5 402,-389.5 402,-377.5 402,-377.5 402,-371.5 408,-365.5 414,-365.5"/>
<text text-anchor="middle" x="429" y="-379.8" font-family="Times,serif" font-size="14.00">&#45;</text>
</g>
<!-- node_0x606000001fa0&#45;&gt;node_0x606000002060 -->
<g id="edge17" class="edge">
<title>node_0x606000001fa0&#45;&gt;node_0x606000002060</title>
<path fill="none" stroke="#1164b4" d="M433.55,-438.31C432.87,-430.29 432.05,-420.55 431.29,-411.57"/>
<polygon fill="#1164b4" stroke="#1164b4" points="434.77,-411.2 430.44,-401.53 427.79,-411.79 434.77,-411.2"/>
</g>
<!-- node_0x6060000020c0 -->
<g id="node19" class="node">
<title>node_0x6060000020c0</title>
<path fill="#9aceeb" stroke="black" d="M338,-292.5C338,-292.5 368,-292.5 368,-292.5 374,-292.5 380,-298.5 380,-304.5 380,-304.5 380,-316.5 380,-316.5 380,-322.5 374,-328.5 368,-328.5 368,-328.5 338,-328.5 338,-328.5 332,-328.5 326,-322.5 326,-316.5 326,-316.5 326,-304.5 326,-304.5 326,-298.5 332,-292.5 338,-292.5"/>
<text text-anchor="middle" x="353" y="-306.8" font-family="Times,serif" font-size="14.00">num</text>
</g>
<!-- node_0x606000002060&#45;&gt;node_0x6060000020c0 -->
<g id="edge18" class="edge">
<title>node_0x606000002060&#45;&gt;node_0x6060000020c0</title>
<path fill="none" stroke="#e32636" d="M410.6,-365.31C400.99,-356.33 389.07,-345.19 378.57,-335.39"/>
<polygon fill="#e32636" stroke="#e32636" points="380.92,-332.8 371.23,-328.53 376.15,-337.91 380.92,-332.8"/>
</g>
<!-- node_0x606000002120 -->
<g id="node20" class="node">
<title>node_0x606000002120</title>
<path fill="#ddb9e9" stroke="black" d="M410,-292.5C410,-292.5 440,-292.5 440,-292.5 446,-292.5 452,-298.5 452,-304.5 452,-304.5 452,-316.5 452,-316.5 452,-322.5 446,-328.5 440,-328.5 440,-328.5 410,-328.5 410,-328.5 404,-328.5 398,-322.5 398,-316.5 398,-316.5 398,-304.5 398,-304.5 398,-298.5 404,-292.5 410,-292.5"/>
<text text-anchor="middle" x="425" y="-306.8" font-family="Times,serif" font-size="14.00">1</text>
</g>
<!-- node_0x606000002060&#45;&gt;node_0x606000002120 -->
<g id="edge19" class="edge">
<title>node_0x606000002060&#45;&gt;node_0x606000002120</title>
<path fill="none" stroke="#1164b4" d="M428.03,-365.31C427.58,-357.29 427.03,-347.55 426.53,-338.57"/>
<polygon fill="#1164b4" stroke="#1164b4" points="430.02,-338.32 425.96,-328.53 423.03,-338.71 430.02,-338.32"/>
</g>
<!-- node_0x6060000021e0 -->
<g id="node22" class="node">
<title>node_0x6060000021e0</title>
<path fill="#f0ffff" stroke="black" d="M493,-365.5C493,-365.5 537,-365.5 537,-365.5 543,-365.5 549,-371.5 549,-377.5 549,-377.5 549,-389.5 549,-389.5 549,-395.5 543,-401.5 537,-401.5 537,-401.5 493,-401.5 493,-401.5 487,-401.5 481,-395.5 481,-389.5 481,-389.5 481,-377.5 481,-377.5 481,-371.5 487,-365.5 493,-365.5"/>
<text text-anchor="middle" x="515" y="-379.8" font-family="Times,serif" font-size="14.00">var init</text>
</g>
<!-- node_0x606000002180&#45;&gt;node_0x6060000021e0 -->
<g id="edge21" class="edge">
<title>node_0x606000002180&#45;&gt;node_0x6060000021e0</title>
<path fill="none" stroke="#e32636" d="M515,-438.31C515,-430.29 515,-420.55 515,-411.57"/>
<polygon fill="#e32636" stroke="#e32636" points="518.5,-411.53 515,-401.53 511.5,-411.53 518.5,-411.53"/>
</g>
<!-- node_0x606000002300 -->
<g id="node25" class="node">
<title>node_0x606000002300</title>
<path fill="#c6df90" stroke="black" d="M641,-365.5C641,-365.5 671,-365.5 671,-365.5 677,-365.5 683,-371.5 683,-377.5 683,-377.5 683,-389.5 683,-389.5 683,-395.5 677,-401.5 671,-401.5 671,-401.5 641,-401.5 641,-401.5 635,-401.5 629,-395.5 629,-389.5 629,-389.5 629,-377.5 629,-377.5 629,-371.5 635,-365.5 641,-365.5"/>
<text text-anchor="middle" x="656" y="-379.8" font-family="Times,serif" font-size="14.00">and</text>
</g>
<!-- node_0x606000002180&#45;&gt;node_0x606000002300 -->
<g id="edge24" class="edge">
<title>node_0x606000002180&#45;&gt;node_0x606000002300</title>
<path fill="none" stroke="#1164b4" d="M542.19,-441.81C564.23,-430.71 595.49,-414.97 619.68,-402.79"/>
<polygon fill="#1164b4" stroke="#1164b4" points="621.54,-405.77 628.9,-398.15 618.39,-399.52 621.54,-405.77"/>
</g>
<!-- node_0x606000002240 -->
<g id="node23" class="node">
<title>node_0x606000002240</title>
<path fill="#9aceeb" stroke="black" d="M482.5,-292.5C482.5,-292.5 545.5,-292.5 545.5,-292.5 551.5,-292.5 557.5,-298.5 557.5,-304.5 557.5,-304.5 557.5,-316.5 557.5,-316.5 557.5,-322.5 551.5,-328.5 545.5,-328.5 545.5,-328.5 482.5,-328.5 482.5,-328.5 476.5,-328.5 470.5,-322.5 470.5,-316.5 470.5,-316.5 470.5,-304.5 470.5,-304.5 470.5,-298.5 476.5,-292.5 482.5,-292.5"/>
<text text-anchor="middle" x="514" y="-306.8" font-family="Times,serif" font-size="14.00">fact_temp</text>
</g>
<!-- node_0x6060000021e0&#45;&gt;node_0x606000002240 -->
<g id="edge22" class="edge">
<title>node_0x6060000021e0&#45;&gt;node_0x606000002240</title>
<path fill="none" stroke="#e32636" d="M514.76,-365.31C514.64,-357.29 514.51,-347.55 514.38,-338.57"/>
<polygon fill="#e32636" stroke="#e32636" points="517.88,-338.48 514.24,-328.53 510.88,-338.58 517.88,-338.48"/>
</g>
<!-- node_0x6060000022a0 -->
<g id="node24" class="node">
<title>node_0x6060000022a0</title>
<path fill="#ddb9e9" stroke="black" d="M588,-292.5C588,-292.5 618,-292.5 618,-292.5 624,-292.5 630,-298.5 630,-304.5 630,-304.5 630,-316.5 630,-316.5 630,-322.5 624,-328.5 618,-328.5 618,-328.5 588,-328.5 588,-328.5 582,-328.5 576,-322.5 576,-316.5 576,-316.5 576,-304.5 576,-304.5 576,-298.5 582,-292.5 588,-292.5"/>
<text text-anchor="middle" x="603" y="-306.8" font-family="Times,serif" font-size="14.00">0</text>
</g>
<!-- node_0x6060000021e0&#45;&gt;node_0x6060000022a0 -->
<g id="edge23" class="edge">
<title>node_0x6060000021e0&#45;&gt;node_0x6060000022a0</title>
<path fill="none" stroke="#1164b4" d="M536.3,-365.31C547.65,-356.16 561.78,-344.76 574.1,-334.82"/>
<polygon fill="#1164b4" stroke="#1164b4" points="576.31,-337.53 581.89,-328.53 571.91,-332.08 576.31,-337.53"/>
</g>
<!-- node_0x606000002360 -->
<g id="node26" class="node">
<title>node_0x606000002360</title>
<path fill="#f0ffff" stroke="black" d="M660,-292.5C660,-292.5 690,-292.5 690,-292.5 696,-292.5 702,-298.5 702,-304.5 702,-304.5 702,-316.5 702,-316.5 702,-322.5 696,-328.5 690,-328.5 690,-328.5 660,-328.5 660,-328.5 654,-328.5 648,-322.5 648,-316.5 648,-316.5 648,-304.5 648,-304.5 648,-298.5 654,-292.5 660,-292.5"/>
<text text-anchor="middle" x="675" y="-306.8" font-family="Times,serif" font-size="14.00">=</text>
</g>
<!-- node_0x606000002300&#45;&gt;node_0x606000002360 -->
<g id="edge25" class="edge">
<title>node_0x606000002300&#45;&gt;node_0x606000002360</title>
<path fill="none" stroke="#e32636" d="M660.6,-365.31C662.77,-357.2 665.41,-347.34 667.83,-338.28"/>
<polygon fill="#e32636" stroke="#e32636" points="671.24,-339.09 670.44,-328.53 664.48,-337.28 671.24,-339.09"/>
</g>
<!-- node_0x6060000024e0 -->
<g id="node30" class="node">
<title>node_0x6060000024e0</title>
<path fill="#c6df90" stroke="black" d="M750,-292.5C750,-292.5 780,-292.5 780,-292.5 786,-292.5 792,-298.5 792,-304.5 792,-304.5 792,-316.5 792,-316.5 792,-322.5 786,-328.5 780,-328.5 780,-328.5 750,-328.5 750,-328.5 744,-328.5 738,-322.5 738,-316.5 738,-316.5 738,-304.5 738,-304.5 738,-298.5 744,-292.5 750,-292.5"/>
<text text-anchor="middle" x="765" y="-306.8" font-family="Times,serif" font-size="14.00">and</text>
</g>
<!-- node_0x606000002300&#45;&gt;node_0x6060000024e0 -->
<g id="edge29" class="edge">
<title>node_0x606000002300&#45;&gt;node_0x6060000024e0</title>
<path fill="none" stroke="#1164b4" d="M682.11,-365.49C696.56,-356.08 714.71,-344.26 730.34,-334.07"/>
<polygon fill="#1164b4" stroke="#1164b4" points="732.26,-337 738.73,-328.61 728.44,-331.14 732.26,-337"/>
</g>
<!-- node_0x6060000023c0 -->
<g id="node27" class="node">
<title>node_0x6060000023c0</title>
<path fill="#9aceeb" stroke="black" d="M554.5,-219.5C554.5,-219.5 617.5,-219.5 617.5,-219.5 623.5,-219.5 629.5,-225.5 629.5,-231.5 629.5,-231.5 629.5,-243.5 629.5,-243.5 629.5,-249.5 623.5,-255.5 617.5,-255.5 617.5,-255.5 554.5,-255.5 554.5,-255.5 548.5,-255.5 542.5,-249.5 542.5,-243.5 542.5,-243.5 542.5,-231.5 542.5,-231.5 542.5,-225.5 548.5,-219.5 554.5,-219.5"/>
<text text-anchor="middle" x="586" y="-233.8" font-family="Times,serif" font-size="14.00">fact_temp</text>
</g>
<!-- node_0x606000002360&#45;&gt;node_0x6060000023c0 -->
<g id="edge26" class="edge">
<title>node_0x606000002360&#45;&gt;node_0x6060000023c0</title>
<path fill="none" stroke="#e32636" d="M653.46,-292.31C641.98,-283.16 627.69,-271.76 615.23,-261.82"/>
<polygon fill="#e32636" stroke="#e32636" points="617.35,-259.03 607.35,-255.53 612.98,-264.5 617.35,-259.03"/>
</g>
<!-- node_0x606000002420 -->
<g id="node28" class="node">
<title>node_0x606000002420</title>
<path fill="#f0ffff" stroke="black" d="M660,-219.5C660,-219.5 690,-219.5 690,-219.5 696,-219.5 702,-225.5 702,-231.5 702,-231.5 702,-243.5 702,-243.5 702,-249.5 696,-255.5 690,-255.5 690,-255.5 660,-255.5 660,-255.5 654,-255.5 648,-249.5 648,-243.5 648,-243.5 648,-231.5 648,-231.5 648,-225.5 654,-219.5 660,-219.5"/>
<text text-anchor="middle" x="675" y="-233.8" font-family="Times,serif" font-size="14.00">fact</text>
</g>
<!-- node_0x606000002360&#45;&gt;node_0x606000002420 -->
<g id="edge27" class="edge">
<title>node_0x606000002360&#45;&gt;node_0x606000002420</title>
<path fill="none" stroke="#1164b4" d="M675,-292.31C675,-284.29 675,-274.55 675,-265.57"/>
<polygon fill="#1164b4" stroke="#1164b4" points="678.5,-265.53 675,-255.53 671.5,-265.53 678.5,-265.53"/>
</g>
<!-- node_0x606000002480 -->
<g id="node29" class="node">
<title>node_0x606000002480</title>
<path fill="#9aceeb" stroke="black" d="M598,-146.5C598,-146.5 666,-146.5 666,-146.5 672,-146.5 678,-152.5 678,-158.5 678,-158.5 678,-170.5 678,-170.5 678,-176.5 672,-182.5 666,-182.5 666,-182.5 598,-182.5 598,-182.5 592,-182.5 586,-176.5 586,-170.5 586,-170.5 586,-158.5 586,-158.5 586,-152.5 592,-146.5 598,-146.5"/>
<text text-anchor="middle" x="632" y="-160.8" font-family="Times,serif" font-size="14.00">num_temp</text>
</g>
<!-- node_0x606000002420&#45;&gt;node_0x606000002480 -->
<g id="edge28" class="edge">
<title>node_0x606000002420&#45;&gt;node_0x606000002480</title>
<path fill="none" stroke="#e32636" d="M664.59,-219.31C659.47,-210.85 653.19,-200.48 647.51,-191.11"/>
<polygon fill="#e32636" stroke="#e32636" points="650.49,-189.27 642.31,-182.53 644.5,-192.9 650.49,-189.27"/>
</g>
<!-- node_0x606000002540 -->
<g id="node31" class="node">
<title>node_0x606000002540</title>
<path fill="#f0ffff" stroke="black" d="M750,-219.5C750,-219.5 780,-219.5 780,-219.5 786,-219.5 792,-225.5 792,-231.5 792,-231.5 792,-243.5 792,-243.5 792,-249.5 786,-255.5 780,-255.5 780,-255.5 750,-255.5 750,-255.5 744,-255.5 738,-249.5 738,-243.5 738,-243.5 738,-231.5 738,-231.5 738,-225.5 744,-219.5 750,-219.5"/>
<text text-anchor="middle" x="765" y="-233.8" font-family="Times,serif" font-size="14.00">=</text>
</g>
<!-- node_0x6060000024e0&#45;&gt;node_0x606000002540 -->
<g id="edge30" class="edge">
<title>node_0x6060000024e0&#45;&gt;node_0x606000002540</title>
<path fill="none" stroke="#e32636" d="M765,-292.31C765,-284.29 765,-274.55 765,-265.57"/>
<polygon fill="#e32636" stroke="#e32636" points="768.5,-265.53 765,-255.53 761.5,-265.53 768.5,-265.53"/>
</g>
<!-- node_0x6060000027e0 -->
<g id="node38" class="node">
<title>node_0x6060000027e0</title>
<path fill="#f0ffff" stroke="black" d="M873,-219.5C873,-219.5 911,-219.5 911,-219.5 917,-219.5 923,-225.5 923,-231.5 923,-231.5 923,-243.5 923,-243.5 923,-249.5 917,-255.5 911,-255.5 911,-255.5 873,-255.5 873,-255.5 867,-255.5 861,-249.5 861,-243.5 861,-243.5 861,-231.5 861,-231.5 861,-225.5 867,-219.5 873,-219.5"/>
<text text-anchor="middle" x="892" y="-233.8" font-family="Times,serif" font-size="14.00">return</text>
</g>
<!-- node_0x6060000024e0&#45;&gt;node_0x6060000027e0 -->
<g id="edge37" class="edge">
<title>node_0x6060000024e0&#45;&gt;node_0x6060000027e0</title>
<path fill="none" stroke="#1164b4" d="M792.24,-294.27C809.74,-284.49 832.75,-271.63 852.26,-260.72"/>
<polygon fill="#1164b4" stroke="#1164b4" points="854.21,-263.64 861.23,-255.7 850.8,-257.53 854.21,-263.64"/>
</g>
<!-- node_0x6060000025a0 -->
<g id="node32" class="node">
<title>node_0x6060000025a0</title>
<path fill="#9aceeb" stroke="black" d="M708.5,-146.5C708.5,-146.5 771.5,-146.5 771.5,-146.5 777.5,-146.5 783.5,-152.5 783.5,-158.5 783.5,-158.5 783.5,-170.5 783.5,-170.5 783.5,-176.5 777.5,-182.5 771.5,-182.5 771.5,-182.5 708.5,-182.5 708.5,-182.5 702.5,-182.5 696.5,-176.5 696.5,-170.5 696.5,-170.5 696.5,-158.5 696.5,-158.5 696.5,-152.5 702.5,-146.5 708.5,-146.5"/>
<text text-anchor="middle" x="740" y="-160.8" font-family="Times,serif" font-size="14.00">fact_temp</text>
</g>
<!-- node_0x606000002540&#45;&gt;node_0x6060000025a0 -->
<g id="edge31" class="edge">
<title>node_0x606000002540&#45;&gt;node_0x6060000025a0</title>
<path fill="none" stroke="#e32636" d="M758.95,-219.31C756.06,-211.12 752.54,-201.12 749.33,-191.98"/>
<polygon fill="#e32636" stroke="#e32636" points="752.62,-190.8 746,-182.53 746.02,-193.12 752.62,-190.8"/>
</g>
<!-- node_0x606000002600 -->
<g id="node33" class="node">
<title>node_0x606000002600</title>
<path fill="#e6a8d7" stroke="black" d="M814,-146.5C814,-146.5 844,-146.5 844,-146.5 850,-146.5 856,-152.5 856,-158.5 856,-158.5 856,-170.5 856,-170.5 856,-176.5 850,-182.5 844,-182.5 844,-182.5 814,-182.5 814,-182.5 808,-182.5 802,-176.5 802,-170.5 802,-170.5 802,-158.5 802,-158.5 802,-152.5 808,-146.5 814,-146.5"/>
<text text-anchor="middle" x="829" y="-160.8" font-family="Times,serif" font-size="14.00">*</text>
</g>
<!-- node_0x606000002540&#45;&gt;node_0x606000002600 -->
<g id="edge32" class="edge">
<title>node_0x606000002540&#45;&gt;node_0x606000002600</title>
<path fill="none" stroke="#1164b4" d="M780.49,-219.31C788.43,-210.5 798.24,-199.63 806.95,-189.96"/>
<polygon fill="#1164b4" stroke="#1164b4" points="809.55,-192.3 813.65,-182.53 804.35,-187.61 809.55,-192.3"/>
</g>
<!-- node_0x606000002660 -->
<g id="node34" class="node">
<title>node_0x606000002660</title>
<path fill="#9aceeb" stroke="black" d="M752.5,-73.5C752.5,-73.5 815.5,-73.5 815.5,-73.5 821.5,-73.5 827.5,-79.5 827.5,-85.5 827.5,-85.5 827.5,-97.5 827.5,-97.5 827.5,-103.5 821.5,-109.5 815.5,-109.5 815.5,-109.5 752.5,-109.5 752.5,-109.5 746.5,-109.5 740.5,-103.5 740.5,-97.5 740.5,-97.5 740.5,-85.5 740.5,-85.5 740.5,-79.5 746.5,-73.5 752.5,-73.5"/>
<text text-anchor="middle" x="784" y="-87.8" font-family="Times,serif" font-size="14.00">fact_temp</text>
</g>
<!-- node_0x606000002600&#45;&gt;node_0x606000002660 -->
<g id="edge33" class="edge">
<title>node_0x606000002600&#45;&gt;node_0x606000002660</title>
<path fill="none" stroke="#e32636" d="M818.11,-146.31C812.75,-137.85 806.17,-127.48 800.23,-118.11"/>
<polygon fill="#e32636" stroke="#e32636" points="803.1,-116.1 794.79,-109.53 797.19,-119.85 803.1,-116.1"/>
</g>
<!-- node_0x6060000026c0 -->
<g id="node35" class="node">
<title>node_0x6060000026c0</title>
<path fill="#e6a8d7" stroke="black" d="M858,-73.5C858,-73.5 888,-73.5 888,-73.5 894,-73.5 900,-79.5 900,-85.5 900,-85.5 900,-97.5 900,-97.5 900,-103.5 894,-109.5 888,-109.5 888,-109.5 858,-109.5 858,-109.5 852,-109.5 846,-103.5 846,-97.5 846,-97.5 846,-85.5 846,-85.5 846,-79.5 852,-73.5 858,-73.5"/>
<text text-anchor="middle" x="873" y="-87.8" font-family="Times,serif" font-size="14.00">+</text>
</g>
<!-- node_0x606000002600&#45;&gt;node_0x6060000026c0 -->
<g id="edge34" class="edge">
<title>node_0x606000002600&#45;&gt;node_0x6060000026c0</title>
<path fill="none" stroke="#1164b4" d="M839.65,-146.31C844.89,-137.85 851.32,-127.48 857.13,-118.11"/>
<polygon fill="#1164b4" stroke="#1164b4" points="860.15,-119.87 862.45,-109.53 854.2,-116.19 860.15,-119.87"/>
</g>
<!-- node_0x606000002720 -->
<g id="node36" class="node">
<title>node_0x606000002720</title>
<path fill="#9aceeb" stroke="black" d="M794,-0.5C794,-0.5 862,-0.5 862,-0.5 868,-0.5 874,-6.5 874,-12.5 874,-12.5 874,-24.5 874,-24.5 874,-30.5 868,-36.5 862,-36.5 862,-36.5 794,-36.5 794,-36.5 788,-36.5 782,-30.5 782,-24.5 782,-24.5 782,-12.5 782,-12.5 782,-6.5 788,-0.5 794,-0.5"/>
<text text-anchor="middle" x="828" y="-14.8" font-family="Times,serif" font-size="14.00">num_temp</text>
</g>
<!-- node_0x6060000026c0&#45;&gt;node_0x606000002720 -->
<g id="edge35" class="edge">
<title>node_0x6060000026c0&#45;&gt;node_0x606000002720</title>
<path fill="none" stroke="#e32636" d="M862.11,-73.31C856.75,-64.85 850.17,-54.48 844.23,-45.11"/>
<polygon fill="#e32636" stroke="#e32636" points="847.1,-43.1 838.79,-36.53 841.19,-46.85 847.1,-43.1"/>
</g>
<!-- node_0x606000002780 -->
<g id="node37" class="node">
<title>node_0x606000002780</title>
<path fill="#ddb9e9" stroke="black" d="M904,-0.5C904,-0.5 934,-0.5 934,-0.5 940,-0.5 946,-6.5 946,-12.5 946,-12.5 946,-24.5 946,-24.5 946,-30.5 940,-36.5 934,-36.5 934,-36.5 904,-36.5 904,-36.5 898,-36.5 892,-30.5 892,-24.5 892,-24.5 892,-12.5 892,-12.5 892,-6.5 898,-0.5 904,-0.5"/>
<text text-anchor="middle" x="919" y="-14.8" font-family="Times,serif" font-size="14.00">1</text>
</g>
<!-- node_0x6060000026c0&#45;&gt;node_0x606000002780 -->
<g id="edge36" class="edge">
<title>node_0x6060000026c0&#45;&gt;node_0x606000002780</title>
<path fill="none" stroke="#1164b4" d="M884.14,-73.31C889.62,-64.85 896.33,-54.48 902.41,-45.11"/>
<polygon fill="#1164b4" stroke="#1164b4" points="905.47,-46.82 907.97,-36.53 899.59,-43.02 905.47,-46.82"/>
</g>
<!-- node_0x606000002840 -->
<g id="node39" class="node">
<title>node_0x606000002840</title>
<path fill="#9aceeb" stroke="black" d="M886.5,-146.5C886.5,-146.5 949.5,-146.5 949.5,-146.5 955.5,-146.5 961.5,-152.5 961.5,-158.5 961.5,-158.5 961.5,-170.5 961.5,-170.5 961.5,-176.5 955.5,-182.5 949.5,-182.5 949.5,-182.5 886.5,-182.5 886.5,-182.5 880.5,-182.5 874.5,-176.5 874.5,-170.5 874.5,-170.5 874.5,-158.5 874.5,-158.5 874.5,-152.5 880.5,-146.5 886.5,-146.5"/>
<text text-anchor="middle" x="918" y="-160.8" font-family="Times,serif" font-size="14.00">fact_temp</text>
</g>
<!-- node_0x6060000027e0&#45;&gt;node_0x606000002840 -->
<g id="edge38" class="edge">
<title>node_0x6060000027e0&#45;&gt;node_0x606000002840</title>
<path fill="none" stroke="#e32636" d="M898.29,-219.31C901.3,-211.12 904.95,-201.12 908.3,-191.98"/>
<polygon fill="#e32636" stroke="#e32636" points="911.61,-193.12 911.76,-182.53 905.04,-190.72 911.61,-193.12"/>
</g>
<!-- node_0x606000001160 -->
<g id="node41" class="node">
<title>node_0x606000001160</title>
<path fill="#f0ffff" stroke="black" d="M452,-657.5C452,-657.5 496,-657.5 496,-657.5 502,-657.5 508,-663.5 508,-669.5 508,-669.5 508,-681.5 508,-681.5 508,-687.5 502,-693.5 496,-693.5 496,-693.5 452,-693.5 452,-693.5 446,-693.5 440,-687.5 440,-681.5 440,-681.5 440,-669.5 440,-669.5 440,-663.5 446,-657.5 452,-657.5"/>
<text text-anchor="middle" x="474" y="-671.8" font-family="Times,serif" font-size="14.00">var init</text>
</g>
<!-- node_0x6060000016a0&#45;&gt;node_0x606000001160 -->
<g id="edge40" class="edge">
<title>node_0x6060000016a0&#45;&gt;node_0x606000001160</title>
<path fill="none" stroke="#e32636" d="M474,-730.31C474,-722.29 474,-712.55 474,-703.57"/>
<polygon fill="#e32636" stroke="#e32636" points="477.5,-703.53 474,-693.53 470.5,-703.53 477.5,-703.53"/>
</g>
<!-- node_0x606000001640 -->
<g id="node44" class="node">
<title>node_0x606000001640</title>
<path fill="#c6df90" stroke="black" d="M576,-657.5C576,-657.5 606,-657.5 606,-657.5 612,-657.5 618,-663.5 618,-669.5 618,-669.5 618,-681.5 618,-681.5 618,-687.5 612,-693.5 606,-693.5 606,-693.5 576,-693.5 576,-693.5 570,-693.5 564,-687.5 564,-681.5 564,-681.5 564,-669.5 564,-669.5 564,-663.5 570,-657.5 576,-657.5"/>
<text text-anchor="middle" x="591" y="-671.8" font-family="Times,serif" font-size="14.00">and</text>
</g>
<!-- node_0x6060000016a0&#45;&gt;node_0x606000001640 -->
<g id="edge43" class="edge">
<title>node_0x6060000016a0&#45;&gt;node_0x606000001640</title>
<path fill="none" stroke="#1164b4" d="M501.14,-731.03C517.12,-721.33 537.53,-708.95 554.86,-698.43"/>
<polygon fill="#1164b4" stroke="#1164b4" points="556.87,-701.3 563.61,-693.12 553.24,-695.32 556.87,-701.3"/>
</g>
<!-- node_0x6060000010a0 -->
<g id="node42" class="node">
<title>node_0x6060000010a0</title>
<path fill="#9aceeb" stroke="black" d="M420,-584.5C420,-584.5 450,-584.5 450,-584.5 456,-584.5 462,-590.5 462,-596.5 462,-596.5 462,-608.5 462,-608.5 462,-614.5 456,-620.5 450,-620.5 450,-620.5 420,-620.5 420,-620.5 414,-620.5 408,-614.5 408,-608.5 408,-608.5 408,-596.5 408,-596.5 408,-590.5 414,-584.5 420,-584.5"/>
<text text-anchor="middle" x="435" y="-598.8" font-family="Times,serif" font-size="14.00">x</text>
</g>
<!-- node_0x606000001160&#45;&gt;node_0x6060000010a0 -->
<g id="edge41" class="edge">
<title>node_0x606000001160&#45;&gt;node_0x6060000010a0</title>
<path fill="none" stroke="#e32636" d="M464.56,-657.31C459.96,-648.94 454.33,-638.7 449.23,-629.4"/>
<polygon fill="#e32636" stroke="#e32636" points="452.24,-627.61 444.35,-620.53 446.1,-630.98 452.24,-627.61"/>
</g>
<!-- node_0x606000001100 -->
<g id="node43" class="node">
<title>node_0x606000001100</title>
<path fill="#ddb9e9" stroke="black" d="M492,-584.5C492,-584.5 522,-584.5 522,-584.5 528,-584.5 534,-590.5 534,-596.5 534,-596.5 534,-608.5 534,-608.5 534,-614.5 528,-620.5 522,-620.5 522,-620.5 492,-620.5 492,-620.5 486,-620.5 480,-614.5 480,-608.5 480,-608.5 480,-596.5 480,-596.5 480,-590.5 486,-584.5 492,-584.5"/>
<text text-anchor="middle" x="507" y="-598.8" font-family="Times,serif" font-size="14.00">0</text>
</g>
<!-- node_0x606000001160&#45;&gt;node_0x606000001100 -->
<g id="edge42" class="edge">
<title>node_0x606000001160&#45;&gt;node_0x606000001100</title>
<path fill="none" stroke="#1164b4" d="M481.99,-657.31C485.84,-649.03 490.54,-638.91 494.83,-629.69"/>
<polygon fill="#1164b4" stroke="#1164b4" points="498.04,-631.07 499.09,-620.53 491.7,-628.12 498.04,-631.07"/>
</g>
<!-- node_0x606000001220 -->
<g id="node45" class="node">
<title>node_0x606000001220</title>
<path fill="#f0ffff" stroke="black" d="M576,-584.5C576,-584.5 606,-584.5 606,-584.5 612,-584.5 618,-590.5 618,-596.5 618,-596.5 618,-608.5 618,-608.5 618,-614.5 612,-620.5 606,-620.5 606,-620.5 576,-620.5 576,-620.5 570,-620.5 564,-614.5 564,-608.5 564,-608.5 564,-596.5 564,-596.5 564,-590.5 570,-584.5 576,-584.5"/>
<text text-anchor="middle" x="591" y="-598.8" font-family="Times,serif" font-size="14.00">scanf</text>
</g>
<!-- node_0x606000001640&#45;&gt;node_0x606000001220 -->
<g id="edge44" class="edge">
<title>node_0x606000001640&#45;&gt;node_0x606000001220</title>
<path fill="none" stroke="#e32636" d="M591,-657.31C591,-649.29 591,-639.55 591,-630.57"/>
<polygon fill="#e32636" stroke="#e32636" points="594.5,-630.53 591,-620.53 587.5,-630.53 594.5,-630.53"/>
</g>
<!-- node_0x6060000015e0 -->
<g id="node47" class="node">
<title>node_0x6060000015e0</title>
<path fill="#c6df90" stroke="black" d="M658,-584.5C658,-584.5 688,-584.5 688,-584.5 694,-584.5 700,-590.5 700,-596.5 700,-596.5 700,-608.5 700,-608.5 700,-614.5 694,-620.5 688,-620.5 688,-620.5 658,-620.5 658,-620.5 652,-620.5 646,-614.5 646,-608.5 646,-608.5 646,-596.5 646,-596.5 646,-590.5 652,-584.5 658,-584.5"/>
<text text-anchor="middle" x="673" y="-598.8" font-family="Times,serif" font-size="14.00">and</text>
</g>
<!-- node_0x606000001640&#45;&gt;node_0x6060000015e0 -->
<g id="edge46" class="edge">
<title>node_0x606000001640&#45;&gt;node_0x6060000015e0</title>
<path fill="none" stroke="#1164b4" d="M610.85,-657.31C621.33,-648.24 634.34,-636.98 645.74,-627.1"/>
<polygon fill="#1164b4" stroke="#1164b4" points="648.06,-629.72 653.33,-620.53 643.48,-624.43 648.06,-629.72"/>
</g>
<!-- node_0x6060000011c0 -->
<g id="node46" class="node">
<title>node_0x6060000011c0</title>
<path fill="#9aceeb" stroke="black" d="M576,-511.5C576,-511.5 606,-511.5 606,-511.5 612,-511.5 618,-517.5 618,-523.5 618,-523.5 618,-535.5 618,-535.5 618,-541.5 612,-547.5 606,-547.5 606,-547.5 576,-547.5 576,-547.5 570,-547.5 564,-541.5 564,-535.5 564,-535.5 564,-523.5 564,-523.5 564,-517.5 570,-511.5 576,-511.5"/>
<text text-anchor="middle" x="591" y="-525.8" font-family="Times,serif" font-size="14.00">x</text>
</g>
<!-- node_0x606000001220&#45;&gt;node_0x6060000011c0 -->
<g id="edge45" class="edge">
<title>node_0x606000001220&#45;&gt;node_0x6060000011c0</title>
<path fill="none" stroke="#e32636" d="M591,-584.31C591,-576.29 591,-566.55 591,-557.57"/>
<polygon fill="#e32636" stroke="#e32636" points="594.5,-557.53 591,-547.53 587.5,-557.53 594.5,-557.53"/>
</g>
<!-- node_0x606000001460 -->
<g id="node48" class="node">
<title>node_0x606000001460</title>
<path fill="#f0ffff" stroke="black" d="M658,-511.5C658,-511.5 688,-511.5 688,-511.5 694,-511.5 700,-517.5 700,-523.5 700,-523.5 700,-535.5 700,-535.5 700,-541.5 694,-547.5 688,-547.5 688,-547.5 658,-547.5 658,-547.5 652,-547.5 646,-541.5 646,-535.5 646,-535.5 646,-523.5 646,-523.5 646,-517.5 652,-511.5 658,-511.5"/>
<text text-anchor="middle" x="673" y="-525.8" font-family="Times,serif" font-size="14.00">=</text>
</g>
<!-- node_0x6060000015e0&#45;&gt;node_0x606000001460 -->
<g id="edge47" class="edge">
<title>node_0x6060000015e0&#45;&gt;node_0x606000001460</title>
<path fill="none" stroke="#e32636" d="M673,-584.31C673,-576.29 673,-566.55 673,-557.57"/>
<polygon fill="#e32636" stroke="#e32636" points="676.5,-557.53 673,-547.53 669.5,-557.53 676.5,-557.53"/>
</g>
<!-- node_0x6060000029c0 -->
<g id="node52" class="node">
<title>node_0x6060000029c0</title>
<path fill="#f0ffff" stroke="black" d="M766,-511.5C766,-511.5 796,-511.5 796,-511.5 802,-511.5 808,-517.5 808,-523.5 808,-523.5 808,-535.5 808,-535.5 808,-541.5 802,-547.5 796,-547.5 796,-547.5 766,-547.5 766,-547.5 760,-547.5 754,-541.5 754,-535.5 754,-535.5 754,-523.5 754,-523.5 754,-517.5 760,-511.5 766,-511.5"/>
<text text-anchor="middle" x="781" y="-525.8" font-family="Times,serif" font-size="14.00">print</text>
</g>
<!-- node_0x6060000015e0&#45;&gt;node_0x6060000029c0 -->
<g id="edge51" class="edge">
<title>node_0x6060000015e0&#45;&gt;node_0x6060000029c0</title>
<path fill="none" stroke="#1164b4" d="M698.87,-584.49C713.06,-575.17 730.84,-563.47 746.23,-553.36"/>
<polygon fill="#1164b4" stroke="#1164b4" points="748.53,-556.03 754.97,-547.61 744.69,-550.18 748.53,-556.03"/>
</g>
<!-- node_0x606000001280 -->
<g id="node49" class="node">
<title>node_0x606000001280</title>
<path fill="#9aceeb" stroke="black" d="M640,-438.5C640,-438.5 670,-438.5 670,-438.5 676,-438.5 682,-444.5 682,-450.5 682,-450.5 682,-462.5 682,-462.5 682,-468.5 676,-474.5 670,-474.5 670,-474.5 640,-474.5 640,-474.5 634,-474.5 628,-468.5 628,-462.5 628,-462.5 628,-450.5 628,-450.5 628,-444.5 634,-438.5 640,-438.5"/>
<text text-anchor="middle" x="655" y="-452.8" font-family="Times,serif" font-size="14.00">x</text>
</g>
<!-- node_0x606000001460&#45;&gt;node_0x606000001280 -->
<g id="edge48" class="edge">
<title>node_0x606000001460&#45;&gt;node_0x606000001280</title>
<path fill="none" stroke="#e32636" d="M668.64,-511.31C666.59,-503.2 664.09,-493.34 661.79,-484.28"/>
<polygon fill="#e32636" stroke="#e32636" points="665.17,-483.36 659.32,-474.53 658.38,-485.08 665.17,-483.36"/>
</g>
<!-- node_0x606000002900 -->
<g id="node50" class="node">
<title>node_0x606000002900</title>
<path fill="#f0ffff" stroke="black" d="M712,-438.5C712,-438.5 742,-438.5 742,-438.5 748,-438.5 754,-444.5 754,-450.5 754,-450.5 754,-462.5 754,-462.5 754,-468.5 748,-474.5 742,-474.5 742,-474.5 712,-474.5 712,-474.5 706,-474.5 700,-468.5 700,-462.5 700,-462.5 700,-450.5 700,-450.5 700,-444.5 706,-438.5 712,-438.5"/>
<text text-anchor="middle" x="727" y="-452.8" font-family="Times,serif" font-size="14.00">fact</text>
</g>
<!-- node_0x606000001460&#45;&gt;node_0x606000002900 -->
<g id="edge49" class="edge">
<title>node_0x606000001460&#45;&gt;node_0x606000002900</title>
<path fill="none" stroke="#1164b4" d="M686.07,-511.31C692.64,-502.68 700.72,-492.06 707.96,-482.53"/>
<polygon fill="#1164b4" stroke="#1164b4" points="710.78,-484.61 714.05,-474.53 705.21,-480.37 710.78,-484.61"/>
</g>
<!-- node_0x606000002960 -->
<g id="node51" class="node">
<title>node_0x606000002960</title>
<path fill="#9aceeb" stroke="black" d="M713,-365.5C713,-365.5 743,-365.5 743,-365.5 749,-365.5 755,-371.5 755,-377.5 755,-377.5 755,-389.5 755,-389.5 755,-395.5 749,-401.5 743,-401.5 743,-401.5 713,-401.5 713,-401.5 707,-401.5 701,-395.5 701,-389.5 701,-389.5 701,-377.5 701,-377.5 701,-371.5 707,-365.5 713,-365.5"/>
<text text-anchor="middle" x="728" y="-379.8" font-family="Times,serif" font-size="14.00">x</text>
</g>
<!-- node_0x606000002900&#45;&gt;node_0x606000002960 -->
<g id="edge50" class="edge">
<title>node_0x606000002900&#45;&gt;node_0x606000002960</title>
<path fill="none" stroke="#e32636" d="M727.24,-438.31C727.36,-430.29 727.49,-420.55 727.62,-411.57"/>
<polygon fill="#e32636" stroke="#e32636" points="731.12,-411.58 727.76,-401.53 724.12,-411.48 731.12,-411.58"/>
</g>
<!-- node_0x606000002a20 -->
<g id="node53" class="node">
<title>node_0x606000002a20</title>
<path fill="#9aceeb" stroke="black" d="M784,-438.5C784,-438.5 814,-438.5 814,-438.5 820,-438.5 826,-444.5 826,-450.5 826,-450.5 826,-462.5 826,-462.5 826,-468.5 820,-474.5 814,-474.5 814,-474.5 784,-474.5 784,-474.5 778,-474.5 772,-468.5 772,-462.5 772,-462.5 772,-450.5 772,-450.5 772,-444.5 778,-438.5 784,-438.5"/>
<text text-anchor="middle" x="799" y="-452.8" font-family="Times,serif" font-size="14.00">x</text>
</g>
<!-- node_0x6060000029c0&#45;&gt;node_0x606000002a20 -->
<g id="edge52" class="edge">
<title>node_0x6060000029c0&#45;&gt;node_0x606000002a20</title>
<path fill="none" stroke="#e32636" d="M785.36,-511.31C787.41,-503.2 789.91,-493.34 792.21,-484.28"/>
<polygon fill="#e32636" stroke="#e32636" points="795.62,-485.08 794.68,-474.53 788.83,-483.36 795.62,-485.08"/>
</g>
</g>
</svg>
