<?xml version="1.0" encoding="UTF-8" standalone="no"?>
<!DOCTYPE svg PUBLIC "-//W3C//DTD SVG 1.1//EN"
 "http://www.w3.org/Graphics/SVG/1.1/DTD/svg11.dtd">
<!-- Generated by graphviz version 2.43.0 (0)
 -->
<!-- Title: %3 Pages: 1 -->
<svg width="718pt" height="848pt"
 viewBox="0.00 0.00 718.00 848.00" xmlns="http://www.w3.org/2000/svg" xmlns:xlink="http://www.w3.org/1999/xlink">
<g id="graph0" class="graph" transform="scale(1 1) rotate(0) translate(4 844)">
<title>%3</title>
<polygon fill="white" stroke="transparent" points="-4,4 -4,-844 714,-844 714,4 -4,4"/>
<!-- node_0x606000001340 -->
<g id="node1" class="node">
<title>node_0x606000001340</title>
<path fill="#c6df90" stroke="black" d="M253,-803.5C253,-803.5 283,-803.5 283,-803.5 289,-803.5 295,-809.5 295,-815.5 295,-815.5 295,-827.5 295,-827.5 295,-833.5 289,-839.5 283,-839.5 283,-839.5 253,-839.5 253,-839.5 247,-839.5 241,-833.5 241,-827.5 241,-827.5 241,-815.5 241,-815.5 241,-809.5 247,-803.5 253,-803.5"/>
<text text-anchor="middle" x="268" y="-817.8" font-family="Times,serif" font-size="14.00">and</text>
</g>
<!-- node_0x606000000c80 -->
<g id="node2" class="node">
<title>node_0x606000000c80</title>
<path fill="#c6df90" stroke="black" d="M217,-730.5C217,-730.5 247,-730.5 247,-730.5 253,-730.5 259,-736.5 259,-742.5 259,-742.5 259,-754.5 259,-754.5 259,-760.5 253,-766.5 247,-766.5 247,-766.5 217,-766.5 217,-766.5 211,-766.5 205,-760.5 205,-754.5 205,-754.5 205,-742.5 205,-742.5 205,-736.5 211,-730.5 217,-730.5"/>
<text text-anchor="middle" x="232" y="-744.8" font-family="Times,serif" font-size="14.00">and</text>
</g>
<!-- node_0x606000001340&#45;&gt;node_0x606000000c80 -->
<g id="edge1" class="edge">
<title>node_0x606000001340&#45;&gt;node_0x606000000c80</title>
<path fill="none" stroke="#e32636" d="M259.29,-803.31C255.08,-795.03 249.95,-784.91 245.28,-775.69"/>
<polygon fill="#e32636" stroke="#e32636" points="248.28,-773.87 240.63,-766.53 242.04,-777.03 248.28,-773.87"/>
</g>
<!-- node_0x6060000012e0 -->
<g id="node36" class="node">
<title>node_0x6060000012e0</title>
<path fill="#c6df90" stroke="black" d="M292,-730.5C292,-730.5 322,-730.5 322,-730.5 328,-730.5 334,-736.5 334,-742.5 334,-742.5 334,-754.5 334,-754.5 334,-760.5 328,-766.5 322,-766.5 322,-766.5 292,-766.5 292,-766.5 286,-766.5 280,-760.5 280,-754.5 280,-754.5 280,-742.5 280,-742.5 280,-736.5 286,-730.5 292,-730.5"/>
<text text-anchor="middle" x="307" y="-744.8" font-family="Times,serif" font-size="14.00">and</text>
</g>
<!-- node_0x606000001340&#45;&gt;node_0x6060000012e0 -->
<g id="edge35" class="edge">
<title>node_0x606000001340&#45;&gt;node_0x6060000012e0</title>
<path fill="none" stroke="#1164b4" d="M277.44,-803.31C282.04,-794.94 287.67,-784.7 292.77,-775.4"/>
<polygon fill="#1164b4" stroke="#1164b4" points="295.9,-776.98 297.65,-766.53 289.76,-773.61 295.9,-776.98"/>
</g>
<!-- node_0x606000000c20 -->
<g id="node3" class="node">
<title>node_0x606000000c20</title>
<path fill="#f0ffff" stroke="black" d="M185,-657.5C185,-657.5 215,-657.5 215,-657.5 221,-657.5 227,-663.5 227,-669.5 227,-669.5 227,-681.5 227,-681.5 227,-687.5 221,-693.5 215,-693.5 215,-693.5 185,-693.5 185,-693.5 179,-693.5 173,-687.5 173,-681.5 173,-681.5 173,-669.5 173,-669.5 173,-663.5 179,-657.5 185,-657.5"/>
<text text-anchor="middle" x="200" y="-671.8" font-family="Times,serif" font-size="14.00">fact</text>
</g>
<!-- node_0x606000000c80&#45;&gt;node_0x606000000c20 -->
<g id="edge2" class="edge">
<title>node_0x606000000c80&#45;&gt;node_0x606000000c20</title>
<path fill="none" stroke="#e32636" d="M224.25,-730.31C220.52,-722.03 215.96,-711.91 211.81,-702.69"/>
<polygon fill="#e32636" stroke="#e32636" points="214.97,-701.21 207.67,-693.53 208.59,-704.08 214.97,-701.21"/>
</g>
<!-- node_0x606000000080 -->
<g id="node4" class="node">
<title>node_0x606000000080</title>
<path fill="#c6df90" stroke="black" d="M113,-584.5C113,-584.5 143,-584.5 143,-584.5 149,-584.5 155,-590.5 155,-596.5 155,-596.5 155,-608.5 155,-608.5 155,-614.5 149,-620.5 143,-620.5 143,-620.5 113,-620.5 113,-620.5 107,-620.5 101,-614.5 101,-608.5 101,-608.5 101,-596.5 101,-596.5 101,-590.5 107,-584.5 113,-584.5"/>
<text text-anchor="middle" x="128" y="-598.8" font-family="Times,serif" font-size="14.00">and</text>
</g>
<!-- node_0x606000000c20&#45;&gt;node_0x606000000080 -->
<g id="edge3" class="edge">
<title>node_0x606000000c20&#45;&gt;node_0x606000000080</title>
<path fill="none" stroke="#e32636" d="M182.57,-657.31C173.55,-648.42 162.39,-637.41 152.51,-627.67"/>
<polygon fill="#e32636" stroke="#e32636" points="154.85,-625.06 145.27,-620.53 149.93,-630.04 154.85,-625.06"/>
</g>
<!-- node_0x606000000bc0 -->
<g id="node6" class="node">
<title>node_0x606000000bc0</title>
<path fill="#c6df90" stroke="black" d="M185,-584.5C185,-584.5 215,-584.5 215,-584.5 221,-584.5 227,-590.5 227,-596.5 227,-596.5 227,-608.5 227,-608.5 227,-614.5 221,-620.5 215,-620.5 215,-620.5 185,-620.5 185,-620.5 179,-620.5 173,-614.5 173,-608.5 173,-608.5 173,-596.5 173,-596.5 173,-590.5 179,-584.5 185,-584.5"/>
<text text-anchor="middle" x="200" y="-598.8" font-family="Times,serif" font-size="14.00">and</text>
</g>
<!-- node_0x606000000c20&#45;&gt;node_0x606000000bc0 -->
<g id="edge5" class="edge">
<title>node_0x606000000c20&#45;&gt;node_0x606000000bc0</title>
<path fill="none" stroke="#1164b4" d="M200,-657.31C200,-649.29 200,-639.55 200,-630.57"/>
<polygon fill="#1164b4" stroke="#1164b4" points="203.5,-630.53 200,-620.53 196.5,-630.53 203.5,-630.53"/>
</g>
<!-- node_0x606000000020 -->
<g id="node5" class="node">
<title>node_0x606000000020</title>
<path fill="#9aceeb" stroke="black" d="M106,-511.5C106,-511.5 136,-511.5 136,-511.5 142,-511.5 148,-517.5 148,-523.5 148,-523.5 148,-535.5 148,-535.5 148,-541.5 142,-547.5 136,-547.5 136,-547.5 106,-547.5 106,-547.5 100,-547.5 94,-541.5 94,-535.5 94,-535.5 94,-523.5 94,-523.5 94,-517.5 100,-511.5 106,-511.5"/>
<text text-anchor="middle" x="121" y="-525.8" font-family="Times,serif" font-size="14.00">num</text>
</g>
<!-- node_0x606000000080&#45;&gt;node_0x606000000020 -->
<g id="edge4" class="edge">
<title>node_0x606000000080&#45;&gt;node_0x606000000020</title>
<path fill="none" stroke="#e32636" d="M126.31,-584.31C125.51,-576.29 124.55,-566.55 123.67,-557.57"/>
<polygon fill="#e32636" stroke="#e32636" points="127.14,-557.14 122.68,-547.53 120.18,-557.82 127.14,-557.14"/>
</g>
<!-- node_0x606000000320 -->
<g id="node7" class="node">
<title>node_0x606000000320</title>
<path fill="#f0ffff" stroke="black" d="M178,-511.5C178,-511.5 208,-511.5 208,-511.5 214,-511.5 220,-517.5 220,-523.5 220,-523.5 220,-535.5 220,-535.5 220,-541.5 214,-547.5 208,-547.5 208,-547.5 178,-547.5 178,-547.5 172,-547.5 166,-541.5 166,-535.5 166,-535.5 166,-523.5 166,-523.5 166,-517.5 172,-511.5 178,-511.5"/>
<text text-anchor="middle" x="193" y="-525.8" font-family="Times,serif" font-size="14.00">if</text>
</g>
<!-- node_0x606000000bc0&#45;&gt;node_0x606000000320 -->
<g id="edge6" class="edge">
<title>node_0x606000000bc0&#45;&gt;node_0x606000000320</title>
<path fill="none" stroke="#e32636" d="M198.31,-584.31C197.51,-576.29 196.55,-566.55 195.67,-557.57"/>
<polygon fill="#e32636" stroke="#e32636" points="199.14,-557.14 194.68,-547.53 192.18,-557.82 199.14,-557.14"/>
</g>
<!-- node_0x606000000b60 -->
<g id="node14" class="node">
<title>node_0x606000000b60</title>
<path fill="#c6df90" stroke="black" d="M255,-511.5C255,-511.5 285,-511.5 285,-511.5 291,-511.5 297,-517.5 297,-523.5 297,-523.5 297,-535.5 297,-535.5 297,-541.5 291,-547.5 285,-547.5 285,-547.5 255,-547.5 255,-547.5 249,-547.5 243,-541.5 243,-535.5 243,-535.5 243,-523.5 243,-523.5 243,-517.5 249,-511.5 255,-511.5"/>
<text text-anchor="middle" x="270" y="-525.8" font-family="Times,serif" font-size="14.00">and</text>
</g>
<!-- node_0x606000000bc0&#45;&gt;node_0x606000000b60 -->
<g id="edge13" class="edge">
<title>node_0x606000000bc0&#45;&gt;node_0x606000000b60</title>
<path fill="none" stroke="#1164b4" d="M216.95,-584.31C225.72,-575.42 236.57,-564.41 246.17,-554.67"/>
<polygon fill="#1164b4" stroke="#1164b4" points="248.68,-557.11 253.21,-547.53 243.7,-552.19 248.68,-557.11"/>
</g>
<!-- node_0x6060000001a0 -->
<g id="node8" class="node">
<title>node_0x6060000001a0</title>
<path fill="#bdecb6" stroke="black" d="M68,-438.5C68,-438.5 130,-438.5 130,-438.5 136,-438.5 142,-444.5 142,-450.5 142,-450.5 142,-462.5 142,-462.5 142,-468.5 136,-474.5 130,-474.5 130,-474.5 68,-474.5 68,-474.5 62,-474.5 56,-468.5 56,-462.5 56,-462.5 56,-450.5 56,-450.5 56,-444.5 62,-438.5 68,-438.5"/>
<text text-anchor="middle" x="99" y="-452.8" font-family="Times,serif" font-size="14.00">less or eq</text>
</g>
<!-- node_0x606000000320&#45;&gt;node_0x6060000001a0 -->
<g id="edge7" class="edge">
<title>node_0x606000000320&#45;&gt;node_0x6060000001a0</title>
<path fill="none" stroke="#e32636" d="M170.25,-511.31C158.12,-502.16 143.03,-490.76 129.87,-480.82"/>
<polygon fill="#e32636" stroke="#e32636" points="131.63,-477.76 121.55,-474.53 127.42,-483.35 131.63,-477.76"/>
</g>
<!-- node_0x6060000002c0 -->
<g id="node11" class="node">
<title>node_0x6060000002c0</title>
<path fill="#c6df90" stroke="black" d="M175,-438.5C175,-438.5 205,-438.5 205,-438.5 211,-438.5 217,-444.5 217,-450.5 217,-450.5 217,-462.5 217,-462.5 217,-468.5 211,-474.5 205,-474.5 205,-474.5 175,-474.5 175,-474.5 169,-474.5 163,-468.5 163,-462.5 163,-462.5 163,-450.5 163,-450.5 163,-444.5 169,-438.5 175,-438.5"/>
<text text-anchor="middle" x="190" y="-452.8" font-family="Times,serif" font-size="14.00">and</text>
</g>
<!-- node_0x606000000320&#45;&gt;node_0x6060000002c0 -->
<g id="edge10" class="edge">
<title>node_0x606000000320&#45;&gt;node_0x6060000002c0</title>
<path fill="none" stroke="#1164b4" d="M192.27,-511.31C191.93,-503.29 191.52,-493.55 191.14,-484.57"/>
<polygon fill="#1164b4" stroke="#1164b4" points="194.64,-484.37 190.72,-474.53 187.64,-484.67 194.64,-484.37"/>
</g>
<!-- node_0x6060000000e0 -->
<g id="node9" class="node">
<title>node_0x6060000000e0</title>
<path fill="#9aceeb" stroke="black" d="M12,-365.5C12,-365.5 42,-365.5 42,-365.5 48,-365.5 54,-371.5 54,-377.5 54,-377.5 54,-389.5 54,-389.5 54,-395.5 48,-401.5 42,-401.5 42,-401.5 12,-401.5 12,-401.5 6,-401.5 0,-395.5 0,-389.5 0,-389.5 0,-377.5 0,-377.5 0,-371.5 6,-365.5 12,-365.5"/>
<text text-anchor="middle" x="27" y="-379.8" font-family="Times,serif" font-size="14.00">num</text>
</g>
<!-- node_0x6060000001a0&#45;&gt;node_0x6060000000e0 -->
<g id="edge8" class="edge">
<title>node_0x6060000001a0&#45;&gt;node_0x6060000000e0</title>
<path fill="none" stroke="#e32636" d="M81.57,-438.31C72.55,-429.42 61.39,-418.41 51.51,-408.67"/>
<polygon fill="#e32636" stroke="#e32636" points="53.85,-406.06 44.27,-401.53 48.93,-411.04 53.85,-406.06"/>
</g>
<!-- node_0x606000000140 -->
<g id="node10" class="node">
<title>node_0x606000000140</title>
<path fill="#ddb9e9" stroke="black" d="M84,-365.5C84,-365.5 114,-365.5 114,-365.5 120,-365.5 126,-371.5 126,-377.5 126,-377.5 126,-389.5 126,-389.5 126,-395.5 120,-401.5 114,-401.5 114,-401.5 84,-401.5 84,-401.5 78,-401.5 72,-395.5 72,-389.5 72,-389.5 72,-377.5 72,-377.5 72,-371.5 78,-365.5 84,-365.5"/>
<text text-anchor="middle" x="99" y="-379.8" font-family="Times,serif" font-size="14.00">0</text>
</g>
<!-- node_0x6060000001a0&#45;&gt;node_0x606000000140 -->
<g id="edge9" class="edge">
<title>node_0x6060000001a0&#45;&gt;node_0x606000000140</title>
<path fill="none" stroke="#1164b4" d="M99,-438.31C99,-430.29 99,-420.55 99,-411.57"/>
<polygon fill="#1164b4" stroke="#1164b4" points="102.5,-411.53 99,-401.53 95.5,-411.53 102.5,-411.53"/>
</g>
<!-- node_0x606000000260 -->
<g id="node12" class="node">
<title>node_0x606000000260</title>
<path fill="#f0ffff" stroke="black" d="M156,-365.5C156,-365.5 194,-365.5 194,-365.5 200,-365.5 206,-371.5 206,-377.5 206,-377.5 206,-389.5 206,-389.5 206,-395.5 200,-401.5 194,-401.5 194,-401.5 156,-401.5 156,-401.5 150,-401.5 144,-395.5 144,-389.5 144,-389.5 144,-377.5 144,-377.5 144,-371.5 150,-365.5 156,-365.5"/>
<text text-anchor="middle" x="175" y="-379.8" font-family="Times,serif" font-size="14.00">return</text>
</g>
<!-- node_0x6060000002c0&#45;&gt;node_0x606000000260 -->
<g id="edge11" class="edge">
<title>node_0x6060000002c0&#45;&gt;node_0x606000000260</title>
<path fill="none" stroke="#e32636" d="M186.37,-438.31C184.67,-430.29 182.62,-420.55 180.72,-411.57"/>
<polygon fill="#e32636" stroke="#e32636" points="184.09,-410.59 178.6,-401.53 177.24,-412.04 184.09,-410.59"/>
</g>
<!-- node_0x606000000200 -->
<g id="node13" class="node">
<title>node_0x606000000200</title>
<path fill="#ddb9e9" stroke="black" d="M160,-292.5C160,-292.5 190,-292.5 190,-292.5 196,-292.5 202,-298.5 202,-304.5 202,-304.5 202,-316.5 202,-316.5 202,-322.5 196,-328.5 190,-328.5 190,-328.5 160,-328.5 160,-328.5 154,-328.5 148,-322.5 148,-316.5 148,-316.5 148,-304.5 148,-304.5 148,-298.5 154,-292.5 160,-292.5"/>
<text text-anchor="middle" x="175" y="-306.8" font-family="Times,serif" font-size="14.00">1</text>
</g>
<!-- node_0x606000000260&#45;&gt;node_0x606000000200 -->
<g id="edge12" class="edge">
<title>node_0x606000000260&#45;&gt;node_0x606000000200</title>
<path fill="none" stroke="#e32636" d="M175,-365.31C175,-357.29 175,-347.55 175,-338.57"/>
<polygon fill="#e32636" stroke="#e32636" points="178.5,-338.53 175,-328.53 171.5,-338.53 178.5,-338.53"/>
</g>
<!-- node_0x606000000440 -->
<g id="node15" class="node">
<title>node_0x606000000440</title>
<path fill="#f0ffff" stroke="black" d="M248,-438.5C248,-438.5 292,-438.5 292,-438.5 298,-438.5 304,-444.5 304,-450.5 304,-450.5 304,-462.5 304,-462.5 304,-468.5 298,-474.5 292,-474.5 292,-474.5 248,-474.5 248,-474.5 242,-474.5 236,-468.5 236,-462.5 236,-462.5 236,-450.5 236,-450.5 236,-444.5 242,-438.5 248,-438.5"/>
<text text-anchor="middle" x="270" y="-452.8" font-family="Times,serif" font-size="14.00">var init</text>
</g>
<!-- node_0x606000000b60&#45;&gt;node_0x606000000440 -->
<g id="edge14" class="edge">
<title>node_0x606000000b60&#45;&gt;node_0x606000000440</title>
<path fill="none" stroke="#e32636" d="M270,-511.31C270,-503.29 270,-493.55 270,-484.57"/>
<polygon fill="#e32636" stroke="#e32636" points="273.5,-484.53 270,-474.53 266.5,-484.53 273.5,-484.53"/>
</g>
<!-- node_0x606000000b00 -->
<g id="node18" class="node">
<title>node_0x606000000b00</title>
<path fill="#c6df90" stroke="black" d="M414,-438.5C414,-438.5 444,-438.5 444,-438.5 450,-438.5 456,-444.5 456,-450.5 456,-450.5 456,-462.5 456,-462.5 456,-468.5 450,-474.5 444,-474.5 444,-474.5 414,-474.5 414,-474.5 408,-474.5 402,-468.5 402,-462.5 402,-462.5 402,-450.5 402,-450.5 402,-444.5 408,-438.5 414,-438.5"/>
<text text-anchor="middle" x="429" y="-452.8" font-family="Times,serif" font-size="14.00">and</text>
</g>
<!-- node_0x606000000b60&#45;&gt;node_0x606000000b00 -->
<g id="edge17" class="edge">
<title>node_0x606000000b60&#45;&gt;node_0x606000000b00</title>
<path fill="none" stroke="#1164b4" d="M297.33,-516.29C323.58,-504.58 363.4,-486.79 392.38,-473.85"/>
<polygon fill="#1164b4" stroke="#1164b4" points="394.05,-476.94 401.76,-469.66 391.2,-470.55 394.05,-476.94"/>
</g>
<!-- node_0x606000000380 -->
<g id="node16" class="node">
<title>node_0x606000000380</title>
<path fill="#9aceeb" stroke="black" d="M236.5,-365.5C236.5,-365.5 299.5,-365.5 299.5,-365.5 305.5,-365.5 311.5,-371.5 311.5,-377.5 311.5,-377.5 311.5,-389.5 311.5,-389.5 311.5,-395.5 305.5,-401.5 299.5,-401.5 299.5,-401.5 236.5,-401.5 236.5,-401.5 230.5,-401.5 224.5,-395.5 224.5,-389.5 224.5,-389.5 224.5,-377.5 224.5,-377.5 224.5,-371.5 230.5,-365.5 236.5,-365.5"/>
<text text-anchor="middle" x="268" y="-379.8" font-family="Times,serif" font-size="14.00">fact_temp</text>
</g>
<!-- node_0x606000000440&#45;&gt;node_0x606000000380 -->
<g id="edge15" class="edge">
<title>node_0x606000000440&#45;&gt;node_0x606000000380</title>
<path fill="none" stroke="#e32636" d="M269.52,-438.31C269.29,-430.29 269.02,-420.55 268.76,-411.57"/>
<polygon fill="#e32636" stroke="#e32636" points="272.26,-411.43 268.48,-401.53 265.26,-411.62 272.26,-411.43"/>
</g>
<!-- node_0x6060000003e0 -->
<g id="node17" class="node">
<title>node_0x6060000003e0</title>
<path fill="#ddb9e9" stroke="black" d="M342,-365.5C342,-365.5 372,-365.5 372,-365.5 378,-365.5 384,-371.5 384,-377.5 384,-377.5 384,-389.5 384,-389.5 384,-395.5 378,-401.5 372,-401.5 372,-401.5 342,-401.5 342,-401.5 336,-401.5 330,-395.5 330,-389.5 330,-389.5 330,-377.5 330,-377.5 330,-371.5 336,-365.5 342,-365.5"/>
<text text-anchor="middle" x="357" y="-379.8" font-family="Times,serif" font-size="14.00">0</text>
</g>
<!-- node_0x606000000440&#45;&gt;node_0x6060000003e0 -->
<g id="edge16" class="edge">
<title>node_0x606000000440&#45;&gt;node_0x6060000003e0</title>
<path fill="none" stroke="#1164b4" d="M291.06,-438.31C302.17,-429.24 315.98,-417.98 328.08,-408.1"/>
<polygon fill="#1164b4" stroke="#1164b4" points="330.6,-410.56 336.13,-401.53 326.17,-405.14 330.6,-410.56"/>
</g>
<!-- node_0x606000000740 -->
<g id="node19" class="node">
<title>node_0x606000000740</title>
<path fill="#f0ffff" stroke="black" d="M414,-365.5C414,-365.5 444,-365.5 444,-365.5 450,-365.5 456,-371.5 456,-377.5 456,-377.5 456,-389.5 456,-389.5 456,-395.5 450,-401.5 444,-401.5 444,-401.5 414,-401.5 414,-401.5 408,-401.5 402,-395.5 402,-389.5 402,-389.5 402,-377.5 402,-377.5 402,-371.5 408,-365.5 414,-365.5"/>
<text text-anchor="middle" x="429" y="-379.8" font-family="Times,serif" font-size="14.00">=</text>
</g>
<!-- node_0x606000000b00&#45;&gt;node_0x606000000740 -->
<g id="edge18" class="edge">
<title>node_0x606000000b00&#45;&gt;node_0x606000000740</title>
<path fill="none" stroke="#e32636" d="M429,-438.31C429,-430.29 429,-420.55 429,-411.57"/>
<polygon fill="#e32636" stroke="#e32636" points="432.5,-411.53 429,-401.53 425.5,-411.53 432.5,-411.53"/>
</g>
<!-- node_0x606000000aa0 -->
<g id="node27" class="node">
<title>node_0x606000000aa0</title>
<path fill="#c6df90" stroke="black" d="M486,-365.5C486,-365.5 516,-365.5 516,-365.5 522,-365.5 528,-371.5 528,-377.5 528,-377.5 528,-389.5 528,-389.5 528,-395.5 522,-401.5 516,-401.5 516,-401.5 486,-401.5 486,-401.5 480,-401.5 474,-395.5 474,-389.5 474,-389.5 474,-377.5 474,-377.5 474,-371.5 480,-365.5 486,-365.5"/>
<text text-anchor="middle" x="501" y="-379.8" font-family="Times,serif" font-size="14.00">and</text>
</g>
<!-- node_0x606000000b00&#45;&gt;node_0x606000000aa0 -->
<g id="edge26" class="edge">
<title>node_0x606000000b00&#45;&gt;node_0x606000000aa0</title>
<path fill="none" stroke="#1164b4" d="M446.43,-438.31C455.45,-429.42 466.61,-418.41 476.49,-408.67"/>
<polygon fill="#1164b4" stroke="#1164b4" points="479.07,-411.04 483.73,-401.53 474.15,-406.06 479.07,-411.04"/>
</g>
<!-- node_0x6060000004a0 -->
<g id="node20" class="node">
<title>node_0x6060000004a0</title>
<path fill="#9aceeb" stroke="black" d="M308.5,-292.5C308.5,-292.5 371.5,-292.5 371.5,-292.5 377.5,-292.5 383.5,-298.5 383.5,-304.5 383.5,-304.5 383.5,-316.5 383.5,-316.5 383.5,-322.5 377.5,-328.5 371.5,-328.5 371.5,-328.5 308.5,-328.5 308.5,-328.5 302.5,-328.5 296.5,-322.5 296.5,-316.5 296.5,-316.5 296.5,-304.5 296.5,-304.5 296.5,-298.5 302.5,-292.5 308.5,-292.5"/>
<text text-anchor="middle" x="340" y="-306.8" font-family="Times,serif" font-size="14.00">fact_temp</text>
</g>
<!-- node_0x606000000740&#45;&gt;node_0x6060000004a0 -->
<g id="edge19" class="edge">
<title>node_0x606000000740&#45;&gt;node_0x6060000004a0</title>
<path fill="none" stroke="#e32636" d="M407.46,-365.31C395.98,-356.16 381.69,-344.76 369.23,-334.82"/>
<polygon fill="#e32636" stroke="#e32636" points="371.35,-332.03 361.35,-328.53 366.98,-337.5 371.35,-332.03"/>
</g>
<!-- node_0x6060000006e0 -->
<g id="node21" class="node">
<title>node_0x6060000006e0</title>
<path fill="#c6df90" stroke="black" d="M414,-292.5C414,-292.5 444,-292.5 444,-292.5 450,-292.5 456,-298.5 456,-304.5 456,-304.5 456,-316.5 456,-316.5 456,-322.5 450,-328.5 444,-328.5 444,-328.5 414,-328.5 414,-328.5 408,-328.5 402,-322.5 402,-316.5 402,-316.5 402,-304.5 402,-304.5 402,-298.5 408,-292.5 414,-292.5"/>
<text text-anchor="middle" x="429" y="-306.8" font-family="Times,serif" font-size="14.00">and</text>
</g>
<!-- node_0x606000000740&#45;&gt;node_0x6060000006e0 -->
<g id="edge20" class="edge">
<title>node_0x606000000740&#45;&gt;node_0x6060000006e0</title>
<path fill="none" stroke="#1164b4" d="M429,-365.31C429,-357.29 429,-347.55 429,-338.57"/>
<polygon fill="#1164b4" stroke="#1164b4" points="432.5,-338.53 429,-328.53 425.5,-338.53 432.5,-338.53"/>
</g>
<!-- node_0x606000000680 -->
<g id="node22" class="node">
<title>node_0x606000000680</title>
<path fill="#f0ffff" stroke="black" d="M308,-219.5C308,-219.5 338,-219.5 338,-219.5 344,-219.5 350,-225.5 350,-231.5 350,-231.5 350,-243.5 350,-243.5 350,-249.5 344,-255.5 338,-255.5 338,-255.5 308,-255.5 308,-255.5 302,-255.5 296,-249.5 296,-243.5 296,-243.5 296,-231.5 296,-231.5 296,-225.5 302,-219.5 308,-219.5"/>
<text text-anchor="middle" x="323" y="-233.8" font-family="Times,serif" font-size="14.00">fact</text>
</g>
<!-- node_0x6060000006e0&#45;&gt;node_0x606000000680 -->
<g id="edge21" class="edge">
<title>node_0x6060000006e0&#45;&gt;node_0x606000000680</title>
<path fill="none" stroke="#e32636" d="M403.61,-292.49C389.68,-283.17 372.23,-271.47 357.13,-261.36"/>
<polygon fill="#e32636" stroke="#e32636" points="358.81,-258.27 348.55,-255.61 354.91,-264.09 358.81,-258.27"/>
</g>
<!-- node_0x606000000620 -->
<g id="node23" class="node">
<title>node_0x606000000620</title>
<path fill="#c6df90" stroke="black" d="M308,-146.5C308,-146.5 338,-146.5 338,-146.5 344,-146.5 350,-152.5 350,-158.5 350,-158.5 350,-170.5 350,-170.5 350,-176.5 344,-182.5 338,-182.5 338,-182.5 308,-182.5 308,-182.5 302,-182.5 296,-176.5 296,-170.5 296,-170.5 296,-158.5 296,-158.5 296,-152.5 302,-146.5 308,-146.5"/>
<text text-anchor="middle" x="323" y="-160.8" font-family="Times,serif" font-size="14.00">and</text>
</g>
<!-- node_0x606000000680&#45;&gt;node_0x606000000620 -->
<g id="edge22" class="edge">
<title>node_0x606000000680&#45;&gt;node_0x606000000620</title>
<path fill="none" stroke="#e32636" d="M323,-219.31C323,-211.29 323,-201.55 323,-192.57"/>
<polygon fill="#e32636" stroke="#e32636" points="326.5,-192.53 323,-182.53 319.5,-192.53 326.5,-192.53"/>
</g>
<!-- node_0x6060000005c0 -->
<g id="node24" class="node">
<title>node_0x6060000005c0</title>
<path fill="#e6a8d7" stroke="black" d="M308,-73.5C308,-73.5 338,-73.5 338,-73.5 344,-73.5 350,-79.5 350,-85.5 350,-85.5 350,-97.5 350,-97.5 350,-103.5 344,-109.5 338,-109.5 338,-109.5 308,-109.5 308,-109.5 302,-109.5 296,-103.5 296,-97.5 296,-97.5 296,-85.5 296,-85.5 296,-79.5 302,-73.5 308,-73.5"/>
<text text-anchor="middle" x="323" y="-87.8" font-family="Times,serif" font-size="14.00">&#45;</text>
</g>
<!-- node_0x606000000620&#45;&gt;node_0x6060000005c0 -->
<g id="edge23" class="edge">
<title>node_0x606000000620&#45;&gt;node_0x6060000005c0</title>
<path fill="none" stroke="#e32636" d="M323,-146.31C323,-138.29 323,-128.55 323,-119.57"/>
<polygon fill="#e32636" stroke="#e32636" points="326.5,-119.53 323,-109.53 319.5,-119.53 326.5,-119.53"/>
</g>
<!-- node_0x606000000500 -->
<g id="node25" class="node">
<title>node_0x606000000500</title>
<path fill="#9aceeb" stroke="black" d="M272,-0.5C272,-0.5 302,-0.5 302,-0.5 308,-0.5 314,-6.5 314,-12.5 314,-12.5 314,-24.5 314,-24.5 314,-30.5 308,-36.5 302,-36.5 302,-36.5 272,-36.5 272,-36.5 266,-36.5 260,-30.5 260,-24.5 260,-24.5 260,-12.5 260,-12.5 260,-6.5 266,-0.5 272,-0.5"/>
<text text-anchor="middle" x="287" y="-14.8" font-family="Times,serif" font-size="14.00">num</text>
</g>
<!-- node_0x6060000005c0&#45;&gt;node_0x606000000500 -->
<g id="edge24" class="edge">
<title>node_0x6060000005c0&#45;&gt;node_0x606000000500</title>
<path fill="none" stroke="#e32636" d="M314.29,-73.31C310.08,-65.03 304.95,-54.91 300.28,-45.69"/>
<polygon fill="#e32636" stroke="#e32636" points="303.28,-43.87 295.63,-36.53 297.04,-47.03 303.28,-43.87"/>
</g>
<!-- node_0x606000000560 -->
<g id="node26" class="node">
<title>node_0x606000000560</title>
<path fill="#ddb9e9" stroke="black" d="M344,-0.5C344,-0.5 374,-0.5 374,-0.5 380,-0.5 386,-6.5 386,-12.5 386,-12.5 386,-24.5 386,-24.5 386,-30.5 380,-36.5 374,-36.5 374,-36.5 344,-36.5 344,-36.5 338,-36.5 332,-30.5 332,-24.5 332,-24.5 332,-12.5 332,-12.5 332,-6.5 338,-0.5 344,-0.5"/>
<text text-anchor="middle" x="359" y="-14.8" font-family="Times,serif" font-size="14.00">1</text>
</g>
<!-- node_0x6060000005c0&#45;&gt;node_0x606000000560 -->
<g id="edge25" class="edge">
<title>node_0x6060000005c0&#45;&gt;node_0x606000000560</title>
<path fill="none" stroke="#1164b4" d="M331.71,-73.31C335.92,-65.03 341.05,-54.91 345.72,-45.69"/>
<polygon fill="#1164b4" stroke="#1164b4" points="348.96,-47.03 350.37,-36.53 342.72,-43.87 348.96,-47.03"/>
</g>
<!-- node_0x606000000920 -->
<g id="node28" class="node">
<title>node_0x606000000920</title>
<path fill="#f0ffff" stroke="black" d="M486,-292.5C486,-292.5 516,-292.5 516,-292.5 522,-292.5 528,-298.5 528,-304.5 528,-304.5 528,-316.5 528,-316.5 528,-322.5 522,-328.5 516,-328.5 516,-328.5 486,-328.5 486,-328.5 480,-328.5 474,-322.5 474,-316.5 474,-316.5 474,-304.5 474,-304.5 474,-298.5 480,-292.5 486,-292.5"/>
<text text-anchor="middle" x="501" y="-306.8" font-family="Times,serif" font-size="14.00">=</text>
</g>
<!-- node_0x606000000aa0&#45;&gt;node_0x606000000920 -->
<g id="edge27" class="edge">
<title>node_0x606000000aa0&#45;&gt;node_0x606000000920</title>
<path fill="none" stroke="#e32636" d="M501,-365.31C501,-357.29 501,-347.55 501,-338.57"/>
<polygon fill="#e32636" stroke="#e32636" points="504.5,-338.53 501,-328.53 497.5,-338.53 504.5,-338.53"/>
</g>
<!-- node_0x606000000a40 -->
<g id="node33" class="node">
<title>node_0x606000000a40</title>
<path fill="#c6df90" stroke="black" d="M560,-292.5C560,-292.5 590,-292.5 590,-292.5 596,-292.5 602,-298.5 602,-304.5 602,-304.5 602,-316.5 602,-316.5 602,-322.5 596,-328.5 590,-328.5 590,-328.5 560,-328.5 560,-328.5 554,-328.5 548,-322.5 548,-316.5 548,-316.5 548,-304.5 548,-304.5 548,-298.5 554,-292.5 560,-292.5"/>
<text text-anchor="middle" x="575" y="-306.8" font-family="Times,serif" font-size="14.00">and</text>
</g>
<!-- node_0x606000000aa0&#45;&gt;node_0x606000000a40 -->
<g id="edge32" class="edge">
<title>node_0x606000000aa0&#45;&gt;node_0x606000000a40</title>
<path fill="none" stroke="#1164b4" d="M518.91,-365.31C528.18,-356.42 539.66,-345.41 549.81,-335.67"/>
<polygon fill="#1164b4" stroke="#1164b4" points="552.46,-337.98 557.25,-328.53 547.61,-332.93 552.46,-337.98"/>
</g>
<!-- node_0x6060000007a0 -->
<g id="node29" class="node">
<title>node_0x6060000007a0</title>
<path fill="#9aceeb" stroke="black" d="M380.5,-219.5C380.5,-219.5 443.5,-219.5 443.5,-219.5 449.5,-219.5 455.5,-225.5 455.5,-231.5 455.5,-231.5 455.5,-243.5 455.5,-243.5 455.5,-249.5 449.5,-255.5 443.5,-255.5 443.5,-255.5 380.5,-255.5 380.5,-255.5 374.5,-255.5 368.5,-249.5 368.5,-243.5 368.5,-243.5 368.5,-231.5 368.5,-231.5 368.5,-225.5 374.5,-219.5 380.5,-219.5"/>
<text text-anchor="middle" x="412" y="-233.8" font-family="Times,serif" font-size="14.00">fact_temp</text>
</g>
<!-- node_0x606000000920&#45;&gt;node_0x6060000007a0 -->
<g id="edge28" class="edge">
<title>node_0x606000000920&#45;&gt;node_0x6060000007a0</title>
<path fill="none" stroke="#e32636" d="M479.46,-292.31C467.98,-283.16 453.69,-271.76 441.23,-261.82"/>
<polygon fill="#e32636" stroke="#e32636" points="443.35,-259.03 433.35,-255.53 438.98,-264.5 443.35,-259.03"/>
</g>
<!-- node_0x6060000008c0 -->
<g id="node30" class="node">
<title>node_0x6060000008c0</title>
<path fill="#e6a8d7" stroke="black" d="M486,-219.5C486,-219.5 516,-219.5 516,-219.5 522,-219.5 528,-225.5 528,-231.5 528,-231.5 528,-243.5 528,-243.5 528,-249.5 522,-255.5 516,-255.5 516,-255.5 486,-255.5 486,-255.5 480,-255.5 474,-249.5 474,-243.5 474,-243.5 474,-231.5 474,-231.5 474,-225.5 480,-219.5 486,-219.5"/>
<text text-anchor="middle" x="501" y="-233.8" font-family="Times,serif" font-size="14.00">*</text>
</g>
<!-- node_0x606000000920&#45;&gt;node_0x6060000008c0 -->
<g id="edge29" class="edge">
<title>node_0x606000000920&#45;&gt;node_0x6060000008c0</title>
<path fill="none" stroke="#1164b4" d="M501,-292.31C501,-284.29 501,-274.55 501,-265.57"/>
<polygon fill="#1164b4" stroke="#1164b4" points="504.5,-265.53 501,-255.53 497.5,-265.53 504.5,-265.53"/>
</g>
<!-- node_0x606000000800 -->
<g id="node31" class="node">
<title>node_0x606000000800</title>
<path fill="#9aceeb" stroke="black" d="M380.5,-146.5C380.5,-146.5 443.5,-146.5 443.5,-146.5 449.5,-146.5 455.5,-152.5 455.5,-158.5 455.5,-158.5 455.5,-170.5 455.5,-170.5 455.5,-176.5 449.5,-182.5 443.5,-182.5 443.5,-182.5 380.5,-182.5 380.5,-182.5 374.5,-182.5 368.5,-176.5 368.5,-170.5 368.5,-170.5 368.5,-158.5 368.5,-158.5 368.5,-152.5 374.5,-146.5 380.5,-146.5"/>
<text text-anchor="middle" x="412" y="-160.8" font-family="Times,serif" font-size="14.00">fact_temp</text>
</g>
<!-- node_0x6060000008c0&#45;&gt;node_0x606000000800 -->
<g id="edge30" class="edge">
<title>node_0x6060000008c0&#45;&gt;node_0x606000000800</title>
<path fill="none" stroke="#e32636" d="M479.46,-219.31C467.98,-210.16 453.69,-198.76 441.23,-188.82"/>
<polygon fill="#e32636" stroke="#e32636" points="443.35,-186.03 433.35,-182.53 438.98,-191.5 443.35,-186.03"/>
</g>
<!-- node_0x606000000860 -->
<g id="node32" class="node">
<title>node_0x606000000860</title>
<path fill="#9aceeb" stroke="black" d="M486,-146.5C486,-146.5 516,-146.5 516,-146.5 522,-146.5 528,-152.5 528,-158.5 528,-158.5 528,-170.5 528,-170.5 528,-176.5 522,-182.5 516,-182.5 516,-182.5 486,-182.5 486,-182.5 480,-182.5 474,-176.5 474,-170.5 474,-170.5 474,-158.5 474,-158.5 474,-152.5 480,-146.5 486,-146.5"/>
<text text-anchor="middle" x="501" y="-160.8" font-family="Times,serif" font-size="14.00">num</text>
</g>
<!-- node_0x6060000008c0&#45;&gt;node_0x606000000860 -->
<g id="edge31" class="edge">
<title>node_0x6060000008c0&#45;&gt;node_0x606000000860</title>
<path fill="none" stroke="#1164b4" d="M501,-219.31C501,-211.29 501,-201.55 501,-192.57"/>
<polygon fill="#1164b4" stroke="#1164b4" points="504.5,-192.53 501,-182.53 497.5,-192.53 504.5,-192.53"/>
</g>
<!-- node_0x6060000009e0 -->
<g id="node34" class="node">
<title>node_0x6060000009e0</title>
<path fill="#f0ffff" stroke="black" d="M558,-219.5C558,-219.5 596,-219.5 596,-219.5 602,-219.5 608,-225.5 608,-231.5 608,-231.5 608,-243.5 608,-243.5 608,-249.5 602,-255.5 596,-255.5 596,-255.5 558,-255.5 558,-255.5 552,-255.5 546,-249.5 546,-243.5 546,-243.5 546,-231.5 546,-231.5 546,-225.5 552,-219.5 558,-219.5"/>
<text text-anchor="middle" x="577" y="-233.8" font-family="Times,serif" font-size="14.00">return</text>
</g>
<!-- node_0x606000000a40&#45;&gt;node_0x6060000009e0 -->
<g id="edge33" class="edge">
<title>node_0x606000000a40&#45;&gt;node_0x6060000009e0</title>
<path fill="none" stroke="#e32636" d="M575.48,-292.31C575.71,-284.29 575.98,-274.55 576.24,-265.57"/>
<polygon fill="#e32636" stroke="#e32636" points="579.74,-265.62 576.52,-255.53 572.74,-265.43 579.74,-265.62"/>
</g>
<!-- node_0x606000000980 -->
<g id="node35" class="node">
<title>node_0x606000000980</title>
<path fill="#9aceeb" stroke="black" d="M558.5,-146.5C558.5,-146.5 621.5,-146.5 621.5,-146.5 627.5,-146.5 633.5,-152.5 633.5,-158.5 633.5,-158.5 633.5,-170.5 633.5,-170.5 633.5,-176.5 627.5,-182.5 621.5,-182.5 621.5,-182.5 558.5,-182.5 558.5,-182.5 552.5,-182.5 546.5,-176.5 546.5,-170.5 546.5,-170.5 546.5,-158.5 546.5,-158.5 546.5,-152.5 552.5,-146.5 558.5,-146.5"/>
<text text-anchor="middle" x="590" y="-160.8" font-family="Times,serif" font-size="14.00">fact_temp</text>
</g>
<!-- node_0x6060000009e0&#45;&gt;node_0x606000000980 -->
<g id="edge34" class="edge">
<title>node_0x6060000009e0&#45;&gt;node_0x606000000980</title>
<path fill="none" stroke="#e32636" d="M580.15,-219.31C581.62,-211.29 583.4,-201.55 585.04,-192.57"/>
<polygon fill="#e32636" stroke="#e32636" points="588.52,-193 586.88,-182.53 581.64,-191.73 588.52,-193"/>
</g>
<!-- node_0x606000000da0 -->
<g id="node37" class="node">
<title>node_0x606000000da0</title>
<path fill="#f0ffff" stroke="black" d="M285,-657.5C285,-657.5 329,-657.5 329,-657.5 335,-657.5 341,-663.5 341,-669.5 341,-669.5 341,-681.5 341,-681.5 341,-687.5 335,-693.5 329,-693.5 329,-693.5 285,-693.5 285,-693.5 279,-693.5 273,-687.5 273,-681.5 273,-681.5 273,-669.5 273,-669.5 273,-663.5 279,-657.5 285,-657.5"/>
<text text-anchor="middle" x="307" y="-671.8" font-family="Times,serif" font-size="14.00">var init</text>
</g>
<!-- node_0x6060000012e0&#45;&gt;node_0x606000000da0 -->
<g id="edge36" class="edge">
<title>node_0x6060000012e0&#45;&gt;node_0x606000000da0</title>
<path fill="none" stroke="#e32636" d="M307,-730.31C307,-722.29 307,-712.55 307,-703.57"/>
<polygon fill="#e32636" stroke="#e32636" points="310.5,-703.53 307,-693.53 303.5,-703.53 310.5,-703.53"/>
</g>
<!-- node_0x606000001280 -->
<g id="node40" class="node">
<title>node_0x606000001280</title>
<path fill="#c6df90" stroke="black" d="M433,-657.5C433,-657.5 463,-657.5 463,-657.5 469,-657.5 475,-663.5 475,-669.5 475,-669.5 475,-681.5 475,-681.5 475,-687.5 469,-693.5 463,-693.5 463,-693.5 433,-693.5 433,-693.5 427,-693.5 421,-687.5 421,-681.5 421,-681.5 421,-669.5 421,-669.5 421,-663.5 427,-657.5 433,-657.5"/>
<text text-anchor="middle" x="448" y="-671.8" font-family="Times,serif" font-size="14.00">and</text>
</g>
<!-- node_0x6060000012e0&#45;&gt;node_0x606000001280 -->
<g id="edge39" class="edge">
<title>node_0x6060000012e0&#45;&gt;node_0x606000001280</title>
<path fill="none" stroke="#1164b4" d="M334.19,-733.81C356.23,-722.71 387.49,-706.97 411.68,-694.79"/>
<polygon fill="#1164b4" stroke="#1164b4" points="413.54,-697.77 420.9,-690.15 410.39,-691.52 413.54,-697.77"/>
</g>
<!-- node_0x606000000ce0 -->
<g id="node38" class="node">
<title>node_0x606000000ce0</title>
<path fill="#9aceeb" stroke="black" d="M275,-584.5C275,-584.5 305,-584.5 305,-584.5 311,-584.5 317,-590.5 317,-596.5 317,-596.5 317,-608.5 317,-608.5 317,-614.5 311,-620.5 305,-620.5 305,-620.5 275,-620.5 275,-620.5 269,-620.5 263,-614.5 263,-608.5 263,-608.5 263,-596.5 263,-596.5 263,-590.5 269,-584.5 275,-584.5"/>
<text text-anchor="middle" x="290" y="-598.8" font-family="Times,serif" font-size="14.00">x</text>
</g>
<!-- node_0x606000000da0&#45;&gt;node_0x606000000ce0 -->
<g id="edge37" class="edge">
<title>node_0x606000000da0&#45;&gt;node_0x606000000ce0</title>
<path fill="none" stroke="#e32636" d="M302.88,-657.31C300.94,-649.2 298.58,-639.34 296.41,-630.28"/>
<polygon fill="#e32636" stroke="#e32636" points="299.81,-629.44 294.08,-620.53 293,-631.07 299.81,-629.44"/>
</g>
<!-- node_0x606000000d40 -->
<g id="node39" class="node">
<title>node_0x606000000d40</title>
<path fill="#ddb9e9" stroke="black" d="M347,-584.5C347,-584.5 377,-584.5 377,-584.5 383,-584.5 389,-590.5 389,-596.5 389,-596.5 389,-608.5 389,-608.5 389,-614.5 383,-620.5 377,-620.5 377,-620.5 347,-620.5 347,-620.5 341,-620.5 335,-614.5 335,-608.5 335,-608.5 335,-596.5 335,-596.5 335,-590.5 341,-584.5 347,-584.5"/>
<text text-anchor="middle" x="362" y="-598.8" font-family="Times,serif" font-size="14.00">0</text>
</g>
<!-- node_0x606000000da0&#45;&gt;node_0x606000000d40 -->
<g id="edge38" class="edge">
<title>node_0x606000000da0&#45;&gt;node_0x606000000d40</title>
<path fill="none" stroke="#1164b4" d="M320.31,-657.31C327,-648.68 335.23,-638.06 342.61,-628.53"/>
<polygon fill="#1164b4" stroke="#1164b4" points="345.45,-630.58 348.81,-620.53 339.92,-626.29 345.45,-630.58"/>
</g>
<!-- node_0x606000000e60 -->
<g id="node41" class="node">
<title>node_0x606000000e60</title>
<path fill="#f0ffff" stroke="black" d="M433,-584.5C433,-584.5 463,-584.5 463,-584.5 469,-584.5 475,-590.5 475,-596.5 475,-596.5 475,-608.5 475,-608.5 475,-614.5 469,-620.5 463,-620.5 463,-620.5 433,-620.5 433,-620.5 427,-620.5 421,-614.5 421,-608.5 421,-608.5 421,-596.5 421,-596.5 421,-590.5 427,-584.5 433,-584.5"/>
<text text-anchor="middle" x="448" y="-598.8" font-family="Times,serif" font-size="14.00">scanf</text>
</g>
<!-- node_0x606000001280&#45;&gt;node_0x606000000e60 -->
<g id="edge40" class="edge">
<title>node_0x606000001280&#45;&gt;node_0x606000000e60</title>
<path fill="none" stroke="#e32636" d="M448,-657.31C448,-649.29 448,-639.55 448,-630.57"/>
<polygon fill="#e32636" stroke="#e32636" points="451.5,-630.53 448,-620.53 444.5,-630.53 451.5,-630.53"/>
</g>
<!-- node_0x606000001220 -->
<g id="node43" class="node">
<title>node_0x606000001220</title>
<path fill="#c6df90" stroke="black" d="M542,-584.5C542,-584.5 572,-584.5 572,-584.5 578,-584.5 584,-590.5 584,-596.5 584,-596.5 584,-608.5 584,-608.5 584,-614.5 578,-620.5 572,-620.5 572,-620.5 542,-620.5 542,-620.5 536,-620.5 530,-614.5 530,-608.5 530,-608.5 530,-596.5 530,-596.5 530,-590.5 536,-584.5 542,-584.5"/>
<text text-anchor="middle" x="557" y="-598.8" font-family="Times,serif" font-size="14.00">and</text>
</g>
<!-- node_0x606000001280&#45;&gt;node_0x606000001220 -->
<g id="edge42" class="edge">
<title>node_0x606000001280&#45;&gt;node_0x606000001220</title>
<path fill="none" stroke="#1164b4" d="M474.11,-657.49C488.56,-648.08 506.71,-636.26 522.34,-626.07"/>
<polygon fill="#1164b4" stroke="#1164b4" points="524.26,-629 530.73,-620.61 520.44,-623.14 524.26,-629"/>
</g>
<!-- node_0x606000000e00 -->
<g id="node42" class="node">
<title>node_0x606000000e00</title>
<path fill="#9aceeb" stroke="black" d="M433,-511.5C433,-511.5 463,-511.5 463,-511.5 469,-511.5 475,-517.5 475,-523.5 475,-523.5 475,-535.5 475,-535.5 475,-541.5 469,-547.5 463,-547.5 463,-547.5 433,-547.5 433,-547.5 427,-547.5 421,-541.5 421,-535.5 421,-535.5 421,-523.5 421,-523.5 421,-517.5 427,-511.5 433,-511.5"/>
<text text-anchor="middle" x="448" y="-525.8" font-family="Times,serif" font-size="14.00">x</text>
</g>
<!-- node_0x606000000e60&#45;&gt;node_0x606000000e00 -->
<g id="edge41" class="edge">
<title>node_0x606000000e60&#45;&gt;node_0x606000000e00</title>
<path fill="none" stroke="#e32636" d="M448,-584.31C448,-576.29 448,-566.55 448,-557.57"/>
<polygon fill="#e32636" stroke="#e32636" points="451.5,-557.53 448,-547.53 444.5,-557.53 451.5,-557.53"/>
</g>
<!-- node_0x6060000010a0 -->
<g id="node44" class="node">
<title>node_0x6060000010a0</title>
<path fill="#f0ffff" stroke="black" d="M542,-511.5C542,-511.5 572,-511.5 572,-511.5 578,-511.5 584,-517.5 584,-523.5 584,-523.5 584,-535.5 584,-535.5 584,-541.5 578,-547.5 572,-547.5 572,-547.5 542,-547.5 542,-547.5 536,-547.5 530,-541.5 530,-535.5 530,-535.5 530,-523.5 530,-523.5 530,-517.5 536,-511.5 542,-511.5"/>
<text text-anchor="middle" x="557" y="-525.8" font-family="Times,serif" font-size="14.00">=</text>
</g>
<!-- node_0x606000001220&#45;&gt;node_0x6060000010a0 -->
<g id="edge43" class="edge">
<title>node_0x606000001220&#45;&gt;node_0x6060000010a0</title>
<path fill="none" stroke="#e32636" d="M557,-584.31C557,-576.29 557,-566.55 557,-557.57"/>
<polygon fill="#e32636" stroke="#e32636" points="560.5,-557.53 557,-547.53 553.5,-557.53 560.5,-557.53"/>
</g>
<!-- node_0x6060000011c0 -->
<g id="node50" class="node">
<title>node_0x6060000011c0</title>
<path fill="#c6df90" stroke="black" d="M650,-511.5C650,-511.5 680,-511.5 680,-511.5 686,-511.5 692,-517.5 692,-523.5 692,-523.5 692,-535.5 692,-535.5 692,-541.5 686,-547.5 680,-547.5 680,-547.5 650,-547.5 650,-547.5 644,-547.5 638,-541.5 638,-535.5 638,-535.5 638,-523.5 638,-523.5 638,-517.5 644,-511.5 650,-511.5"/>
<text text-anchor="middle" x="665" y="-525.8" font-family="Times,serif" font-size="14.00">and</text>
</g>
<!-- node_0x606000001220&#45;&gt;node_0x6060000011c0 -->
<g id="edge49" class="edge">
<title>node_0x606000001220&#45;&gt;node_0x6060000011c0</title>
<path fill="none" stroke="#1164b4" d="M582.87,-584.49C597.06,-575.17 614.84,-563.47 630.23,-553.36"/>
<polygon fill="#1164b4" stroke="#1164b4" points="632.53,-556.03 638.97,-547.61 628.69,-550.18 632.53,-556.03"/>
</g>
<!-- node_0x606000000ec0 -->
<g id="node45" class="node">
<title>node_0x606000000ec0</title>
<path fill="#9aceeb" stroke="black" d="M524,-438.5C524,-438.5 554,-438.5 554,-438.5 560,-438.5 566,-444.5 566,-450.5 566,-450.5 566,-462.5 566,-462.5 566,-468.5 560,-474.5 554,-474.5 554,-474.5 524,-474.5 524,-474.5 518,-474.5 512,-468.5 512,-462.5 512,-462.5 512,-450.5 512,-450.5 512,-444.5 518,-438.5 524,-438.5"/>
<text text-anchor="middle" x="539" y="-452.8" font-family="Times,serif" font-size="14.00">x</text>
</g>
<!-- node_0x6060000010a0&#45;&gt;node_0x606000000ec0 -->
<g id="edge44" class="edge">
<title>node_0x6060000010a0&#45;&gt;node_0x606000000ec0</title>
<path fill="none" stroke="#e32636" d="M552.64,-511.31C550.59,-503.2 548.09,-493.34 545.79,-484.28"/>
<polygon fill="#e32636" stroke="#e32636" points="549.17,-483.36 543.32,-474.53 542.38,-485.08 549.17,-483.36"/>
</g>
<!-- node_0x606000001040 -->
<g id="node46" class="node">
<title>node_0x606000001040</title>
<path fill="#c6df90" stroke="black" d="M596,-438.5C596,-438.5 626,-438.5 626,-438.5 632,-438.5 638,-444.5 638,-450.5 638,-450.5 638,-462.5 638,-462.5 638,-468.5 632,-474.5 626,-474.5 626,-474.5 596,-474.5 596,-474.5 590,-474.5 584,-468.5 584,-462.5 584,-462.5 584,-450.5 584,-450.5 584,-444.5 590,-438.5 596,-438.5"/>
<text text-anchor="middle" x="611" y="-452.8" font-family="Times,serif" font-size="14.00">and</text>
</g>
<!-- node_0x6060000010a0&#45;&gt;node_0x606000001040 -->
<g id="edge45" class="edge">
<title>node_0x6060000010a0&#45;&gt;node_0x606000001040</title>
<path fill="none" stroke="#1164b4" d="M570.07,-511.31C576.64,-502.68 584.72,-492.06 591.96,-482.53"/>
<polygon fill="#1164b4" stroke="#1164b4" points="594.78,-484.61 598.05,-474.53 589.21,-480.37 594.78,-484.61"/>
</g>
<!-- node_0x606000000fe0 -->
<g id="node47" class="node">
<title>node_0x606000000fe0</title>
<path fill="#f0ffff" stroke="black" d="M596,-365.5C596,-365.5 626,-365.5 626,-365.5 632,-365.5 638,-371.5 638,-377.5 638,-377.5 638,-389.5 638,-389.5 638,-395.5 632,-401.5 626,-401.5 626,-401.5 596,-401.5 596,-401.5 590,-401.5 584,-395.5 584,-389.5 584,-389.5 584,-377.5 584,-377.5 584,-371.5 590,-365.5 596,-365.5"/>
<text text-anchor="middle" x="611" y="-379.8" font-family="Times,serif" font-size="14.00">fact</text>
</g>
<!-- node_0x606000001040&#45;&gt;node_0x606000000fe0 -->
<g id="edge46" class="edge">
<title>node_0x606000001040&#45;&gt;node_0x606000000fe0</title>
<path fill="none" stroke="#e32636" d="M611,-438.31C611,-430.29 611,-420.55 611,-411.57"/>
<polygon fill="#e32636" stroke="#e32636" points="614.5,-411.53 611,-401.53 607.5,-411.53 614.5,-411.53"/>
</g>
<!-- node_0x606000000f80 -->
<g id="node48" class="node">
<title>node_0x606000000f80</title>
<path fill="#c6df90" stroke="black" d="M635,-292.5C635,-292.5 665,-292.5 665,-292.5 671,-292.5 677,-298.5 677,-304.5 677,-304.5 677,-316.5 677,-316.5 677,-322.5 671,-328.5 665,-328.5 665,-328.5 635,-328.5 635,-328.5 629,-328.5 623,-322.5 623,-316.5 623,-316.5 623,-304.5 623,-304.5 623,-298.5 629,-292.5 635,-292.5"/>
<text text-anchor="middle" x="650" y="-306.8" font-family="Times,serif" font-size="14.00">and</text>
</g>
<!-- node_0x606000000fe0&#45;&gt;node_0x606000000f80 -->
<g id="edge47" class="edge">
<title>node_0x606000000fe0&#45;&gt;node_0x606000000f80</title>
<path fill="none" stroke="#e32636" d="M620.44,-365.31C625.04,-356.94 630.67,-346.7 635.77,-337.4"/>
<polygon fill="#e32636" stroke="#e32636" points="638.9,-338.98 640.65,-328.53 632.76,-335.61 638.9,-338.98"/>
</g>
<!-- node_0x606000000f20 -->
<g id="node49" class="node">
<title>node_0x606000000f20</title>
<path fill="#9aceeb" stroke="black" d="M638,-219.5C638,-219.5 668,-219.5 668,-219.5 674,-219.5 680,-225.5 680,-231.5 680,-231.5 680,-243.5 680,-243.5 680,-249.5 674,-255.5 668,-255.5 668,-255.5 638,-255.5 638,-255.5 632,-255.5 626,-249.5 626,-243.5 626,-243.5 626,-231.5 626,-231.5 626,-225.5 632,-219.5 638,-219.5"/>
<text text-anchor="middle" x="653" y="-233.8" font-family="Times,serif" font-size="14.00">x</text>
</g>
<!-- node_0x606000000f80&#45;&gt;node_0x606000000f20 -->
<g id="edge48" class="edge">
<title>node_0x606000000f80&#45;&gt;node_0x606000000f20</title>
<path fill="none" stroke="#e32636" d="M650.73,-292.31C651.07,-284.29 651.48,-274.55 651.86,-265.57"/>
<polygon fill="#e32636" stroke="#e32636" points="655.36,-265.67 652.28,-255.53 648.36,-265.37 655.36,-265.67"/>
</g>
<!-- node_0x606000001160 -->
<g id="node51" class="node">
<title>node_0x606000001160</title>
<path fill="#f0ffff" stroke="black" d="M668,-438.5C668,-438.5 698,-438.5 698,-438.5 704,-438.5 710,-444.5 710,-450.5 710,-450.5 710,-462.5 710,-462.5 710,-468.5 704,-474.5 698,-474.5 698,-474.5 668,-474.5 668,-474.5 662,-474.5 656,-468.5 656,-462.5 656,-462.5 656,-450.5 656,-450.5 656,-444.5 662,-438.5 668,-438.5"/>
<text text-anchor="middle" x="683" y="-452.8" font-family="Times,serif" font-size="14.00">print</text>
</g>
<!-- node_0x6060000011c0&#45;&gt;node_0x606000001160 -->
<g id="edge50" class="edge">
<title>node_0x6060000011c0&#45;&gt;node_0x606000001160</title>
<path fill="none" stroke="#e32636" d="M669.36,-511.31C671.41,-503.2 673.91,-493.34 676.21,-484.28"/>
<polygon fill="#e32636" stroke="#e32636" points="679.62,-485.08 678.68,-474.53 672.83,-483.36 679.62,-485.08"/>
</g>
<!-- node_0x606000001100 -->
<g id="node52" class="node">
<title>node_0x606000001100</title>
<path fill="#9aceeb" stroke="black" d="M668,-365.5C668,-365.5 698,-365.5 698,-365.5 704,-365.5 710,-371.5 710,-377.5 710,-377.5 710,-389.5 710,-389.5 710,-395.5 704,-401.5 698,-401.5 698,-401.5 668,-401.5 668,-401.5 662,-401.5 656,-395.5 656,-389.5 656,-389.5 656,-377.5 656,-377.5 656,-371.5 662,-365.5 668,-365.5"/>
<text text-anchor="middle" x="683" y="-379.8" font-family="Times,serif" font-size="14.00">x</text>
</g>
<!-- node_0x606000001160&#45;&gt;node_0x606000001100 -->
<g id="edge51" class="edge">
<title>node_0x606000001160&#45;&gt;node_0x606000001100</title>
<path fill="none" stroke="#e32636" d="M683,-438.31C683,-430.29 683,-420.55 683,-411.57"/>
<polygon fill="#e32636" stroke="#e32636" points="686.5,-411.53 683,-401.53 679.5,-411.53 686.5,-411.53"/>
</g>
</g>
</svg>
